<svg width="209" height="192" viewBox="0 0 209 192" fill="none" xmlns="http://www.w3.org/2000/svg">
<g clip-path="url(#clip0_496_18)">
<path d="M188.736 172.095H67.68C61.472 172.095 55.552 169.119 51.904 164.095C17.3013 116.949 0 91.0075 0 86.2715C0 75.4875 8.8 66.6875 19.584 66.6875C26.528 66.6875 32.992 70.3995 36.512 76.4155C39.264 80.4475 59.584 108.288 77.632 132.928H188.768C199.552 132.928 208.352 141.728 208.352 152.512C208.352 163.296 199.552 172.095 188.768 172.095H188.736ZM19.584 73.8555C12.736 73.8555 7.136 79.4235 7.136 86.3035C7.136 90.9755 8.064 92.3515 57.664 159.904C60 163.072 63.744 164.992 67.68 164.992H188.736C195.584 164.992 201.184 159.423 201.184 152.543C201.184 145.663 195.616 140.095 188.736 140.095H75.808C74.656 140.095 73.6 139.551 72.928 138.623C58.784 119.295 33.888 85.2795 30.464 80.2235C28.096 76.1915 24 73.8555 19.584 73.8555Z" fill="black"/>
<path d="M71.2321 192H63.5521C62.4321 192 61.3761 191.488 60.7041 190.592C60.0321 189.696 59.8081 188.544 60.0961 187.488L65.6321 167.584C66.1441 165.696 68.1281 164.576 70.0161 165.088C71.9041 165.6 73.0241 167.584 72.5121 169.472L68.2561 184.832H69.8241L89.8881 165.92C91.3281 164.576 93.5681 164.64 94.9441 166.08C96.2881 167.52 96.2241 169.76 94.7841 171.136L73.6641 191.04C72.9921 191.68 72.1281 192 71.2001 192H71.2321Z" fill="black"/>
<path d="M189.183 192H181.503C180.607 192 179.711 191.648 179.039 191.04L157.919 171.136C156.479 169.792 156.415 167.52 157.759 166.08C159.103 164.64 161.375 164.576 162.815 165.92L182.911 184.832H184.479L180.223 169.472C179.711 167.584 180.799 165.6 182.719 165.088C184.607 164.576 186.591 165.664 187.103 167.584L192.639 187.488C192.927 188.576 192.703 189.728 192.031 190.592C191.359 191.488 190.303 192 189.183 192Z" fill="black"/>
<path d="M204.768 191.999H29.7603C27.7763 191.999 26.1763 190.399 26.1763 188.415C26.1763 186.431 27.7763 184.831 29.7603 184.831H204.768C206.752 184.831 208.352 186.431 208.352 188.415C208.352 190.399 206.752 191.999 204.768 191.999Z" fill="black"/>
<path d="M155.264 41.984C143.68 41.984 134.272 32.576 134.272 20.992C134.272 9.408 143.68 0 155.264 0C166.848 0 176.256 9.408 176.256 20.992C176.256 32.576 166.848 41.984 155.264 41.984ZM155.264 7.136C147.616 7.136 141.408 13.344 141.408 20.992C141.408 28.64 147.616 34.848 155.264 34.848C162.912 34.848 169.12 28.64 169.12 20.992C169.12 13.344 162.912 7.136 155.264 7.136Z" fill="black"/>
<path d="M155.648 101.408C155.296 101.408 154.976 101.408 154.624 101.344L129.664 98.9439C120.544 98.0479 113.664 90.4959 113.664 81.3439V70.4959C113.664 57.1519 124.512 46.3359 137.824 46.3359H172.64C185.984 46.3359 196.8 57.1839 196.8 70.4959V81.3439C196.8 90.4959 189.92 98.0799 180.8 98.9439L159.008 101.056C158.784 101.056 158.528 101.056 158.304 101.056C157.44 101.28 156.544 101.408 155.616 101.408H155.648ZM137.856 53.4399C128.448 53.4399 120.832 61.0879 120.832 70.4639V81.3119C120.832 86.7839 124.928 91.2959 130.368 91.8079L155.328 94.2079C157.216 94.3999 158.944 92.9919 159.168 91.1039C159.392 89.2159 158.08 87.4879 156.192 87.1999L132.736 83.6479C130.816 83.3599 129.472 81.5999 129.728 79.6799L131.584 64.8959C131.84 62.9439 133.6 61.5359 135.552 61.7919C137.504 62.0479 138.912 63.8079 138.656 65.7599L137.248 77.0879L157.28 80.1279C163.008 80.9919 166.944 86.1759 166.272 91.9039C166.24 92.3199 166.144 92.7359 166.048 93.1199L180.192 91.7439C185.632 91.2319 189.728 86.7199 189.728 81.2479V70.3999C189.728 60.9919 182.08 53.3759 172.704 53.3759H137.888L137.856 53.4399Z" fill="black"/>
<path d="M155.263 87.104C153.535 87.104 151.999 85.824 151.743 84.064C151.455 82.112 152.799 80.288 154.751 80L173.311 77.184L171.903 65.856C171.647 63.904 173.055 62.112 175.007 61.888C176.959 61.632 178.751 63.04 178.975 64.992L180.799 79.776C181.023 81.696 179.711 83.456 177.791 83.744L155.775 87.072C155.583 87.072 155.423 87.104 155.231 87.104H155.263Z" fill="black"/>
<path d="M177.28 140.095H155.264C153.28 140.095 151.68 138.495 151.68 136.511V116.479C151.68 114.495 153.28 112.895 155.264 112.895C157.248 112.895 158.848 114.495 158.848 116.479V132.959H173.696V95.7432C173.696 93.7592 175.296 92.1592 177.28 92.1592C179.264 92.1592 180.864 93.7592 180.864 95.7432V136.543C180.864 138.527 179.264 140.127 177.28 140.127V140.095Z" fill="black"/>
<path d="M155.264 140.096H133.248C131.264 140.096 129.664 138.496 129.664 136.512V95.7119C129.664 93.7279 131.264 92.1279 133.248 92.1279C135.232 92.1279 136.832 93.7279 136.832 95.7119V132.928H151.712V116.448C151.712 114.464 153.312 112.864 155.296 112.864C157.28 112.864 158.88 114.464 158.88 116.448V136.48C158.88 138.464 157.28 140.064 155.296 140.064L155.264 140.096Z" fill="black"/>
<path d="M95.9043 106.944C93.9203 106.944 92.3203 105.344 92.3203 103.36V99.9995C92.3203 98.0155 93.9203 96.4155 95.9043 96.4155C97.8883 96.4155 99.4883 98.0155 99.4883 99.9995V103.36C99.4883 105.344 97.8883 106.944 95.9043 106.944Z" fill="black"/>
<path d="M95.9043 118.559C93.9203 118.559 92.3203 116.959 92.3203 114.975V111.615C92.3203 109.631 93.9203 108.031 95.9043 108.031C97.8883 108.031 99.4883 109.631 99.4883 111.615V114.975C99.4883 116.959 97.8883 118.559 95.9043 118.559Z" fill="black"/>
<path d="M103.392 111.073H100.032C98.0482 111.073 96.4482 109.473 96.4482 107.489C96.4482 105.505 98.0482 103.905 100.032 103.905H103.392C105.376 103.905 106.976 105.505 106.976 107.489C106.976 109.473 105.376 111.073 103.392 111.073Z" fill="black"/>
<path d="M91.7751 111.073H88.4151C86.4311 111.073 84.8311 109.473 84.8311 107.489C84.8311 105.505 86.4311 103.905 88.4151 103.905H91.7751C93.7591 103.905 95.3591 105.505 95.3591 107.489C95.3591 109.473 93.7591 111.073 91.7751 111.073Z" fill="black"/>
<path d="M74.3682 43.4875C72.3842 43.4875 70.7842 41.8875 70.7842 39.9035V36.5435C70.7842 34.5595 72.3842 32.9595 74.3682 32.9595C76.3522 32.9595 77.9522 34.5595 77.9522 36.5435V39.9035C77.9522 41.8875 76.3522 43.4875 74.3682 43.4875Z" fill="black"/>
<path d="M74.3682 55.1047C72.3842 55.1047 70.7842 53.5047 70.7842 51.5207V48.1607C70.7842 46.1767 72.3842 44.5767 74.3682 44.5767C76.3522 44.5767 77.9522 46.1767 77.9522 48.1607V51.5207C77.9522 53.5047 76.3522 55.1047 74.3682 55.1047Z" fill="black"/>
<path d="M81.8566 47.6162H78.4966C76.5126 47.6162 74.9126 46.0162 74.9126 44.0322C74.9126 42.0482 76.5126 40.4482 78.4966 40.4482H81.8566C83.8406 40.4482 85.4406 42.0482 85.4406 44.0322C85.4406 46.0162 83.8406 47.6162 81.8566 47.6162Z" fill="black"/>
<path d="M70.2394 47.6162H66.8794C64.8954 47.6162 63.2954 46.0162 63.2954 44.0322C63.2954 42.0482 64.8954 40.4482 66.8794 40.4482H70.2394C72.2234 40.4482 73.8234 42.0482 73.8234 44.0322C73.8234 46.0162 72.2234 47.6162 70.2394 47.6162Z" fill="black"/>
</g>
<defs>
<clipPath id="clip0_496_18">
<rect width="208.32" height="192" fill="white"/>
</clipPath>
</defs>
</svg>
