<svg width="149" height="192" viewBox="0 0 149 192" fill="none" xmlns="http://www.w3.org/2000/svg">
<g clip-path="url(#clip0_496_5)">
<path d="M145.561 136.255H130.071C128.377 136.255 126.979 137.653 126.979 139.347C126.979 144.669 113.333 151.745 90.2323 154.064C93.8297 150.199 96.0297 145.026 96.0297 139.347C96.0297 127.396 86.3078 117.674 74.3561 117.674C62.4045 117.674 52.6826 127.396 52.6826 139.347C52.6826 145.026 54.8826 150.199 58.48 154.064C35.3794 151.745 21.733 144.669 21.733 139.347C21.733 137.653 20.3357 136.255 18.6411 136.255H3.09198C1.39734 136.255 0 137.653 0 139.347C0 151.983 13.8544 162.953 37.1632 168.989V188.908C37.1632 190.603 38.5605 192 40.2552 192H108.398C110.092 192 111.49 190.603 111.49 188.908V168.989C134.798 162.983 148.653 151.983 148.653 139.347C148.653 137.653 147.255 136.255 145.561 136.255ZM74.3264 123.858C82.8591 123.858 89.816 130.785 89.816 139.347C89.816 147.91 82.8888 154.837 74.3264 154.837C65.764 154.837 58.8368 147.91 58.8368 139.347C58.8368 130.785 65.764 123.858 74.3264 123.858ZM107.684 163.518C106.287 163.845 105.306 165.094 105.306 166.521V185.787H43.3472V166.521C43.3472 165.094 42.3661 163.816 40.9687 163.518C22.1195 159.029 9.18674 151.002 6.65965 142.439H16.0248C20.0979 154.54 47.9851 161.021 74.3264 161.021C100.668 161.021 128.585 154.54 132.628 142.439H141.993C139.466 151.032 126.533 159.059 107.684 163.518Z" fill="black"/>
<path d="M9.27651 111.49H139.348C141.042 111.49 142.44 110.092 142.44 108.398V24.7656C143.748 24.7656 144.878 23.9628 145.353 22.7439C145.829 21.5249 145.443 20.1871 144.461 19.2951L122.788 0.743264C122.223 0.237845 121.509 0 120.766 0H27.8581C27.1149 0 26.4013 0.237845 25.8364 0.743264L4.19258 19.3249C3.21148 20.1573 2.85471 21.5249 3.30067 22.7736C3.74663 23.9926 4.90612 24.7953 6.21426 24.7953V108.427C6.21426 110.122 7.6116 111.519 9.30624 111.519L9.27651 111.49ZM29.0176 6.18396H119.636L134.085 18.5816H14.5686L29.0176 6.18396ZM12.3982 24.7656H136.285V105.276H12.3982V24.7656Z" fill="black"/>
<path d="M74.3264 40.2554C62.3747 40.2554 52.6528 49.9773 52.6528 61.929C52.6528 69.0346 56.1908 75.6942 61.9585 79.7078V80.5106C61.9585 82.2052 63.3558 83.6025 65.0505 83.6025H83.6321C85.3267 83.6025 86.7241 82.2052 86.7241 80.5106V79.7078C92.4918 75.6942 96.0297 69.0346 96.0297 61.929C96.0297 49.9773 86.3078 40.2554 74.3561 40.2554H74.3264ZM82.0564 75.3374C81.2834 75.8131 80.7185 76.5564 80.5698 77.4186H68.0533C67.9046 76.5564 67.3397 75.7834 66.5667 75.3374C61.8098 72.5725 58.8368 67.4291 58.8368 61.929C58.8368 53.3666 65.764 46.4393 74.3264 46.4393C82.8888 46.4393 89.816 53.3666 89.816 61.929C89.816 67.4291 86.843 72.5428 82.0861 75.3374H82.0564Z" fill="black"/>
<path d="M65.021 86.7241H83.6026V92.9081H65.021V86.7241Z" fill="black"/>
<path d="M68.1421 96H80.5397V102.184H68.1421V96Z" fill="black"/>
<path d="M71.2344 27.8579H77.4183V37.1636H71.2344V27.8579Z" fill="black"/>
<path d="M48.0454 40.0472L52.4158 35.6768L58.9863 42.2472L54.6159 46.6176L48.0454 40.0472Z" fill="black"/>
<path d="M40.2559 58.8369H49.5615V65.0209H40.2559V58.8369Z" fill="black"/>
<path d="M48.0454 83.8703L54.6159 77.2998L58.9863 81.6702L52.4158 88.2407L48.0454 83.8703Z" fill="black"/>
<path d="M89.6377 81.6702L94.0081 77.2998L100.579 83.8703L96.2082 88.2407L89.6377 81.6702Z" fill="black"/>
<path d="M99.0928 58.8369H108.398V65.0209H99.0928V58.8369Z" fill="black"/>
<path d="M89.6377 42.2184L96.2082 35.6479L100.579 40.0183L94.0081 46.5888L89.6377 42.2184Z" fill="black"/>
</g>
<defs>
<clipPath id="clip0_496_5">
<rect width="148.653" height="192" fill="white"/>
</clipPath>
</defs>
</svg>
