<svg width="192" height="192" viewBox="0 0 192 192" fill="none" xmlns="http://www.w3.org/2000/svg">
<g clip-path="url(#clip0_496_2)">
<path d="M163.452 76.3348C161.724 74.6072 159.389 73.6154 156.957 73.6154H127.268C132.546 38.647 108.52 6.04617 73.5834 0.735329C38.647 -4.57551 6.04617 19.4512 0.735329 54.3876C-4.57551 89.3239 19.4512 121.957 54.3876 127.236C57.5869 127.716 60.7862 127.971 64.0175 127.971H64.0815L114.598 188.662C117.798 192.533 123.556 193.077 127.428 189.878C127.876 189.526 128.259 189.11 128.643 188.662L189.846 115.142C192.917 111.463 192.693 106.056 189.334 102.633L163.452 76.3348ZM121.605 178.264L100.394 111.975H142.816L121.605 178.264ZM34.7119 97.8341L36.8874 95.6586C38.1351 94.4108 38.1351 92.3953 36.8874 91.1475C35.6397 89.8998 33.6241 89.8998 32.3764 91.1475L30.2329 93.2911C23.8983 85.9967 20.0911 76.8467 19.3873 67.2168H22.4586C24.2182 67.2168 25.6579 65.7771 25.6579 64.0175C25.6579 62.2579 24.2182 60.8182 22.4586 60.8182H19.4192C20.0911 51.1883 23.8983 42.0383 30.2329 34.7439L32.3764 36.8874C33.6241 38.1351 35.6397 38.1351 36.8874 36.8874C38.1351 35.6397 38.1351 33.6241 36.8874 32.3764L34.7439 30.2329C42.0383 23.8983 51.1883 20.0911 60.8182 19.4192V22.4586C60.8182 24.2182 62.2579 25.6579 64.0175 25.6579C65.7771 25.6579 67.2168 24.2182 67.2168 22.4586V19.4192C76.8467 20.0911 85.9967 23.8983 93.2911 30.2329L91.1476 32.3764C89.8998 33.6241 89.8998 35.6397 91.1476 36.8874C92.3953 38.1351 94.4108 38.1351 95.6586 36.8874L97.8021 34.7439C104.137 42.0383 107.944 51.1883 108.616 60.8182H105.576C103.817 60.8182 102.377 62.2579 102.377 64.0175C102.377 65.7771 103.817 67.2168 105.576 67.2168H108.648C108.488 69.3603 108.168 71.5038 107.72 73.6154H86.2206C83.7892 73.6154 81.4537 74.6072 79.7261 76.3348L53.8437 102.633C52.66 103.849 51.8282 105.352 51.4442 106.984C45.2696 105.16 39.5428 102.057 34.6799 97.8341H34.7119ZM128.259 79.982H154.846L146.208 102.409L128.259 79.982ZM140.545 105.576H102.665L121.605 81.9016L140.545 105.576ZM97.0023 102.441L88.3642 80.014H114.95L97.0023 102.441ZM82.5414 82.6694L91.3715 105.608H59.9864L82.5414 82.6694ZM160.7 82.6694L183.255 105.608H151.87L160.7 82.6694ZM6.43008 63.9855C6.43008 32.1844 32.2164 6.39809 64.0175 6.39809C95.8185 6.39809 121.605 32.1844 121.605 63.9855C121.605 67.2168 121.285 70.4161 120.709 73.5834H114.278C114.886 70.4161 115.206 67.2168 115.206 63.9855C115.206 50.4524 109.863 37.4953 100.298 27.9294C100.266 27.8974 100.266 27.8334 100.202 27.8014C100.138 27.7694 100.106 27.7374 100.074 27.7054C80.142 7.83777 47.893 7.83777 27.9614 27.7054C27.9294 27.7374 27.8654 27.7374 27.8334 27.8014C27.8014 27.8654 27.7694 27.8974 27.7374 27.9294C7.86977 47.829 7.86977 80.078 27.7054 100.01C27.7374 100.074 27.7694 100.138 27.8334 100.202C27.8974 100.266 27.9934 100.298 28.0893 100.362C34.8079 107.048 43.254 111.687 52.5 113.831C52.7559 114.278 53.0439 114.726 53.3958 115.142L58.5467 121.317C29.0491 118.438 6.49407 93.675 6.46208 64.0175L6.43008 63.9855ZM59.0906 111.975H93.675L115.27 179.48L59.0586 111.975H59.0906ZM127.94 179.48L149.535 111.975H184.119L127.908 179.48H127.94Z" fill="black"/>
<path d="M64.0177 67.1855H76.8149C78.5745 67.1855 80.0142 65.7458 80.0142 63.9862C80.0142 62.2266 78.5745 60.7869 76.8149 60.7869H67.217V35.1925C67.217 33.4328 65.7773 31.9932 64.0177 31.9932C62.258 31.9932 60.8184 33.4328 60.8184 35.1925V63.9862C60.8184 65.7458 62.258 67.1855 64.0177 67.1855Z" fill="black"/>
</g>
<defs>
<clipPath id="clip0_496_2">
<rect width="191.99" height="191.958" fill="white"/>
</clipPath>
</defs>
</svg>
