<svg width="197" height="48" viewBox="0 0 197 48" fill="none" xmlns="http://www.w3.org/2000/svg">
<path d="M184.379 30.4796C180.023 30.4796 175.625 28.959 172.173 25.8766L175.913 21.3968C178.502 23.5339 181.215 24.8902 184.502 24.8902C187.092 24.8902 188.653 23.8627 188.653 22.1777V22.0955C188.653 20.4926 187.667 19.6707 182.859 18.4377C177.064 16.9581 173.324 15.3553 173.324 9.64257V9.56038C173.324 4.34084 177.516 0.88855 183.393 0.88855C187.585 0.88855 191.16 2.20371 194.078 4.54633L190.791 9.31379C188.242 7.54654 185.735 6.47797 183.311 6.47797C180.886 6.47797 179.612 7.58764 179.612 8.985V9.06719C179.612 10.9577 180.845 11.5742 185.818 12.8483C191.654 14.3689 194.942 16.465 194.942 21.479V21.5612C194.942 27.2739 190.585 30.4796 184.379 30.4796Z" fill="white"/>
<path d="M144.445 30.0686V1.2995H157.596C161.254 1.2995 164.09 2.32697 165.981 4.21751C167.583 5.82036 168.446 8.08079 168.446 10.7933V10.8755C168.446 15.5197 165.939 18.4377 162.282 19.7939L169.31 30.0686H161.912L155.747 20.8625H150.774V30.0686H144.445ZM150.774 15.2731H157.185C160.268 15.2731 162.035 13.6291 162.035 11.2043V11.1221C162.035 8.40958 160.145 7.01222 157.062 7.01222H150.774V15.2731Z" fill="white"/>
<path d="M123.501 30.5618C114.623 30.5618 108.253 23.9449 108.253 15.7663V15.6841C108.253 7.50542 114.705 0.806335 123.583 0.806335C132.46 0.806335 138.83 7.42323 138.83 15.6019V15.6841C138.83 23.8627 132.378 30.5618 123.501 30.5618ZM123.583 24.7258C128.679 24.7258 132.213 20.6981 132.213 15.7663V15.6841C132.213 10.7522 128.597 6.64235 123.501 6.64235C118.404 6.64235 114.87 10.67 114.87 15.6019V15.6841C114.87 20.6159 118.487 24.7258 123.583 24.7258Z" fill="white"/>
<path d="M79.8267 30.0686V1.2995H92.9782C96.636 1.2995 99.4718 2.32697 101.362 4.21751C102.965 5.82036 103.828 8.08079 103.828 10.7933V10.8755C103.828 15.5197 101.321 18.4377 97.6635 19.7939L104.691 30.0686H97.2936L91.1288 20.8625H86.1559V30.0686H79.8267ZM86.1559 15.2731H92.5673C95.6497 15.2731 97.4169 13.6291 97.4169 11.2043V11.1221C97.4169 8.40958 95.5264 7.01222 92.444 7.01222H86.1559V15.2731Z" fill="white"/>
<path d="M50.1265 30.0686V1.2995H63.2781C66.9358 1.2995 69.7716 2.32697 71.6622 4.21751C73.265 5.82036 74.1281 8.08079 74.1281 10.7933V10.8755C74.1281 15.5197 71.6211 18.4377 67.9633 19.7939L74.9912 30.0686H67.5934L61.4286 20.8625H56.4557V30.0686H50.1265ZM56.4557 15.2731H62.8671C65.9495 15.2731 67.7167 13.6291 67.7167 11.2043V11.1221C67.7167 8.40958 65.8262 7.01222 62.7438 7.01222H56.4557V15.2731Z" fill="white"/>
<path d="M36.6074 30.0686V1.2995H42.9366V30.0686H36.6074Z" fill="white"/>
<path d="M0.639404 30.0686V1.2995H7.46179L15.0239 13.4647L22.5861 1.2995H29.4085V30.0686H23.1204V11.2865L15.0239 23.575H14.8596L6.84531 11.4098V30.0686H0.639404Z" fill="white"/>
<path d="M190.286 47.3664V39.4664H195.996V40.279H191.177V42.9763H195.488V43.7888H191.177V46.5538H196.053V47.3664H190.286Z" fill="white"/>
<path d="M177.091 47.5018C174.608 47.5018 173.073 45.6961 173.073 43.439V43.4164C173.073 41.2496 174.665 39.331 177.035 39.331C178.366 39.331 179.19 39.7147 179.98 40.3806L179.405 41.0577C178.795 40.5273 178.118 40.1548 177.001 40.1548C175.251 40.1548 173.999 41.6333 173.999 43.3938V43.4164C173.999 45.3011 175.206 46.7005 177.125 46.7005C178.028 46.7005 178.863 46.3507 179.405 45.9105V43.9468H177.001V43.1456H180.262V46.2943C179.529 46.9488 178.423 47.5018 177.091 47.5018Z" fill="white"/>
<path d="M156.494 47.3664V39.4664H157.329L162.306 45.7977V39.4664H163.175V47.3664H162.464L157.363 40.8884V47.3664H156.494Z" fill="white"/>
<path d="M143.078 47.4906C141.125 47.4906 139.793 46.2943 139.793 44.0597V39.4664H140.685V44.0033C140.685 45.7074 141.588 46.6667 143.1 46.6667C144.556 46.6667 145.481 45.7864 145.481 44.0597V39.4664H146.373V43.992C146.373 46.2943 145.053 47.4906 143.078 47.4906Z" fill="white"/>
<path d="M125.985 47.5018C123.581 47.5018 121.967 45.6171 121.967 43.439V43.4164C121.967 41.2383 123.604 39.331 126.008 39.331C128.411 39.331 130.025 41.2157 130.025 43.3938V43.4164C130.025 45.5945 128.389 47.5018 125.985 47.5018ZM126.008 46.678C127.813 46.678 129.1 45.2334 129.1 43.439V43.4164C129.1 41.622 127.791 40.1548 125.985 40.1548C124.179 40.1548 122.893 41.5994 122.893 43.3938V43.4164C122.893 45.2108 124.202 46.678 126.008 46.678Z" fill="white"/>
<path d="M107.768 47.3664V39.4664H108.66V46.5426H113.106V47.3664H107.768Z" fill="white"/>
<path d="M82.7519 47.3664V44.2403L79.4678 39.4664H80.5512L83.2146 43.4164L85.9006 39.4664H86.9389L83.6548 44.229V47.3664H82.7519Z" fill="white"/>
<path d="M67.0371 47.3664V40.2903H64.385V39.4664H70.5921V40.2903H67.94V47.3664H67.0371Z" fill="white"/>
<path d="M51.5332 47.4906C49.5807 47.4906 48.249 46.2943 48.249 44.0597V39.4664H49.1406V44.0033C49.1406 45.7074 50.0434 46.6667 51.5557 46.6667C53.0116 46.6667 53.937 45.7864 53.937 44.0597V39.4664H54.8286V43.992C54.8286 46.2943 53.5082 47.4906 51.5332 47.4906Z" fill="white"/>
<path d="M31.0537 47.3664L34.6538 39.41H35.489L39.0891 47.3664H38.1298L37.2044 45.2785H32.9046L31.9678 47.3664H31.0537ZM33.2544 44.4772H36.8546L35.0601 40.4483L33.2544 44.4772Z" fill="white"/>
<path d="M16.1575 47.3664V39.4664H21.868V40.279H17.049V42.9763H21.3602V43.7888H17.049V46.5538H21.9245V47.3664H16.1575Z" fill="white"/>
<path d="M0 47.3664V39.4664H3.36313C4.26599 39.4664 4.97699 39.726 5.42841 40.1661C5.7557 40.5047 5.93627 40.9223 5.93627 41.4301V41.4527C5.93627 42.4797 5.30427 43.0101 4.68356 43.281C5.62027 43.5631 6.37641 44.1048 6.37641 45.1883V45.2108C6.37641 46.5651 5.23656 47.3664 3.50985 47.3664H0ZM0.880283 42.9876H3.21642C4.28856 42.9876 5.03342 42.5023 5.03342 41.5769V41.5543C5.03342 40.7756 4.4127 40.2677 3.28413 40.2677H0.880283V42.9876ZM0.880283 46.5651H3.53242C4.7287 46.5651 5.47356 46.0347 5.47356 45.1544V45.1318C5.47356 44.2741 4.75127 43.7776 3.37442 43.7776H0.880283V46.5651Z" fill="white"/>
</svg>
