<svg width="380" height="78" viewBox="0 0 380 78" fill="none" xmlns="http://www.w3.org/2000/svg">
<rect width="2048" height="4647" transform="translate(-454 -130)" fill="white"/>
<path d="M9.76 15.78C11.74 16.16 12.84 17.36 12.84 19.3C12.84 21.66 11.12 23 7.68 23H1.44V9H7.28C10.28 9 12.1 10.26 12.1 12.58C12.1 14.24 11.16 15.32 9.76 15.78ZM7.24 9.88H2.46V15.46H7.24C9.66 15.46 11.06 14.52 11.06 12.66C11.06 10.82 9.66 9.88 7.24 9.88ZM7.68 22.12C10.36 22.12 11.82 21.24 11.82 19.22C11.82 17.22 10.36 16.34 7.68 16.34H2.46V22.12H7.68ZM20.2391 23.08C17.2391 23.08 15.0191 20.88 15.0191 17.78C15.0191 14.68 17.2391 12.48 20.2391 12.48C23.2391 12.48 25.4591 14.68 25.4591 17.78C25.4591 20.88 23.2391 23.08 20.2391 23.08ZM20.2391 22.18C22.6391 22.18 24.4391 20.4 24.4391 17.78C24.4391 15.16 22.6391 13.38 20.2391 13.38C17.8391 13.38 16.0391 15.16 16.0391 17.78C16.0391 20.4 17.8391 22.18 20.2391 22.18ZM32.6414 23.08C29.6414 23.08 27.4214 20.88 27.4214 17.78C27.4214 14.68 29.6414 12.48 32.6414 12.48C35.6414 12.48 37.8614 14.68 37.8614 17.78C37.8614 20.88 35.6414 23.08 32.6414 23.08ZM32.6414 22.18C35.0414 22.18 36.8414 20.4 36.8414 17.78C36.8414 15.16 35.0414 13.38 32.6414 13.38C30.2414 13.38 28.4414 15.16 28.4414 17.78C28.4414 20.4 30.2414 22.18 32.6414 22.18ZM49.1237 23L44.6838 17.42L41.9638 19.9V23H40.9638V8.16H41.9638V18.66L48.6438 12.56H49.9238L45.4238 16.78L50.3638 23H49.1237ZM64.0983 23.1C59.9383 23.1 56.8383 20.08 56.8383 16C56.8383 11.92 59.9383 8.9 64.0983 8.9C66.0783 8.9 67.8583 9.54 69.0783 10.84L68.4383 11.5C67.2383 10.32 65.7783 9.84 64.1383 9.84C60.5583 9.84 57.8583 12.48 57.8583 16C57.8583 19.52 60.5583 22.16 64.1383 22.16C65.7783 22.16 67.2383 21.66 68.4383 20.48L69.0783 21.14C67.8583 22.44 66.0783 23.1 64.0983 23.1ZM75.7664 23.08C72.7664 23.08 70.5464 20.88 70.5464 17.78C70.5464 14.68 72.7664 12.48 75.7664 12.48C78.7664 12.48 80.9864 14.68 80.9864 17.78C80.9864 20.88 78.7664 23.08 75.7664 23.08ZM75.7664 22.18C78.1664 22.18 79.9664 20.4 79.9664 17.78C79.9664 15.16 78.1664 13.38 75.7664 13.38C73.3664 13.38 71.5664 15.16 71.5664 17.78C71.5664 20.4 73.3664 22.18 75.7664 22.18ZM92.2288 12.56H93.2288V23H92.2688V20.76C91.5888 22.22 90.1688 23.08 88.3288 23.08C85.6688 23.08 83.9688 21.58 83.9688 18.66V12.56H84.9688V18.58C84.9688 20.94 86.2288 22.18 88.4088 22.18C90.7688 22.18 92.2288 20.6 92.2288 18.12V12.56ZM98.4277 14.84C99.0677 13.32 100.448 12.48 102.408 12.48V13.46C102.328 13.46 102.248 13.44 102.168 13.44C99.8477 13.44 98.4677 14.98 98.4677 17.56V23H97.4677V12.56H98.4277V14.84ZM107.901 23.08C106.181 23.08 104.541 22.5 103.721 21.74L104.181 20.94C104.981 21.62 106.401 22.2 107.941 22.2C110.141 22.2 111.021 21.42 111.021 20.24C111.021 17.2 104.101 19.44 104.101 15.34C104.101 13.76 105.421 12.48 108.061 12.48C109.381 12.48 110.821 12.88 111.641 13.5L111.181 14.3C110.301 13.66 109.161 13.36 108.041 13.36C106.001 13.36 105.101 14.2 105.101 15.32C105.101 18.46 112.021 16.24 112.021 20.22C112.021 21.92 110.561 23.08 107.901 23.08ZM123.651 17.74C123.651 17.82 123.631 17.92 123.631 18.02H114.651C114.751 20.5 116.571 22.18 119.071 22.18C120.391 22.18 121.611 21.7 122.411 20.72L122.991 21.38C122.071 22.5 120.631 23.08 119.051 23.08C115.891 23.08 113.671 20.88 113.671 17.78C113.671 14.68 115.811 12.48 118.671 12.48C121.531 12.48 123.651 14.64 123.651 17.74ZM118.671 13.36C116.451 13.36 114.831 14.96 114.671 17.24H122.671C122.531 14.98 120.891 13.36 118.671 13.36ZM129.385 23.08C127.665 23.08 126.025 22.5 125.205 21.74L125.665 20.94C126.465 21.62 127.885 22.2 129.425 22.2C131.625 22.2 132.505 21.42 132.505 20.24C132.505 17.2 125.585 19.44 125.585 15.34C125.585 13.76 126.905 12.48 129.545 12.48C130.865 12.48 132.305 12.88 133.125 13.5L132.665 14.3C131.785 13.66 130.645 13.36 129.525 13.36C127.485 13.36 126.585 14.2 126.585 15.32C126.585 18.46 133.505 16.24 133.505 20.22C133.505 21.92 132.045 23.08 129.385 23.08Z" fill="black"/>
<path d="M12.052 40.9H12.975L9.907 50H8.893L6.228 42.239L3.55 50H2.549L-0.519 40.9H0.469L3.095 48.726L5.812 40.9H6.709L9.387 48.765L12.052 40.9ZM18.2183 43.11C19.8823 43.11 21.0263 44.072 21.0263 46.035V50H20.1033V46.126C20.1033 44.683 19.3493 43.942 18.0493 43.942C16.5803 43.942 15.6573 44.852 15.6573 46.412V50H14.7343V40.354H15.6573V44.358C16.1643 43.565 17.0613 43.11 18.2183 43.11ZM25.9241 43.11C27.6921 43.11 28.6931 43.994 28.6931 45.762V50H27.8091V48.934C27.3931 49.636 26.5871 50.065 25.4561 50.065C23.9091 50.065 22.9601 49.259 22.9601 48.076C22.9601 47.023 23.6361 46.139 25.5991 46.139H27.7701V45.723C27.7701 44.553 27.1071 43.916 25.8331 43.916C24.9491 43.916 24.1171 44.228 23.5581 44.722L23.1421 44.033C23.8311 43.448 24.8451 43.11 25.9241 43.11ZM25.5991 49.337C26.6391 49.337 27.4061 48.843 27.7701 47.946V46.828H25.6251C24.2991 46.828 23.8701 47.348 23.8701 48.05C23.8701 48.843 24.5071 49.337 25.5991 49.337ZM34.4761 48.921L34.8011 49.584C34.4371 49.909 33.8911 50.065 33.3581 50.065C32.0711 50.065 31.3561 49.337 31.3561 48.076V43.942H30.1341V43.162H31.3561V41.667H32.2791V43.162H34.3591V43.942H32.2791V48.024C32.2791 48.83 32.6951 49.272 33.4621 49.272C33.8391 49.272 34.2161 49.155 34.4761 48.921ZM42.2757 43.11C44.0437 43.11 45.0447 43.994 45.0447 45.762V50H44.1607V48.934C43.7447 49.636 42.9387 50.065 41.8077 50.065C40.2607 50.065 39.3117 49.259 39.3117 48.076C39.3117 47.023 39.9877 46.139 41.9507 46.139H44.1217V45.723C44.1217 44.553 43.4587 43.916 42.1847 43.916C41.3007 43.916 40.4687 44.228 39.9097 44.722L39.4937 44.033C40.1827 43.448 41.1967 43.11 42.2757 43.11ZM41.9507 49.337C42.9907 49.337 43.7577 48.843 44.1217 47.946V46.828H41.9767C40.6507 46.828 40.2217 47.348 40.2217 48.05C40.2217 48.843 40.8587 49.337 41.9507 49.337ZM48.4356 44.501C48.8646 43.591 49.7356 43.11 50.9966 43.11V44.007C50.9186 44.007 50.8406 43.994 50.7756 43.994C49.3456 43.994 48.4746 44.904 48.4746 46.516V50H47.5516V43.162H48.4356V44.501ZM58.5714 46.581C58.5714 46.659 58.5584 46.763 58.5584 46.867H52.8384C52.9424 48.297 54.0344 49.246 55.5294 49.246C56.3614 49.246 57.1024 48.947 57.6224 48.349L58.1424 48.947C57.5314 49.675 56.5824 50.065 55.5034 50.065C53.3714 50.065 51.9154 48.609 51.9154 46.581C51.9154 44.553 53.3324 43.11 55.2564 43.11C57.1804 43.11 58.5714 44.527 58.5714 46.581ZM55.2564 43.903C53.9304 43.903 52.9554 44.839 52.8384 46.178H57.6874C57.5704 44.839 56.5954 43.903 55.2564 43.903ZM68.6884 43.162H69.5984L66.1794 50.819C65.6074 52.158 64.8794 52.587 63.9044 52.587C63.2674 52.587 62.6564 52.379 62.2404 51.963L62.6694 51.274C63.0074 51.612 63.4234 51.794 63.9174 51.794C64.5284 51.794 64.9444 51.508 65.3344 50.65L65.6334 49.987L62.5784 43.162H63.5404L66.1144 48.973L68.6884 43.162ZM73.5029 50.065C71.5009 50.065 70.0189 48.609 70.0189 46.581C70.0189 44.553 71.5009 43.11 73.5029 43.11C75.5049 43.11 76.9739 44.553 76.9739 46.581C76.9739 48.609 75.5049 50.065 73.5029 50.065ZM73.5029 49.246C74.9589 49.246 76.0379 48.18 76.0379 46.581C76.0379 44.982 74.9589 43.916 73.5029 43.916C72.0469 43.916 70.9549 44.982 70.9549 46.581C70.9549 48.18 72.0469 49.246 73.5029 49.246ZM84.0973 43.162H85.0203V50H84.1363V48.752C83.6553 49.584 82.7713 50.065 81.6793 50.065C79.9373 50.065 78.7933 49.09 78.7933 47.127V43.162H79.7163V47.036C79.7163 48.492 80.4703 49.233 81.7703 49.233C83.2003 49.233 84.0973 48.31 84.0973 46.75V43.162ZM91.0077 50V40.354H91.9307V50H91.0077ZM97.2939 50.065C95.2919 50.065 93.8099 48.609 93.8099 46.581C93.8099 44.553 95.2919 43.11 97.2939 43.11C99.2959 43.11 100.765 44.553 100.765 46.581C100.765 48.609 99.2959 50.065 97.2939 50.065ZM97.2939 49.246C98.7499 49.246 99.8289 48.18 99.8289 46.581C99.8289 44.982 98.7499 43.916 97.2939 43.916C95.8379 43.916 94.7459 44.982 94.7459 46.581C94.7459 48.18 95.8379 49.246 97.2939 49.246ZM105.444 50.065C103.442 50.065 101.96 48.609 101.96 46.581C101.96 44.553 103.442 43.11 105.444 43.11C107.446 43.11 108.915 44.553 108.915 46.581C108.915 48.609 107.446 50.065 105.444 50.065ZM105.444 49.246C106.9 49.246 107.979 48.18 107.979 46.581C107.979 44.982 106.9 43.916 105.444 43.916C103.988 43.916 102.896 44.982 102.896 46.581C102.896 48.18 103.988 49.246 105.444 49.246ZM116.091 50L113.335 46.568L111.723 48.05V50H110.8V40.354H111.723V46.893L115.805 43.162H116.949L114.024 45.957L117.222 50H116.091ZM118.974 41.667C118.597 41.667 118.298 41.368 118.298 41.004C118.298 40.653 118.597 40.354 118.974 40.354C119.351 40.354 119.65 40.64 119.65 40.991C119.65 41.368 119.364 41.667 118.974 41.667ZM118.506 50V43.162H119.429V50H118.506ZM125.481 43.11C127.145 43.11 128.289 44.072 128.289 46.035V50H127.366V46.126C127.366 44.683 126.612 43.942 125.312 43.942C123.843 43.942 122.92 44.852 122.92 46.412V50H121.997V43.162H122.881V44.423C123.375 43.591 124.298 43.11 125.481 43.11ZM136.267 43.162H137.151V49.168C137.151 51.521 135.994 52.587 133.732 52.587C132.484 52.587 131.262 52.21 130.547 51.534L131.015 50.832C131.665 51.417 132.653 51.768 133.706 51.768C135.435 51.768 136.228 50.975 136.228 49.285V48.414C135.656 49.285 134.681 49.74 133.563 49.74C131.613 49.74 130.131 48.375 130.131 46.412C130.131 44.449 131.613 43.11 133.563 43.11C134.707 43.11 135.695 43.578 136.267 44.475V43.162ZM133.654 48.921C135.162 48.921 136.254 47.894 136.254 46.412C136.254 44.93 135.162 43.916 133.654 43.916C132.146 43.916 131.067 44.93 131.067 46.412C131.067 47.894 132.146 48.921 133.654 48.921ZM145.397 41.069C144.604 41.069 144.188 41.511 144.188 42.356V43.162H146.294V43.942H144.214V50H143.291V43.942H142.069V43.162H143.291V42.317C143.291 41.095 144.019 40.289 145.358 40.289C145.865 40.289 146.385 40.432 146.723 40.718L146.411 41.407C146.151 41.186 145.787 41.069 145.397 41.069ZM150.221 50.065C148.219 50.065 146.737 48.609 146.737 46.581C146.737 44.553 148.219 43.11 150.221 43.11C152.223 43.11 153.692 44.553 153.692 46.581C153.692 48.609 152.223 50.065 150.221 50.065ZM150.221 49.246C151.677 49.246 152.756 48.18 152.756 46.581C152.756 44.982 151.677 43.916 150.221 43.916C148.765 43.916 147.673 44.982 147.673 46.581C147.673 48.18 148.765 49.246 150.221 49.246ZM156.46 44.501C156.889 43.591 157.76 43.11 159.021 43.11V44.007C158.943 44.007 158.865 43.994 158.8 43.994C157.37 43.994 156.499 44.904 156.499 46.516V50H155.576V43.162H156.46V44.501ZM162.625 47.27C162.625 45.125 165.004 44.93 165.004 43.227C165.004 42.291 164.237 41.641 162.911 41.641C161.806 41.641 161 42.005 160.428 42.694L159.739 42.174C160.441 41.316 161.52 40.822 162.976 40.822C164.796 40.822 165.966 41.693 165.966 43.084C165.966 45.307 163.587 45.411 163.587 47.27H162.625ZM163.106 50.065C162.729 50.065 162.43 49.753 162.43 49.389C162.43 49.012 162.729 48.726 163.106 48.726C163.496 48.726 163.795 49.012 163.795 49.389C163.795 49.753 163.496 50.065 163.106 50.065Z" fill="#C1C1C1"/>
</svg>
