<svg width="262" height="43" viewBox="0 0 262 43" fill="none" xmlns="http://www.w3.org/2000/svg">
<g clip-path="url(#clip0_186_4170)">
<mask id="mask0_186_4170" style="mask-type:alpha" maskUnits="userSpaceOnUse" x="-17" y="2" width="158" height="41">
<path d="M-16.8613 2.84277H140.028V42.73H-16.8613V2.84277Z" fill="#D9D9D9"/>
</mask>
<g mask="url(#mask0_186_4170)">
<path d="M73.8857 2.84277H83.5974V42.73H73.8857V2.84277Z" fill="black"/>
<path d="M0.334961 2.84326H10.0466V42.7305H0.334961V2.84326Z" fill="black"/>
<path d="M61.6377 2.84326H51.926V42.7305H61.6377V2.84326Z" fill="black"/>
<path d="M55.0605 -8.82983L45.6691 -11.303L24.2352 70.09L33.6267 72.5631L55.0605 -8.82983Z" fill="black"/>
<path d="M7.21387 -8.82983L16.6054 -11.303L38.0392 70.09L28.6477 72.5631L7.21387 -8.82983Z" fill="black"/>
<path d="M95.1699 2.84326H104.882V42.7305H95.1699V2.84326Z" fill="black"/>
<path d="M101.298 -3.55029L109.74 -8.35158L151.351 64.8108L142.909 69.6121L101.298 -3.55029Z" fill="black"/>
</g>
<path d="M234.657 41.0539C232.091 41.0539 230.199 39.0347 230.199 36.4822V36.4568C230.199 33.9423 232.079 31.8596 234.695 31.8596C236.308 31.8596 237.273 32.4311 238.162 33.2692L237.476 34.0058C236.727 33.2946 235.889 32.7867 234.682 32.7867C232.714 32.7867 231.241 34.3868 231.241 36.4314V36.4568C231.241 38.5141 232.726 40.1269 234.682 40.1269C235.901 40.1269 236.701 39.657 237.552 38.8443L238.212 39.4919C237.285 40.4317 236.269 41.0539 234.657 41.0539Z" fill="black"/>
<path d="M225.018 40.9015V32.012H226.021V40.9015H225.018Z" fill="black"/>
<path d="M217.075 40.9015V32.939H214.091V32.012H221.075V32.939H218.091V40.9015H217.075Z" fill="black"/>
<path d="M204.25 40.9015V32.012H210.676V32.9263H205.253V35.9615H210.104V36.8758H205.253V39.9871H210.739V40.9015H204.25Z" fill="black"/>
<path d="M192.633 40.9015V32.012H193.636V35.9615H198.767V32.012H199.77V40.9015H198.767V36.9012H193.636V40.9015H192.633Z" fill="black"/>
<path d="M184.779 40.9015V32.939H181.795V32.012H188.78V32.939H185.795V40.9015H184.779Z" fill="black"/>
<path d="M175.572 41.0285C174.163 41.0285 173.007 40.5587 171.94 39.6062L172.563 38.8696C173.49 39.7078 174.379 40.1269 175.611 40.1269C176.804 40.1269 177.592 39.4919 177.592 38.6157V38.5903C177.592 37.7648 177.147 37.2949 175.28 36.9012C173.236 36.4568 172.296 35.7964 172.296 34.336V34.3106C172.296 32.9137 173.528 31.885 175.217 31.885C176.512 31.885 177.439 32.2533 178.341 32.9772L177.757 33.7518C176.931 33.0787 176.106 32.7867 175.191 32.7867C174.036 32.7867 173.299 33.4216 173.299 34.2217V34.2471C173.299 35.0852 173.756 35.5551 175.712 35.9742C177.693 36.406 178.608 37.1298 178.608 38.4887V38.5141C178.608 40.038 177.338 41.0285 175.572 41.0285Z" fill="black"/>
<path d="M162.049 40.9015V32.012H168.475V32.9263H163.052V35.9615H167.903V36.8758H163.052V39.9871H168.538V40.9015H162.049Z" fill="black"/>
<path d="M149.285 40.9015L153.336 31.9485H154.276L158.327 40.9015H157.248L156.206 38.5521H151.368L150.314 40.9015H149.285ZM151.762 37.6505H155.813L153.793 33.1168L151.762 37.6505Z" fill="black"/>
<path d="M254.506 25.9015V17.012H260.894V17.939H255.509V21.1138H260.322V22.0282H255.509V25.9015H254.506Z" fill="black"/>
<path d="M245.875 26.0539C243.17 26.0539 241.354 23.9331 241.354 21.4822V21.4568C241.354 19.0058 243.196 16.8596 245.901 16.8596C248.606 16.8596 250.422 18.9804 250.422 21.4314V21.4568C250.422 23.9077 248.58 26.0539 245.875 26.0539ZM245.901 25.1269C247.933 25.1269 249.38 23.5014 249.38 21.4822V21.4568C249.38 19.4376 247.907 17.7867 245.875 17.7867C243.844 17.7867 242.396 19.4122 242.396 21.4314V21.4568C242.396 23.476 243.869 25.1269 245.901 25.1269Z" fill="black"/>
<path d="M225.496 25.9015V17.012H231.922V17.9263H226.499V20.9615H231.35V21.8758H226.499V24.9871H231.985V25.9015H225.496Z" fill="black"/>
<path d="M217.643 25.9015V17.939H214.658V17.012H221.643V17.939H218.658V25.9015H217.643Z" fill="black"/>
<path d="M207.244 26.0412C205.047 26.0412 203.549 24.6951 203.549 22.1806V17.012H204.552V22.1171C204.552 24.0347 205.568 25.1141 207.27 25.1141C208.908 25.1141 209.949 24.1236 209.949 22.1806V17.012H210.953V22.1044C210.953 24.6951 209.467 26.0412 207.244 26.0412Z" fill="black"/>
<path d="M195.835 25.9015V17.939H192.851V17.012H199.835V17.939H196.851V25.9015H195.835Z" fill="black"/>
<path d="M187.91 25.9015V17.012H188.913V25.9015H187.91Z" fill="black"/>
<path d="M179.968 25.9015V17.939H176.983V17.012H183.968V17.939H180.984V25.9015H179.968Z" fill="black"/>
<path d="M170.761 26.0285C169.351 26.0285 168.196 25.5587 167.129 24.6062L167.751 23.8696C168.678 24.7078 169.567 25.1269 170.799 25.1269C171.993 25.1269 172.78 24.4919 172.78 23.6157V23.5903C172.78 22.7648 172.336 22.2949 170.469 21.9012C168.424 21.4568 167.484 20.7964 167.484 19.336V19.3106C167.484 17.9137 168.716 16.885 170.405 16.885C171.701 16.885 172.628 17.2533 173.529 17.9772L172.945 18.7518C172.12 18.0787 171.294 17.7867 170.38 17.7867C169.224 17.7867 168.488 18.4216 168.488 19.2217V19.2471C168.488 20.0852 168.945 20.5551 170.901 20.9742C172.882 21.406 173.796 22.1298 173.796 23.4887V23.5141C173.796 25.038 172.526 26.0285 170.761 26.0285Z" fill="black"/>
<path d="M155.711 25.9015V17.012H156.651L162.251 24.1363V17.012H163.229V25.9015H162.429L156.689 18.6121V25.9015H155.711Z" fill="black"/>
<path d="M150.136 25.9015V17.012H151.139V25.9015H150.136Z" fill="black"/>
<path d="M217.947 11.0285C216.538 11.0285 215.382 10.5587 214.315 9.6062L214.938 8.86964C215.865 9.7078 216.754 10.1269 217.986 10.1269C219.179 10.1269 219.967 9.49191 219.967 8.61566V8.59026C219.967 7.7648 219.522 7.29493 217.655 6.90125C215.611 6.45677 214.671 5.7964 214.671 4.33598V4.31058C214.671 2.91366 215.903 1.88501 217.592 1.88501C218.887 1.88501 219.814 2.25329 220.716 2.97715L220.132 3.75181C219.306 3.07875 218.481 2.78666 217.566 2.78666C216.411 2.78666 215.674 3.42163 215.674 4.22169V4.24709C215.674 5.08524 216.131 5.55512 218.087 5.9742C220.068 6.40597 220.983 7.12983 220.983 8.48866V8.51406C220.983 10.038 219.713 11.0285 217.947 11.0285Z" fill="black"/>
<path d="M203.754 10.9015V2.01196H207.576C208.669 2.01196 209.545 2.34215 210.104 2.90092C210.535 3.33269 210.789 3.95496 210.789 4.65342V4.67882C210.789 6.15195 209.773 7.0155 208.376 7.26949L211.107 10.9015H209.875L207.297 7.44728H204.757V10.9015H203.754ZM204.757 6.54562H207.488C208.821 6.54562 209.773 5.85986 209.773 4.71692V4.69152C209.773 3.59938 208.935 2.93901 207.5 2.93901H204.757V6.54562Z" fill="black"/>
<path d="M195.124 11.0539C192.419 11.0539 190.603 8.93315 190.603 6.48218V6.45678C190.603 4.00581 192.444 1.85962 195.149 1.85962C197.854 1.85962 199.67 3.98041 199.67 6.43138V6.45678C199.67 8.90775 197.828 11.0539 195.124 11.0539ZM195.149 10.1269C197.181 10.1269 198.629 8.50137 198.629 6.48218V6.45678C198.629 4.43758 197.155 2.78667 195.124 2.78667C193.092 2.78667 191.644 4.41218 191.644 6.43138V6.45678C191.644 8.47597 193.117 10.1269 195.149 10.1269Z" fill="black"/>
<path d="M179.851 10.9015V2.01196H183.673C184.765 2.01196 185.641 2.34215 186.2 2.90092C186.632 3.33269 186.886 3.95496 186.886 4.65342V4.67882C186.886 6.15195 185.87 7.0155 184.473 7.26949L187.204 10.9015H185.972L183.394 7.44728H180.854V10.9015H179.851ZM180.854 6.54562H183.584C184.918 6.54562 185.87 5.85986 185.87 4.71692V4.69152C185.87 3.59938 185.032 2.93901 183.597 2.93901H180.854V6.54562Z" fill="black"/>
<path d="M168.705 10.9015V2.01196H172.528C173.62 2.01196 174.496 2.34215 175.055 2.90092C175.487 3.33269 175.741 3.95496 175.741 4.65342V4.67882C175.741 6.15195 174.725 7.0155 173.328 7.26949L176.058 10.9015H174.826L172.248 7.44728H169.708V10.9015H168.705ZM169.708 6.54562H172.439C173.772 6.54562 174.725 5.85986 174.725 4.71692V4.69152C174.725 3.59938 173.886 2.93901 172.451 2.93901H169.708V6.54562Z" fill="black"/>
<path d="M163.13 10.9015V2.01196H164.133V10.9015H163.13Z" fill="black"/>
<path d="M150.047 10.9015V2.01196H151.063L154.301 6.86311L157.539 2.01196H158.555V10.9015H157.552V3.70097L154.314 8.46322H154.263L151.025 3.71367V10.9015H150.047Z" fill="black"/>
</g>
<defs>
<clipPath id="clip0_186_4170">
<rect width="261.4" height="41.9825" fill="white" transform="translate(0.599609 0.792236)"/>
</clipPath>
</defs>
</svg>
