<svg width="307" height="83" viewBox="0 0 307 83" fill="none" xmlns="http://www.w3.org/2000/svg">
<path d="M5.30055 57.6417V13.4704H15.7754L27.3862 32.1486L38.9969 13.4704H49.4718V57.6417H39.8172V28.8042L27.3862 47.6716H27.1338L14.8289 28.9935V57.6417H5.30055ZM60.525 57.6417V13.4704H70.2426V57.6417H60.525ZM81.2815 57.6417V13.4704H101.474C107.09 13.4704 111.444 15.048 114.347 17.9507C116.808 20.4116 118.133 23.8822 118.133 28.0469V28.1731C118.133 35.3036 114.284 39.7839 108.668 41.8662L119.458 57.6417H108.1L98.6345 43.5069H90.9992V57.6417H81.2815ZM90.9992 34.925H100.843C105.576 34.925 108.289 32.401 108.289 28.678V28.5518C108.289 24.387 105.386 22.2416 100.654 22.2416H90.9992V34.925ZM126.882 57.6417V13.4704H147.075C152.691 13.4704 157.045 15.048 159.948 17.9507C162.409 20.4116 163.734 23.8822 163.734 28.0469V28.1731C163.734 35.3036 159.885 39.7839 154.269 41.8662L165.059 57.6417H153.701L144.235 43.5069H136.6V57.6417H126.882ZM136.6 34.925H146.444C151.177 34.925 153.89 32.401 153.89 28.678V28.5518C153.89 24.387 150.987 22.2416 146.255 22.2416H136.6V34.925ZM193.938 58.3989C180.308 58.3989 170.527 48.2395 170.527 35.6823V35.5561C170.527 22.9988 180.434 12.7132 194.064 12.7132C207.694 12.7132 217.475 22.8726 217.475 35.4299V35.5561C217.475 48.1133 207.568 58.3989 193.938 58.3989ZM194.064 49.4384C201.889 49.4384 207.315 43.2545 207.315 35.6823V35.5561C207.315 27.9838 201.763 21.6737 193.938 21.6737C186.113 21.6737 180.687 27.8576 180.687 35.4299V35.5561C180.687 43.1283 186.239 49.4384 194.064 49.4384ZM226.095 57.6417V13.4704H246.288C251.904 13.4704 256.258 15.048 259.16 17.9507C261.621 20.4116 262.947 23.8822 262.947 28.0469V28.1731C262.947 35.3036 259.097 39.7839 253.481 41.8662L264.272 57.6417H252.913L243.448 43.5069H235.813V57.6417H226.095ZM235.813 34.925H245.657C250.389 34.925 253.103 32.401 253.103 28.678V28.5518C253.103 24.387 250.2 22.2416 245.467 22.2416H235.813V34.925ZM287.408 58.2727C280.72 58.2727 273.968 55.9379 268.667 51.2053L274.409 44.3272C278.385 47.6085 282.55 49.6909 287.598 49.6909C291.573 49.6909 293.971 48.1133 293.971 45.5261V45.3999C293.971 42.939 292.457 41.6769 285.074 39.7839C276.176 37.5122 270.434 35.0512 270.434 26.2801V26.1539C270.434 18.14 276.87 12.8394 285.894 12.8394C292.33 12.8394 297.82 14.8587 302.3 18.4555L297.252 25.7753C293.34 23.0619 289.491 21.4213 285.768 21.4213C282.045 21.4213 280.089 23.125 280.089 25.2705V25.3967C280.089 28.2993 281.982 29.2459 289.617 31.202C298.577 33.5368 303.626 36.755 303.626 44.4534V44.5796C303.626 53.3508 296.937 58.2727 287.408 58.2727Z" fill="white"/>
<path d="M4.57945 78.6284V67.9072H9.14361C10.3689 67.9072 11.3338 68.2595 11.9464 68.8568C12.3906 69.3163 12.6356 69.8829 12.6356 70.5722V70.6028C12.6356 71.9965 11.778 72.7164 10.9356 73.084C12.2068 73.4669 13.233 74.202 13.233 75.6724V75.703C13.233 77.5409 11.6861 78.6284 9.34272 78.6284H4.57945ZM5.7741 72.6858H8.9445C10.3995 72.6858 11.4104 72.0272 11.4104 70.7713V70.7406C11.4104 69.6838 10.568 68.9946 9.0364 68.9946H5.7741V72.6858ZM5.7741 77.5409H9.37335C10.9968 77.5409 12.0077 76.8211 12.0077 75.6264V75.5958C12.0077 74.4318 11.0275 73.7579 9.15893 73.7579H5.7741V77.5409ZM27.1196 78.6284V67.9072H34.8695V69.0099H28.3296V72.6704H34.1803V73.7732H28.3296V77.5256H34.9461V78.6284H27.1196ZM47.9482 78.6284L52.834 67.8306H53.9673L58.8531 78.6284H57.5513L56.2954 75.7949H50.46L49.1888 78.6284H47.9482ZM50.9348 74.7075H55.8206L53.3853 69.2397L50.9348 74.7075ZM76.3539 78.7968C73.7042 78.7968 71.897 77.1733 71.897 74.1408V67.9072H73.1069V74.0642C73.1069 76.3769 74.3322 77.6788 76.3845 77.6788C78.3603 77.6788 79.6162 76.4841 79.6162 74.1408V67.9072H80.8262V74.0489C80.8262 77.1733 79.0342 78.7968 76.3539 78.7968ZM98.0074 78.6284V69.0252H94.4082V67.9072H102.832V69.0252H99.2327V78.6284H98.0074ZM119.947 78.6284V74.3858L115.49 67.9072H116.96L120.575 73.2678L124.22 67.9072H125.629L121.172 74.3705V78.6284H119.947ZM154.203 78.6284L159.088 67.8306H160.222L165.108 78.6284H163.806L162.55 75.7949H156.715L155.443 78.6284H154.203ZM157.189 74.7075H162.075L159.64 69.2397L157.189 74.7075ZM182.982 78.8122C179.888 78.8122 177.606 76.3769 177.606 73.2984V73.2678C177.606 70.2352 179.873 67.7234 183.028 67.7234C184.973 67.7234 186.137 68.4126 187.209 69.4235L186.382 70.3118C185.478 69.4541 184.467 68.8415 183.012 68.8415C180.638 68.8415 178.862 70.7713 178.862 73.2371V73.2678C178.862 75.749 180.654 77.6941 183.012 77.6941C184.483 77.6941 185.448 77.1274 186.474 76.1472L187.27 76.9283C186.152 78.0617 184.927 78.8122 182.982 78.8122ZM199.956 78.6284L204.842 67.8306H205.975L210.861 78.6284H209.559L208.303 75.7949H202.468L201.197 78.6284H199.956ZM202.943 74.7075H207.829L205.393 69.2397L202.943 74.7075ZM224.462 78.6284V67.9072H228.184C231.554 67.9072 233.882 70.2199 233.882 73.2371V73.2678C233.882 76.285 231.554 78.6284 228.184 78.6284H224.462ZM225.672 77.5103H228.184C230.895 77.5103 232.626 75.6724 232.626 73.2984V73.2678C232.626 70.8938 230.895 69.0252 228.184 69.0252H225.672V77.5103ZM247.93 78.6284V67.9072H255.68V69.0099H249.14V72.6704H254.99V73.7732H249.14V77.5256H255.756V78.6284H247.93ZM269.677 78.6284V67.9072H270.903L274.808 73.7579L278.714 67.9072H279.939V78.6284H278.729V69.9442L274.823 75.6877H274.762L270.857 69.9595V78.6284H269.677ZM297.815 78.6284V74.3858L293.358 67.9072H294.829L298.443 73.2678L302.088 67.9072H303.497L299.041 74.3705V78.6284H297.815Z" fill="white"/>
</svg>
