<?xml version="1.0" encoding="UTF-8"?><svg id="Layer_1" xmlns="http://www.w3.org/2000/svg" viewBox="0 0 383.26 383.35"><defs><style>.cls-1{fill:#4500ff;}</style></defs><path class="cls-1" d="M0,30.04c1.03-3.18,1.73-6.52,3.16-9.5C9.26,7.87,19.47,.83,33.5,.26c11.46-.47,22.95-.15,34.42-.11,4.15,.01,6.32,2.11,6.25,5.75-.07,3.51-2.12,5.42-6.15,5.44-10.73,.05-21.46-.01-32.18,.03-14.68,.06-24.59,10.01-24.61,24.74-.03,28.94-.03,57.88,0,86.82,.01,14.77,9.85,24.62,24.61,24.69,6.36,.03,12.73,.12,19.08-.04,3.33-.09,5.64,1.15,7.59,3.8,7.12,9.62,14.36,19.15,21.56,28.71,.07,.09,.2,.12,.61,.37,.79-.98,1.66-1.97,2.45-3.03,6.36-8.48,12.81-16.89,19.02-25.48,2.28-3.15,4.92-4.39,8.82-4.38,77.09,.09,154.18,.05,231.27,.1,5.1,0,9.97-.64,14.33-3.39,7.84-4.95,11.39-12.23,11.39-21.41-.02-28.82,.02-57.63-.02-86.45-.02-15.19-9.89-25.04-25.09-25.04-81.83-.01-163.66,0-245.49,0-1.25,0-2.5,.04-3.74-.02-3.69-.17-5.65-2.11-5.67-5.54-.02-3.42,1.95-5.42,5.59-5.66,.75-.05,1.5-.02,2.24-.02,82.33,0,164.66,0,246.99,0,17.65,0,31.36,10.25,35.28,26.52,.81,3.35,1.07,6.91,1.08,10.37,.08,28.32,.06,56.63,.04,84.95-.01,22.2-14.61,36.87-36.75,36.87-75.72,.02-151.44,.03-227.16-.07-3.09,0-4.97,.91-6.77,3.39-7.34,10.08-14.88,20.01-22.38,29.98-3.67,4.88-7.47,4.88-11.13,.02-7.71-10.27-15.33-20.61-23.18-30.77-1.01-1.31-3.16-2.35-4.84-2.43-6.72-.32-13.51,.26-20.19-.37-14.67-1.38-26.69-12.44-29.99-26.89C.58,130.73,.27,129.79,0,128.85,0,95.91,0,62.97,0,30.04Z"/><path d="M0,291.28c1.46-6.28,2.44-12.73,4.45-18.83,12.01-36.42,47.97-60.38,85.66-57.36,38.92,3.12,70.31,31.48,76.94,69.53,8.32,47.73-25.13,92.5-73.24,98.08-.84,.1-1.66,.43-2.49,.65h-14.22c-.83-.22-1.64-.53-2.48-.65-34.64-5.11-58.08-24.13-70.13-56.93C2.28,319.77,1.46,313.27,0,307v-15.72Zm28.93,55.11c5.59-17.81,16.82-30.23,33.67-37.58-15.52-18.92-16.5-36.58-2.97-50.53,12.25-12.63,31.78-13.95,45.55-3.05,6.61,5.24,10.78,12.04,12.32,20.33,2.46,13.28-2.33,24.1-12.13,33.16,17.27,7.54,28.37,20.1,33.95,37.71,23.18-25.7,25.35-69.65-3.43-98.7-28.03-28.29-73.4-28.86-102.15-1.27-29.46,28.26-28.78,72.77-4.82,99.92Zm55.52,25.74c15.36-.21,29.71-4.77,42.61-13.97,2.18-1.56,2.68-3.09,2.12-5.63-4.69-21.29-23.17-36.44-44.75-36.55-21.68-.12-40.41,14.78-45.28,35.9-.67,2.91-.09,4.76,2.49,6.55,12.77,8.88,26.85,13.46,42.81,13.7Zm-23.11-90.19c.01,12.58,10.25,22.82,22.8,22.79,12.5-.02,22.84-10.38,22.82-22.86-.02-12.5-10.34-22.77-22.89-22.77-12.58,0-22.75,10.21-22.74,22.83Z"/><path d="M286.55,261.66c-25.32,0-50.65-.18-75.97,.06-17.69,.17-22.83-16.57-18.28-27.57,2.71-6.56,7.57-10.37,14.67-11.13,2.1-.23,4.23-.27,6.35-.27,48.9-.01,97.81-.03,146.71,.02,3.1,0,6.3,.08,9.27,.84,8.66,2.21,13.98,10.76,13.14,20.54-.83,9.65-7.35,16.78-16.55,17.26-8.46,.44-16.96,.23-25.44,.24-17.96,.02-35.93,0-53.89,0Zm-.27-11.23c24.68,0,49.36,0,74.03,0,1.49,0,3,0,4.48-.17,3.69-.44,6.07-2.83,6.62-6.5,.91-6.07-2.59-9.77-9.52-9.77-50.23-.03-100.45-.02-150.68,0-.99,0-1.99,.1-2.98,.23-3.35,.43-5.35,2.4-6.25,5.59-1.73,6.17,2.01,10.61,9.14,10.62,25.05,.04,50.1,.02,75.15,.02Z"/><path d="M287.58,336.52c25.32,0,50.64,.15,75.96-.05,18.04-.14,23.25,17.85,17.47,29.07-2.96,5.76-7.66,9.04-14.14,9.67-1.36,.13-2.74,.21-4.11,.21-34.68,.01-69.35,.02-104.03,0-5.23,0-7.47-1.79-7.36-5.74,.08-3.04,1.59-4.94,4.66-5.34,1.35-.18,2.74-.12,4.11-.12,34.05,0,68.11,0,102.16-.02,7.14,0,10.62-3.37,9.92-9.42-.45-3.85-2.85-6.34-6.72-6.87-1.11-.15-2.24-.16-3.36-.16-49.9,0-99.79-.01-149.69,0-6.06,0-8.67,1.65-9.78,6.05-1.35,5.36,1.75,10,7.25,10.25,6.1,.28,12.22,.06,18.33,.19,4.27,.09,6.49,2.47,6.06,6.27-.37,3.28-2.4,4.86-5.57,4.86-7.11,0-14.24,.22-21.31-.27-9.23-.64-15.73-8.58-15.88-18.6-.15-10.39,5.99-18.35,15.22-19.61,2.09-.29,4.23-.36,6.34-.36,24.82-.02,49.65-.02,74.47-.01Z"/><path d="M286.88,318.55c-25.32,0-50.65-.19-75.97,.06-17.64,.18-23.34-17.09-17.8-28.64,2.8-5.82,7.39-9.3,13.87-10.04,1.98-.23,3.98-.3,5.97-.3,36.67-.02,73.35-.01,110.02,0,1.37,0,2.76-.02,4.1,.18,3.09,.45,4.53,2.46,4.52,5.46-.01,2.99-1.42,5.02-4.54,5.42-1.48,.19-2.99,.16-4.48,.16-36.3,0-72.6,0-108.9,.02-1.74,0-3.51,0-5.22,.25-4.13,.64-6.53,3.83-6.42,8.29,.11,4.23,2.61,7.15,6.64,7.73,.74,.11,1.49,.17,2.24,.17,50.64,0,101.29,.02,151.93,0,5.05,0,7.46-1.65,8.7-5.5,1.71-5.31-1.42-10.32-6.96-10.79-3.22-.28-6.48-.04-9.72-.21-3.59-.19-5.39-2.03-5.48-5.32-.1-3.45,1.76-5.63,5.42-5.76,3.98-.14,8-.17,11.96,.22,9.62,.94,16.12,8.88,16.06,19.25-.06,10.55-6.76,18.61-16.62,19.09-9.33,.46-18.7,.24-28.06,.25-17.09,.03-34.18,0-51.27,0Z"/><path class="cls-1" d="M268.62,113.41c.97-5.79,2.21-12.28,3.05-18.82,.19-1.52-.54-3.62-1.59-4.75-4.01-4.27-8.3-8.27-12.53-12.31-2.55-2.44-3.85-5.23-2.66-8.72,1.12-3.3,3.63-4.81,7.03-5.26,6.05-.8,12.09-1.66,18.09-2.77,1.31-.24,2.89-1.39,3.52-2.56,2.89-5.37,5.52-10.87,8.18-16.36,1.48-3.07,3.74-5,7.23-5.01,3.49,0,5.76,1.92,7.25,4.98,2.67,5.48,5.3,10.99,8.19,16.36,.63,1.16,2.18,2.31,3.48,2.55,5.99,1.12,12.04,2,18.09,2.82,3.56,.48,6.06,2.1,7.16,5.6,1.08,3.44-.38,6.05-2.75,8.36-4.29,4.17-8.69,8.24-12.8,12.58-.97,1.03-1.56,3.03-1.37,4.45,.78,5.92,1.9,11.8,2.95,17.68,.59,3.32,.01,6.25-2.79,8.36-2.92,2.21-5.98,1.98-9.11,.29-5.26-2.84-10.5-5.71-15.89-8.28-1.31-.62-3.42-.63-4.72,0-5.72,2.73-11.22,5.95-16.93,8.71-5.62,2.71-11.19-1-11.06-7.87Zm12.33-5.42c4.69-2.46,8.81-4.43,12.75-6.72,3.62-2.11,6.97-2.02,10.57,.03,3.92,2.23,7.99,4.19,12.63,6.61-.79-4.76-1.19-8.74-2.15-12.57-1.3-5.18-.11-9.19,4.08-12.6,3.14-2.56,5.92-5.55,9.48-8.94-5.67-.84-10.29-1.62-14.93-2.18-3.84-.46-6.36-2.38-7.96-5.89-1.93-4.24-4.11-8.37-6.46-13.12-2.2,4.41-4.33,8.08-5.89,11.98-1.91,4.77-5.28,6.9-10.24,7.33-4.12,.36-8.19,1.15-12.43,1.77,3.53,3.66,6.6,7.08,9.93,10.24,2.91,2.76,3.91,5.85,3.1,9.78-.92,4.48-1.57,9.02-2.46,14.29Z"/><path class="cls-1" d="M53.86,113.56c.99-5.94,2.23-12.43,3.06-18.97,.19-1.51-.51-3.62-1.56-4.73-4.01-4.27-8.3-8.26-12.54-12.31-2.41-2.31-3.85-4.96-2.82-8.35,1.05-3.47,3.54-5.18,7.13-5.65,5.8-.76,11.56-1.89,17.38-2.48,2.68-.27,3.84-1.58,4.87-3.77,2.42-5.19,5.07-10.27,7.56-15.43,1.48-3.07,3.73-5.02,7.22-5.04,3.49-.02,5.78,1.89,7.27,4.95,2.67,5.48,5.3,10.99,8.18,16.36,.63,1.17,2.18,2.32,3.48,2.56,6.12,1.14,12.29,2.02,18.46,2.88,3.44,.48,5.77,2.22,6.82,5.52,1.02,3.23-.18,5.87-2.47,8.11-4.18,4.1-8.34,8.23-12.63,12.22-1.68,1.56-2.48,2.98-1.93,5.46,1.2,5.47,1.92,11.04,2.92,16.55,.64,3.52,.47,6.77-2.65,9.12-3.24,2.44-6.48,1.77-9.79-.04-5.02-2.75-10.05-5.51-15.22-7.96-1.31-.62-3.41-.63-4.72,0-5.73,2.73-11.22,5.95-16.93,8.71-5.58,2.69-11.22-1.05-11.09-7.72Zm12.37-5.56c4.8-2.52,8.92-4.54,12.89-6.82,3.49-2,6.75-1.95,10.22,.01,3.97,2.24,8.06,4.25,12.82,6.74-.85-5.07-1.44-9.36-2.33-13.58-.9-4.27-.08-7.73,3.32-10.74,3.38-2.99,6.4-6.39,9.87-9.92-5.12-.74-9.65-1.5-14.21-2.03-3.97-.47-6.59-2.43-8.23-6.08-1.89-4.2-4.06-8.28-6.4-12.99-2.18,4.41-4.24,7.98-5.75,11.77-2,5.05-5.58,7.24-10.84,7.62-3.97,.29-7.9,1.12-12.01,1.73,3.49,3.61,6.46,6.98,9.76,10,3.21,2.94,4.11,6.27,3.25,10.42-.9,4.34-1.51,8.74-2.38,13.88Z"/><path class="cls-1" d="M236.62,71.5c-1.17,1.95-2.04,4.18-3.56,5.79-4.02,4.26-8.22,8.37-12.56,12.31-1.84,1.67-2.2,3.33-1.78,5.6,1.07,5.76,1.96,11.55,3.01,17.31,.61,3.38-.14,6.23-3.01,8.25-2.86,2.01-5.8,1.75-8.8,.13-5.26-2.84-10.52-5.71-15.91-8.28-1.31-.62-3.42-.65-4.72-.03-5.29,2.49-10.44,5.3-15.59,8.09-3.2,1.73-6.36,2.33-9.45-.03-2.9-2.21-3.48-5.16-2.77-8.68,1.13-5.62,1.88-11.31,2.98-16.93,.43-2.2,0-3.73-1.67-5.28-4.29-3.99-8.36-8.22-12.63-12.24-2.61-2.46-3.79-5.3-2.63-8.74,1.11-3.29,3.66-4.78,7.07-5.22,5.93-.77,11.82-1.89,17.75-2.56,2.23-.25,3.24-1.28,4.1-3.1,2.51-5.29,5.18-10.5,7.71-15.78,1.53-3.19,3.79-5.29,7.46-5.26,3.68,.03,5.88,2.23,7.39,5.39,2.48,5.16,5.12,10.25,7.55,15.44,.92,1.96,1.99,3.04,4.35,3.3,6.19,.7,12.34,1.72,18.49,2.74,4.09,.68,6.5,3.53,7.19,7.79Zm-27.03,36.48c-.84-4.92-1.27-9.15-2.32-13.23-1.29-5.01,.26-8.63,4.05-11.89,3.13-2.7,5.89-5.83,9.17-9.13-5.38-.8-10.04-1.58-14.72-2.16-3.71-.46-6.09-2.36-7.64-5.73-1.96-4.24-4.16-8.37-6.57-13.18-2.2,4.43-4.31,8.08-5.86,11.95-1.91,4.76-5.3,6.88-10.25,7.32-4.12,.36-8.2,1.14-12.29,1.74,3.59,3.78,6.87,7.34,10.26,10.79,2.36,2.4,3.4,5.02,2.71,8.45-.96,4.82-1.63,9.71-2.5,15.09,4.48-2.35,8.54-4.25,12.37-6.54,3.86-2.31,7.41-2.23,11.24,0,3.86,2.25,7.9,4.19,12.36,6.53Z"/></svg>