<svg width="297" height="168" viewBox="0 0 297 168" fill="none" xmlns="http://www.w3.org/2000/svg">
<rect x="0.5" y="0.5" width="296" height="167" rx="4.5" stroke="#DEE2E6"/>
<path d="M225.202 53.8111L223 55.3896V54.2694L225.279 52.6145H226.399V62.4419H225.202V53.7984V53.8111Z" fill="#333333"/>
<path d="M228.296 62.1873L232.204 58.0756C233.095 57.1209 233.617 56.2298 233.617 55.2241C233.617 54.1294 232.967 53.4674 231.86 53.4674C230.752 53.4674 229.976 54.1166 229.785 55.6569H228.665C228.818 53.7347 229.989 52.5127 231.86 52.5127C233.731 52.5127 234.826 53.582 234.826 55.275C234.826 56.4844 234.049 57.6682 232.84 58.8521L230.129 61.4872H234.877V62.4673H228.296V62.1873Z" fill="#333333"/>
<path d="M236.239 59.8067H237.385C237.576 60.876 238.008 61.6271 239.498 61.6271C240.834 61.6271 241.662 60.736 241.662 59.2466C241.662 57.8591 240.847 56.9553 239.6 56.9553C238.454 56.9553 237.792 57.3117 237.27 57.91H236.825V52.6399H242.349V53.671H237.805V56.6752C238.199 56.3061 238.874 56.0005 239.816 56.0005C241.573 56.0005 242.871 57.2481 242.871 59.2594C242.871 61.2706 241.369 62.6073 239.498 62.6073C237.385 62.6073 236.366 61.4361 236.226 59.8322L236.239 59.8067Z" fill="#333333"/>
<path d="M243.673 63.7657L244.997 60.7488L246.117 61.2707L244.424 64.1476L243.686 63.7657H243.673Z" fill="#333333"/>
<path d="M247.186 57.8337V57.2863C247.186 54.384 248.663 52.5127 251.069 52.5127C253.475 52.5127 254.901 54.4476 254.901 57.2609V57.8083C254.901 60.6724 253.513 62.5946 251.094 62.5946C248.676 62.5946 247.186 60.6979 247.186 57.8337ZM253.691 57.7955V57.2481C253.691 54.9695 252.724 53.4802 251.069 53.4802C249.414 53.4802 248.421 54.855 248.421 57.2736V57.821C248.421 60.316 249.465 61.6017 251.107 61.6017C252.826 61.6017 253.704 60.2778 253.704 57.7955H253.691Z" fill="#333333"/>
<path d="M256.556 57.8337V57.2863C256.556 54.384 258.032 52.5127 260.438 52.5127C262.844 52.5127 264.27 54.4476 264.27 57.2609V57.8083C264.27 60.6724 262.882 62.5946 260.464 62.5946C258.045 62.5946 256.556 60.6979 256.556 57.8337ZM263.061 57.7955V57.2481C263.061 54.9695 262.093 53.4802 260.438 53.4802C258.783 53.4802 257.79 54.855 257.79 57.2736V57.821C257.79 60.316 258.834 61.6017 260.476 61.6017C262.195 61.6017 263.073 60.2778 263.073 57.7955H263.061Z" fill="#333333"/>
<path d="M265.912 57.8337V57.2863C265.912 54.384 267.388 52.5127 269.794 52.5127C272.2 52.5127 273.626 54.4476 273.626 57.2609V57.8083C273.626 60.6724 272.238 62.5946 269.82 62.5946C267.401 62.5946 265.912 60.6979 265.912 57.8337ZM272.417 57.7955V57.2481C272.417 54.9695 271.449 53.4802 269.794 53.4802C268.139 53.4802 267.146 54.855 267.146 57.2736V57.821C267.146 60.316 268.19 61.6017 269.832 61.6017C271.551 61.6017 272.429 60.2778 272.429 57.7955H272.417Z" fill="#333333"/>
<path d="M281.162 58.2411H278.591V57.2736H281.162V54.4985H282.168V57.2736H284.739V58.2411H282.168V61.0162H281.162V58.2411Z" fill="#333333"/>
<path d="M264.015 32.7815C264.626 32.0814 264.983 31.1012 264.983 30.1847C264.983 28.4152 263.557 27.486 262.144 27.486C260.731 27.486 259.305 28.4152 259.305 30.1847C259.305 31.1012 259.662 32.0814 260.273 32.7815C258.3 33.2398 257.039 34.3727 256.861 35.8749C256.53 35.7348 256.161 35.6075 255.766 35.5184C256.377 34.8183 256.734 33.8381 256.734 32.9216C256.734 31.1521 255.308 30.2229 253.895 30.2229C252.482 30.2229 251.056 31.1521 251.056 32.9216C251.056 33.8381 251.413 34.8183 252.024 35.5184C251.629 35.6075 251.26 35.7221 250.929 35.8749C250.751 34.3727 249.491 33.2398 247.517 32.7815C248.128 32.0814 248.485 31.1012 248.485 30.1847C248.485 28.4152 247.059 27.486 245.646 27.486C244.233 27.486 242.807 28.4152 242.807 30.1847C242.807 31.1012 243.164 32.0814 243.775 32.7815C241.636 33.278 240.338 34.5637 240.338 36.244V38.7518C240.338 38.93 240.478 39.07 240.656 39.07H248.587V41.4887C248.587 41.6669 248.727 41.8069 248.905 41.8069H258.872C259.051 41.8069 259.191 41.6669 259.191 41.4887V39.07H267.121C267.299 39.07 267.439 38.93 267.439 38.7518V36.244C267.439 34.5637 266.141 33.278 264.002 32.7815H264.015ZM262.144 28.1352C263.2 28.1352 264.346 28.7717 264.346 30.1847C264.346 31.5977 263.404 33.0361 262.144 33.0743C260.884 33.0489 259.942 31.534 259.942 30.1847C259.942 28.7717 261.075 28.1352 262.144 28.1352ZM253.895 30.8721C254.952 30.8721 256.097 31.5086 256.097 32.9216C256.097 34.3346 255.155 35.773 253.895 35.8112C252.635 35.7857 251.693 34.2709 251.693 32.9216C251.693 31.5086 252.826 30.8721 253.895 30.8721ZM245.646 28.1352C246.703 28.1352 247.848 28.7717 247.848 30.1847C247.848 31.5977 246.906 33.0361 245.646 33.0743C244.386 33.0489 243.444 31.534 243.444 30.1847C243.444 28.7717 244.577 28.1352 245.646 28.1352ZM240.987 36.2313C240.987 34.4873 242.718 33.5835 244.386 33.3162C244.755 33.558 245.175 33.7108 245.646 33.7235C246.104 33.7235 246.537 33.5708 246.906 33.3162C248.561 33.5835 250.267 34.4746 250.305 36.1931C249.401 36.7405 248.816 37.5043 248.65 38.4208H241V36.2313H240.987ZM258.554 41.1577H249.236V38.9682C249.236 37.2242 250.967 36.3204 252.635 36.0403C253.004 36.2822 253.424 36.435 253.895 36.4477C254.353 36.4477 254.786 36.2949 255.155 36.0403C256.823 36.3204 258.554 37.2115 258.554 38.9682V41.1577ZM266.803 38.4208H259.152C258.987 37.5043 258.401 36.7405 257.498 36.1931C257.523 34.4746 259.242 33.5835 260.896 33.3162C261.266 33.558 261.686 33.7108 262.157 33.7235C262.615 33.7235 263.048 33.5708 263.417 33.3162C265.084 33.5962 266.816 34.4873 266.816 36.2313V38.4208H266.803ZM243.979 24.4817L245.048 26.3276C245.112 26.4294 245.213 26.493 245.328 26.493C245.443 26.493 245.544 26.4294 245.608 26.3276L246.665 24.4817C247.543 24.2399 248.319 23.7689 248.943 23.1069C249.147 25.1437 250.573 26.8495 252.558 27.4096L253.628 29.2554C253.691 29.3572 253.793 29.4209 253.908 29.4209C254.022 29.4209 254.124 29.3572 254.188 29.2554L255.257 27.4096C257.243 26.8495 258.669 25.1437 258.872 23.1069C259.483 23.7562 260.273 24.2399 261.151 24.4817L262.208 26.3276C262.271 26.4294 262.373 26.493 262.488 26.493C262.602 26.493 262.704 26.4294 262.768 26.3276L263.837 24.4817C265.988 23.8835 267.478 21.9231 267.478 19.6826C267.478 16.933 265.237 14.7053 262.5 14.7053C259.916 14.7053 257.79 16.6784 257.548 19.1989C256.645 18.2442 255.359 17.6459 253.933 17.6459C252.507 17.6459 251.222 18.2442 250.318 19.1989C250.063 16.6784 247.938 14.7053 245.366 14.7053C242.617 14.7053 240.389 16.9458 240.389 19.6826C240.389 21.9231 241.878 23.8835 244.03 24.4817H243.979ZM258.134 19.6826C258.134 17.2895 260.082 15.3418 262.475 15.3418C264.868 15.3418 266.816 17.2895 266.816 19.6826C266.816 21.6812 265.466 23.4125 263.531 23.8962C263.442 23.9216 263.379 23.9726 263.328 24.0489L262.475 25.5256L261.622 24.0489C261.584 23.9726 261.507 23.9216 261.418 23.8962C260.362 23.6289 259.458 22.9924 258.847 22.0758C258.771 21.3248 258.516 20.6374 258.147 20.0263C258.147 19.9118 258.147 19.8099 258.147 19.6954L258.134 19.6826ZM253.895 18.2824C256.288 18.2824 258.236 20.23 258.236 22.6232C258.236 24.6218 256.887 26.353 254.952 26.8367C254.863 26.8622 254.799 26.9131 254.748 26.9895L253.895 28.4662L253.042 26.9895C253.004 26.9131 252.928 26.8622 252.838 26.8367C250.904 26.353 249.554 24.6218 249.554 22.6232C249.554 20.23 251.502 18.2824 253.895 18.2824ZM245.328 15.3545C247.721 15.3545 249.669 17.3022 249.669 19.6954C249.669 19.8099 249.669 19.9245 249.669 20.0263C249.3 20.6374 249.045 21.3375 248.969 22.0758C248.37 22.9924 247.454 23.6289 246.397 23.8962C246.308 23.9216 246.244 23.9726 246.194 24.0489L245.341 25.5256L244.488 24.0489C244.45 23.9726 244.373 23.9216 244.284 23.8962C242.349 23.4125 241 21.6812 241 19.6826C241 17.2895 242.947 15.3418 245.341 15.3418L245.328 15.3545ZM262.475 23.1069C262.564 23.1069 262.64 23.0687 262.704 23.0178C264.066 21.6558 265.466 20.2555 265.466 18.7916C265.466 17.875 264.728 17.1367 263.811 17.1367C263.175 17.1367 262.78 17.404 262.475 17.8241C262.169 17.404 261.775 17.1367 261.138 17.1367C260.222 17.1367 259.483 17.875 259.483 18.7916C259.483 20.2555 260.884 21.6558 262.246 23.0178C262.309 23.0815 262.386 23.1069 262.475 23.1069ZM261.138 17.7732C261.622 17.7732 261.877 17.9769 262.182 18.6006C262.233 18.7152 262.348 18.7788 262.475 18.7788C262.602 18.7788 262.704 18.7152 262.768 18.6006C263.086 17.9769 263.328 17.7732 263.811 17.7732C264.372 17.7732 264.817 18.2315 264.817 18.7788C264.817 19.9118 263.659 21.1338 262.475 22.3177C261.291 21.1211 260.133 19.899 260.133 18.7788C260.133 18.2187 260.591 17.7732 261.138 17.7732ZM245.328 23.1069C245.404 23.1069 245.493 23.0815 245.557 23.0178C246.919 21.6558 248.319 20.2555 248.319 18.7916C248.319 17.875 247.581 17.1367 246.665 17.1367C246.028 17.1367 245.633 17.404 245.328 17.8241C245.022 17.404 244.628 17.1367 243.991 17.1367C243.075 17.1367 242.336 17.875 242.336 18.7916C242.336 20.2555 243.737 21.6558 245.099 23.0178C245.162 23.0815 245.239 23.1069 245.328 23.1069ZM243.991 17.7732C244.475 17.7732 244.717 17.9641 245.035 18.6006C245.086 18.7152 245.201 18.7788 245.328 18.7788C245.455 18.7788 245.557 18.7152 245.621 18.6006C245.926 17.9769 246.181 17.7732 246.665 17.7732C247.225 17.7732 247.67 18.2315 247.67 18.7788C247.67 19.9118 246.512 21.1338 245.328 22.3177C244.144 21.1211 242.986 19.899 242.986 18.7788C242.986 18.2187 243.444 17.7732 243.991 17.7732ZM250.878 21.9231L252.215 23.1451L251.858 24.9146C251.833 25.0419 251.884 25.1692 251.986 25.2455C252.087 25.3219 252.227 25.3219 252.329 25.271L253.908 24.3799L255.486 25.271C255.486 25.271 255.588 25.3092 255.639 25.3092C255.703 25.3092 255.766 25.2837 255.83 25.2455C255.932 25.1692 255.983 25.0419 255.957 24.9146L255.601 23.1451L256.937 21.9231C257.027 21.834 257.065 21.7067 257.027 21.5921C256.988 21.4775 256.887 21.3884 256.759 21.3757L254.964 21.172L254.213 19.5299C254.162 19.4153 254.048 19.3389 253.921 19.3389C253.793 19.3389 253.679 19.4153 253.628 19.5299L252.877 21.172L251.082 21.3757C250.954 21.3884 250.853 21.4775 250.814 21.5921C250.776 21.7067 250.814 21.8467 250.904 21.9231H250.878ZM253.106 21.783C253.22 21.7703 253.309 21.6939 253.36 21.5921L253.895 20.421L254.43 21.5921C254.481 21.6939 254.57 21.7703 254.684 21.783L255.957 21.9358L255.015 22.8014C254.926 22.8778 254.901 22.9924 254.913 23.1069L255.168 24.3672L254.048 23.7307C254.048 23.7307 253.946 23.6925 253.895 23.6925C253.844 23.6925 253.78 23.7052 253.742 23.7307L252.622 24.3672L252.877 23.1069C252.902 22.9924 252.864 22.8778 252.775 22.8014L251.833 21.9358L253.106 21.783Z" fill="#333333" stroke="#333333" stroke-width="0.318243" stroke-miterlimit="10"/>
<path d="M154.771 59.794H155.916C156.107 60.8633 156.54 61.6144 158.029 61.6144C159.366 61.6144 160.193 60.7233 160.193 59.2339C160.193 57.8464 159.379 56.9426 158.131 56.9426C156.986 56.9426 156.324 57.299 155.802 57.8973H155.356V52.6272H160.881V53.6583H156.336V56.6625C156.731 56.2934 157.406 55.9878 158.348 55.9878C160.104 55.9878 161.403 57.2354 161.403 59.2467C161.403 61.258 159.901 62.5946 158.029 62.5946C155.916 62.5946 154.898 61.4234 154.758 59.8195L154.771 59.794Z" fill="#333333"/>
<path d="M165.324 58.2284H162.752V57.2609H165.324V54.4858H166.329V57.2609H168.901V58.2284H166.329V61.0035H165.324V58.2284Z" fill="#333333"/>
<path d="M153.523 25.1564C153.523 29.7136 157.228 33.418 161.785 33.418C166.342 33.418 170.046 29.7136 170.046 25.1564C170.046 20.5991 166.342 16.8948 161.785 16.8948C157.228 16.8948 153.523 20.5991 153.523 25.1564ZM161.785 18.0023C165.731 18.0023 168.939 21.2102 168.939 25.1564C168.939 29.1026 165.731 32.3105 161.785 32.3105C157.839 32.3105 154.631 29.1026 154.631 25.1564C154.631 21.2102 157.839 18.0023 161.785 18.0023Z" fill="#333333"/>
<path d="M156.693 24.1764L158.831 26.2768L158.335 29.2301C158.297 29.4337 158.386 29.6374 158.551 29.7647C158.717 29.892 158.946 29.9047 159.124 29.8029L161.785 28.4281L164.445 29.8029C164.624 29.892 164.853 29.8793 165.018 29.7647C165.184 29.6374 165.273 29.4337 165.235 29.2301L164.738 26.2768L166.877 24.1764C167.029 24.0363 167.08 23.8072 167.017 23.6162C166.953 23.4126 166.788 23.2725 166.571 23.2471L163.605 22.8015L162.269 20.1156C162.179 19.9246 161.988 19.8101 161.772 19.8101C161.556 19.8101 161.377 19.9246 161.276 20.1156L159.939 22.8015L156.973 23.2471C156.769 23.2725 156.591 23.4253 156.527 23.6162C156.464 23.8199 156.527 24.0363 156.667 24.1764H156.693ZM160.41 23.8454C160.588 23.8199 160.741 23.7054 160.817 23.5526L161.798 21.6049L162.778 23.5526C162.854 23.7181 163.007 23.8199 163.185 23.8454L165.336 24.1636L163.783 25.6912C163.656 25.8185 163.592 25.9967 163.631 26.1749L163.987 28.3262L162.052 27.3206C161.976 27.2824 161.887 27.2569 161.798 27.2569C161.708 27.2569 161.619 27.2824 161.543 27.3206L159.608 28.3262L159.964 26.1749C159.99 25.9967 159.939 25.8185 159.812 25.6912L158.259 24.1636L160.41 23.8454Z" fill="#333333"/>
<path d="M162.332 15.2527C162.332 15.5582 162.09 15.8001 161.785 15.8001C161.479 15.8001 161.237 15.5582 161.237 15.2527C161.237 14.9472 161.479 14.7053 161.785 14.7053C162.09 14.7053 162.332 14.9472 162.332 15.2527Z" fill="#333333"/>
<path d="M159.188 15.0235C154.554 16.2074 151.321 20.37 151.321 25.1564C151.321 28.1224 152.568 30.923 154.758 32.9088L151.435 38.7518C151.334 38.9427 151.346 39.1718 151.474 39.3501C151.601 39.5283 151.817 39.6047 152.034 39.5665L155.802 38.7899L157.126 42.5198C157.202 42.7234 157.38 42.8635 157.597 42.8889C157.813 42.9144 158.017 42.7998 158.118 42.6089L161.772 36.1804L165.425 42.6089C165.527 42.7871 165.705 42.8889 165.909 42.8889C165.922 42.8889 165.947 42.8889 165.96 42.8889C166.176 42.8635 166.355 42.7234 166.431 42.5198L167.755 38.7899L171.523 39.5665C171.739 39.6047 171.956 39.5283 172.083 39.3501C172.21 39.1718 172.223 38.9427 172.121 38.7518L168.799 32.9088C170.988 30.923 172.236 28.1224 172.236 25.1564C172.236 20.37 169.002 16.2074 164.369 15.0235C164.076 14.9472 163.77 15.1254 163.694 15.4182C163.618 15.711 163.796 16.0165 164.089 16.0928C168.226 17.1494 171.128 20.8792 171.128 25.1564C171.128 30.3629 166.902 34.5128 161.772 34.5128C156.642 34.5128 152.416 30.3629 152.416 25.1564C152.416 20.8792 155.305 17.1494 159.455 16.0928C159.748 16.0165 159.926 15.7237 159.85 15.4182C159.773 15.1254 159.481 14.9472 159.175 15.0235H159.188ZM157.762 41.0177L156.68 37.9752C156.591 37.7207 156.324 37.5679 156.044 37.6188L153.001 38.2553L155.623 33.6344C157.151 34.7419 158.971 35.4293 160.855 35.5948L157.762 41.0304V41.0177ZM167.513 37.6188C167.246 37.5679 166.978 37.7207 166.877 37.9752L165.794 41.0177L162.701 35.5821C164.585 35.4166 166.393 34.7419 167.933 33.6217L170.555 38.2426L167.513 37.6061V37.6188Z" fill="#333333"/>
<path d="M93.6334 141.315H88.707V140.934L93.2006 133.55H94.7918V140.348H96.1539V141.328H94.7918V143.39H93.6207V141.328L93.6334 141.315ZM93.6334 140.335V134.454L90.2219 140.335H93.6334Z" fill="#333333"/>
<path d="M97.5669 142.563C97.5669 142.066 97.9615 141.684 98.4452 141.684C98.929 141.684 99.3236 142.066 99.3236 142.563C99.3236 143.059 98.929 143.441 98.4452 143.441C97.9615 143.441 97.5669 143.059 97.5669 142.563Z" fill="#333333"/>
<path d="M100.826 140.59C100.826 139.266 101.64 138.413 102.684 138.044C101.755 137.687 101.195 136.949 101.195 135.982C101.195 134.39 102.71 133.423 104.225 133.423C105.739 133.423 107.241 134.416 107.241 135.956C107.241 136.949 106.643 137.636 105.727 138.031C106.872 138.438 107.611 139.291 107.611 140.564C107.611 142.525 105.892 143.505 104.225 143.505C102.557 143.505 100.826 142.537 100.826 140.59ZM106.389 140.526C106.389 139.228 105.421 138.578 104.263 138.578C103.104 138.578 102.06 139.253 102.06 140.564C102.06 141.875 103.092 142.55 104.237 142.55C105.447 142.55 106.401 141.85 106.401 140.539L106.389 140.526ZM106.032 135.969C106.032 135.014 105.243 134.365 104.225 134.365C103.206 134.365 102.404 134.989 102.404 136.007C102.404 137.025 103.257 137.636 104.263 137.636C105.268 137.636 106.019 137.025 106.019 135.982L106.032 135.969Z" fill="#333333"/>
<path d="M111.455 139.151H108.884V138.184H111.455V135.409H112.461V138.184H115.032V139.151H112.461V141.926H111.455V139.151Z" fill="#333333"/>
<path d="M108.591 119.127C108.311 119.127 108.031 119.038 107.789 118.86L101.857 114.545L95.9248 118.86C95.4283 119.216 94.8046 119.216 94.3081 118.86C93.8116 118.504 93.6207 117.905 93.8116 117.32L96.0775 110.344L90.1455 106.028C89.649 105.672 89.4581 105.074 89.649 104.488C89.84 103.915 90.3492 103.533 90.9602 103.533H98.2925L100.558 96.5575C100.749 95.9847 101.259 95.6028 101.87 95.6028C102.481 95.6028 102.99 95.9719 103.181 96.5575L105.447 103.533H112.779C113.39 103.533 113.899 103.903 114.09 104.488C114.281 105.061 114.09 105.672 113.594 106.028L107.662 110.344L109.927 117.32C110.118 117.893 109.927 118.504 109.431 118.86C109.189 119.038 108.909 119.127 108.629 119.127H108.591ZM101.844 113.17C102.124 113.17 102.404 113.259 102.646 113.437L108.578 117.752L106.312 110.777C106.134 110.204 106.325 109.593 106.809 109.236L112.741 104.921H105.408C104.81 104.921 104.288 104.539 104.097 103.966L101.831 96.9903L99.5655 103.979C99.3745 104.552 98.8526 104.934 98.2543 104.934H90.922L96.854 109.249C97.3378 109.605 97.5414 110.217 97.3505 110.789L95.0846 117.765L101.017 113.45C101.259 113.272 101.539 113.183 101.831 113.183L101.844 113.17Z" fill="#333333"/>
<path d="M172 140.36H173.158C173.311 141.532 173.782 142.524 175.755 142.524C177.016 142.524 177.996 141.786 177.996 140.666C177.996 139.546 177.487 139.087 175.615 138.782C173.553 138.464 172.331 137.814 172.331 136.07C172.331 134.556 173.642 133.397 175.501 133.397C177.461 133.397 178.696 134.365 178.887 136.109H177.817C177.588 134.874 176.863 134.365 175.513 134.365C174.164 134.365 173.464 135.039 173.464 135.956C173.464 136.872 173.82 137.42 175.832 137.713C178.021 138.056 179.167 138.718 179.167 140.577C179.167 142.232 177.728 143.479 175.768 143.479C173.146 143.479 172.191 142.041 172.013 140.36H172Z" fill="#333333"/>
<path d="M180.58 139.839V139.724C180.58 137.547 181.967 136.032 183.953 136.032C185.621 136.032 187.187 137.038 187.187 139.61V139.979H181.764C181.815 141.621 182.604 142.525 184.068 142.525C185.188 142.525 185.824 142.117 185.977 141.277H187.123C186.881 142.716 185.684 143.479 184.055 143.479C182.018 143.479 180.58 142.054 180.58 139.839ZM186.015 139.062C185.901 137.573 185.137 136.987 183.953 136.987C182.769 136.987 182.006 137.789 181.802 139.062H186.015Z" fill="#333333"/>
<path d="M188.93 136.16H190.076V137.458C190.534 136.643 191.145 136.083 192.444 136.045V137.114C191.005 137.178 190.076 137.636 190.076 139.406V143.352H188.93V136.16Z" fill="#333333"/>
<path d="M193.36 136.16H194.595L196.721 142.194L198.821 136.16H200.005L197.421 143.352H195.957L193.348 136.16H193.36Z" fill="#333333"/>
<path d="M201.329 133.907C201.329 133.499 201.673 133.156 202.08 133.156C202.488 133.156 202.831 133.499 202.831 133.907C202.831 134.314 202.488 134.658 202.08 134.658C201.673 134.658 201.329 134.314 201.329 133.907ZM201.533 136.16H202.679V143.352H201.533V136.16Z" fill="#333333"/>
<path d="M204.473 139.839V139.724C204.473 137.522 206.039 136.032 207.961 136.032C209.464 136.032 210.864 136.72 211.08 138.553H209.947C209.769 137.407 208.942 136.987 207.949 136.987C206.638 136.987 205.632 138.031 205.632 139.724V139.839C205.632 141.595 206.599 142.537 207.987 142.537C209.005 142.537 209.922 141.952 210.049 140.781H211.106C210.953 142.334 209.705 143.492 207.974 143.492C205.963 143.492 204.448 142.079 204.448 139.851L204.473 139.839Z" fill="#333333"/>
<path d="M212.315 139.839V139.724C212.315 137.547 213.702 136.032 215.688 136.032C217.356 136.032 218.922 137.038 218.922 139.61V139.979H213.499C213.55 141.621 214.339 142.525 215.803 142.525C216.923 142.525 217.56 142.117 217.712 141.277H218.858C218.616 142.716 217.42 143.479 215.79 143.479C213.753 143.479 212.315 142.054 212.315 139.839ZM217.751 139.062C217.636 137.573 216.872 136.987 215.688 136.987C214.504 136.987 213.741 137.789 213.537 139.062H217.751Z" fill="#333333"/>
<path d="M220.131 141.137H221.251C221.34 141.99 221.786 142.525 222.944 142.525C224.026 142.525 224.51 142.155 224.51 141.379C224.51 140.602 223.95 140.373 222.83 140.17C220.959 139.826 220.322 139.304 220.322 138.057C220.322 136.72 221.633 136.032 222.753 136.032C224.052 136.032 225.159 136.554 225.35 138.107H224.256C224.09 137.318 223.645 136.974 222.741 136.974C221.913 136.974 221.379 137.382 221.379 138.006C221.379 138.629 221.735 138.909 223.059 139.151C224.548 139.431 225.592 139.762 225.592 141.277C225.592 142.588 224.701 143.467 222.957 143.467C221.213 143.467 220.207 142.601 220.144 141.124L220.131 141.137Z" fill="#333333"/>
<path d="M198.21 121.075C191.095 121.075 185.302 115.283 185.302 108.167C185.302 101.051 191.095 95.259 198.21 95.259C205.326 95.259 211.118 101.051 211.118 108.167C211.118 115.283 205.326 121.075 198.21 121.075ZM198.21 96.0355C191.527 96.0355 186.079 101.471 186.079 108.167C186.079 114.863 191.515 120.298 198.21 120.298C204.906 120.298 210.342 114.863 210.342 108.167C210.342 101.471 204.906 96.0355 198.21 96.0355Z" fill="#333333" stroke="#333333" stroke-width="0.636486" stroke-miterlimit="10"/>
<path d="M206.523 121.673C209.448 121.673 211.818 119.302 211.818 116.378C211.818 113.453 209.448 111.082 206.523 111.082C203.598 111.082 201.227 113.453 201.227 116.378C201.227 119.302 203.598 121.673 206.523 121.673Z" fill="#333333" stroke="#333333" stroke-width="0.636486" stroke-miterlimit="10"/>
<path d="M206.523 122.068C203.391 122.068 200.833 119.522 200.833 116.377C200.833 113.233 203.378 110.687 206.523 110.687C209.667 110.687 212.213 113.233 212.213 116.377C212.213 119.522 209.667 122.068 206.523 122.068ZM206.523 111.476C203.824 111.476 201.622 113.679 201.622 116.377C201.622 119.076 203.824 121.278 206.523 121.278C209.221 121.278 211.424 119.076 211.424 116.377C211.424 113.679 209.221 111.476 206.523 111.476Z" fill="#333333" stroke="#333333" stroke-width="0.636486" stroke-miterlimit="10"/>
<path d="M198.211 99.7145C197.994 99.7145 197.816 99.5363 197.816 99.3199V95.641C197.816 95.4246 197.994 95.2463 198.211 95.2463C198.427 95.2463 198.605 95.4246 198.605 95.641V99.3199C198.605 99.5363 198.427 99.7145 198.211 99.7145Z" fill="#333333" stroke="#333333" stroke-width="0.636486" stroke-miterlimit="10"/>
<path d="M195.003 111.999C194.901 111.999 194.799 111.96 194.722 111.884C194.57 111.731 194.57 111.477 194.722 111.324L197.816 108.231V102.171C197.816 101.955 197.994 101.777 198.21 101.777C198.427 101.777 198.605 101.955 198.605 102.171V108.562L195.283 111.884C195.206 111.96 195.104 111.999 195.003 111.999Z" fill="#333333" stroke="#333333" stroke-width="0.636486" stroke-miterlimit="10"/>
<path d="M198.211 121.075C197.994 121.075 197.816 120.897 197.816 120.68V117.002C197.816 116.785 197.994 116.607 198.211 116.607C198.427 116.607 198.605 116.785 198.605 117.002V120.68C198.605 120.897 198.427 121.075 198.211 121.075Z" fill="#333333" stroke="#333333" stroke-width="0.636486" stroke-miterlimit="10"/>
<path d="M191.96 102.311C191.858 102.311 191.757 102.273 191.68 102.197L189.083 99.5997C188.931 99.447 188.931 99.1924 189.083 99.0396C189.236 98.8869 189.491 98.8869 189.643 99.0396L192.24 101.636C192.393 101.789 192.393 102.044 192.24 102.197C192.164 102.273 192.062 102.311 191.96 102.311Z" fill="#333333" stroke="#333333" stroke-width="0.636486" stroke-miterlimit="10"/>
<path d="M189.376 108.562H185.697C185.481 108.562 185.302 108.383 185.302 108.167C185.302 107.951 185.481 107.772 185.697 107.772H189.376C189.592 107.772 189.771 107.951 189.771 108.167C189.771 108.383 189.592 108.562 189.376 108.562Z" fill="#333333" stroke="#333333" stroke-width="0.636486" stroke-miterlimit="10"/>
<path d="M210.736 108.562H207.057C206.841 108.562 206.663 108.383 206.663 108.167C206.663 107.951 206.841 107.772 207.057 107.772H210.736C210.953 107.772 211.131 107.951 211.131 108.167C211.131 108.383 210.953 108.562 210.736 108.562Z" fill="#333333" stroke="#333333" stroke-width="0.636486" stroke-miterlimit="10"/>
<path d="M189.363 117.409C189.262 117.409 189.16 117.371 189.083 117.294C188.931 117.141 188.931 116.887 189.083 116.734L191.68 114.137C191.833 113.985 192.088 113.985 192.24 114.137C192.393 114.29 192.393 114.545 192.24 114.697L189.643 117.294C189.567 117.371 189.465 117.409 189.363 117.409Z" fill="#333333" stroke="#333333" stroke-width="0.636486" stroke-miterlimit="10"/>
<path d="M204.461 102.311C204.359 102.311 204.257 102.273 204.18 102.197C204.028 102.044 204.028 101.789 204.18 101.636L206.777 99.0396C206.93 98.8869 207.185 98.8869 207.337 99.0396C207.49 99.1924 207.49 99.447 207.337 99.5997L204.741 102.197C204.664 102.273 204.562 102.311 204.461 102.311Z" fill="#333333" stroke="#333333" stroke-width="0.636486" stroke-miterlimit="10"/>
<path d="M204.512 114.965L203.621 115.55V114.697L204.626 113.984H205.505V118.376H204.512V114.965Z" fill="white"/>
<path d="M206.332 118.211L207.936 116.505C208.356 116.059 208.623 115.665 208.623 115.27C208.623 114.914 208.42 114.672 208.038 114.672C207.656 114.672 207.401 114.901 207.338 115.474H206.434C206.485 114.468 207.096 113.908 208.076 113.908C209.056 113.908 209.604 114.443 209.604 115.245C209.604 115.83 209.273 116.301 208.751 116.798L207.923 117.612H209.629V118.363H206.319V118.211H206.332Z" fill="white"/>
<path d="M26.2093 59.9596H27.3549C27.5459 61.0289 27.9787 61.7799 29.4681 61.7799C30.8047 61.7799 31.6321 60.8888 31.6321 59.3994C31.6321 58.0119 30.8174 57.1081 29.5699 57.1081C28.4242 57.1081 27.7623 57.4645 27.2404 58.0628H26.7948V52.7927H32.3195V53.8238H27.775V56.828C28.1696 56.4589 28.8443 56.1534 29.7863 56.1534C31.543 56.1534 32.8414 57.4009 32.8414 59.4122C32.8414 61.4235 31.3393 62.7601 29.4681 62.7601C27.3549 62.7601 26.3366 61.589 26.1965 59.985L26.2093 59.9596Z" fill="#333333"/>
<path d="M34.4453 57.9866V57.4392C34.4453 54.5368 35.922 52.6655 38.3279 52.6655C40.7338 52.6655 42.1595 54.6004 42.1595 57.4137V57.9611C42.1595 60.8253 40.772 62.7475 38.3533 62.7475C35.9347 62.7475 34.4453 60.8507 34.4453 57.9866ZM40.9502 57.9484V57.401C40.9502 55.1224 39.9827 53.633 38.3279 53.633C36.673 53.633 35.6801 55.0078 35.6801 57.4264V57.9738C35.6801 60.4689 36.7239 61.7545 38.3661 61.7545C40.0846 61.7545 40.9629 60.4307 40.9629 57.9484H40.9502Z" fill="#333333"/>
<path d="M43.8018 57.9866V57.4392C43.8018 54.5368 45.2784 52.6655 47.6843 52.6655C50.0902 52.6655 51.516 54.6004 51.516 57.4137V57.9611C51.516 60.8253 50.1284 62.7475 47.7098 62.7475C45.2911 62.7475 43.8018 60.8507 43.8018 57.9866ZM50.3066 57.9484V57.401C50.3066 55.1224 49.3392 53.633 47.6843 53.633C46.0295 53.633 45.0365 55.0078 45.0365 57.4264V57.9738C45.0365 60.4689 46.0804 61.7545 47.7225 61.7545C49.441 61.7545 50.3194 60.4307 50.3194 57.9484H50.3066Z" fill="#333333"/>
<path d="M52.1523 63.9186L53.4762 60.9016L54.5964 61.4235L52.9034 64.3004L52.1651 63.9186H52.1523Z" fill="#333333"/>
<path d="M55.6785 57.9866V57.4392C55.6785 54.5368 57.1551 52.6655 59.561 52.6655C61.9669 52.6655 63.3927 54.6004 63.3927 57.4137V57.9611C63.3927 60.8253 62.0051 62.7475 59.5865 62.7475C57.1678 62.7475 55.6785 60.8507 55.6785 57.9866ZM62.1834 57.9484V57.401C62.1834 55.1224 61.2159 53.633 59.561 53.633C57.9062 53.633 56.9132 55.0078 56.9132 57.4264V57.9738C56.9132 60.4689 57.9571 61.7545 59.5992 61.7545C61.3177 61.7545 62.1961 60.4307 62.1961 57.9484H62.1834Z" fill="#333333"/>
<path d="M65.0349 57.9866V57.4392C65.0349 54.5368 66.5116 52.6655 68.9175 52.6655C71.3234 52.6655 72.7491 54.6004 72.7491 57.4137V57.9611C72.7491 60.8253 71.3616 62.7475 68.9429 62.7475C66.5243 62.7475 65.0349 60.8507 65.0349 57.9866ZM71.5398 57.9484V57.401C71.5398 55.1224 70.5723 53.633 68.9175 53.633C67.2626 53.633 66.2697 55.0078 66.2697 57.4264V57.9738C66.2697 60.4689 67.3135 61.7545 68.9557 61.7545C70.6742 61.7545 71.5525 60.4307 71.5525 57.9484H71.5398Z" fill="#333333"/>
<path d="M74.3911 57.9866V57.4392C74.3911 54.5368 75.8678 52.6655 78.2737 52.6655C80.6796 52.6655 82.1053 54.6004 82.1053 57.4137V57.9611C82.1053 60.8253 80.7178 62.7475 78.2991 62.7475C75.8805 62.7475 74.3911 60.8507 74.3911 57.9866ZM80.896 57.9484V57.401C80.896 55.1224 79.9285 53.633 78.2737 53.633C76.6188 53.633 75.6259 55.0078 75.6259 57.4264V57.9738C75.6259 60.4689 76.6697 61.7545 78.3119 61.7545C80.0304 61.7545 80.9087 60.4307 80.9087 57.9484H80.896Z" fill="#333333"/>
<path d="M89.6415 58.3937H87.0701V57.4262H89.6415V54.6511H90.6471V57.4262H93.2185V58.3937H90.6471V61.1687H89.6415V58.3937Z" fill="#333333"/>
<path d="M59.1283 37.3642C52.878 37.3642 47.7988 32.2851 47.7988 26.0348C47.7988 19.7845 52.878 14.7053 59.1283 14.7053C60.9104 14.7053 62.629 15.1127 64.2202 15.9146C64.4493 16.0292 64.5384 16.2965 64.4239 16.5257C64.3093 16.7548 64.042 16.8439 63.8128 16.7293C62.3489 15.991 60.7704 15.6219 59.141 15.6219C53.3999 15.6219 48.7281 20.2937 48.7281 26.0348C48.7281 31.7759 53.3999 36.4477 59.141 36.4477C64.8821 36.4477 69.5539 31.7759 69.5539 26.0348C69.5539 24.9528 69.3884 23.8835 69.0575 22.8523C68.9811 22.6105 69.1084 22.3559 69.3503 22.2795C69.5921 22.2031 69.8467 22.3304 69.9231 22.5723C70.2795 23.6925 70.4577 24.8509 70.4577 26.022C70.4577 32.2723 65.3786 37.3515 59.1283 37.3515V37.3642Z" fill="#333333" stroke="#333333" stroke-width="1.27297" stroke-miterlimit="10"/>
<path d="M59.052 28.4279L56.035 25.4109C55.8568 25.2327 55.8568 24.9399 56.035 24.7617C56.2132 24.5835 56.506 24.5835 56.6842 24.7617L59.052 27.1294L70.7633 15.4181C70.9415 15.2399 71.2343 15.2399 71.4125 15.4181C71.5908 15.5963 71.5908 15.8891 71.4125 16.0673L59.0647 28.4151L59.052 28.4279Z" fill="#333333" stroke="#333333" stroke-width="1.27297" stroke-miterlimit="10"/>
<path d="M11 73.9729V73.8952C11 71.7729 12.4882 70.3235 14.4682 70.3235C16.1505 70.3235 17.4058 71.1388 17.5611 72.8599H15.9435C15.827 72.0188 15.3611 71.5658 14.4811 71.5658C13.3811 71.5658 12.6694 72.4199 12.6694 73.8693V73.947C12.6694 75.3964 13.3294 76.2375 14.4941 76.2375C15.3611 76.2375 15.9693 75.7975 16.0988 74.8917H17.6517C17.4705 76.6258 16.2411 77.5057 14.52 77.5057C12.2294 77.5057 11.0129 76.0952 11.0129 73.947L11 73.9729Z" fill="#333333"/>
<path d="M18.2341 74.9303V74.8526C18.2341 73.2479 19.3988 72.1997 20.9259 72.1997C22.4529 72.1997 23.6176 73.222 23.6176 74.8138V74.8914C23.6176 76.5091 22.4529 77.5314 20.9259 77.5314C19.3988 77.5314 18.2341 76.5091 18.2341 74.9173V74.9303ZM22.1811 74.9173V74.8526C22.1811 73.882 21.7153 73.2868 20.9259 73.2868C20.1365 73.2868 19.6706 73.8562 19.6706 74.8267V74.9044C19.6706 75.875 20.1235 76.4702 20.9259 76.4702C21.7282 76.4702 22.1811 75.8879 22.1811 74.9173Z" fill="#333333"/>
<path d="M24.5752 72.3162H25.9858V73.0926C26.2446 72.6138 26.7881 72.1868 27.5516 72.1868C28.2246 72.1868 28.7293 72.4715 28.9751 73.0797C29.3893 72.4585 30.0492 72.1868 30.6963 72.1868C31.641 72.1868 32.3786 72.7821 32.3786 74.1409V77.4149H30.9681V74.2962C30.9681 73.6362 30.6704 73.3515 30.1657 73.3515C29.6222 73.3515 29.1822 73.7009 29.1822 74.3997V77.4149H27.7716V74.2962C27.7716 73.6362 27.474 73.3515 26.9693 73.3515C26.4258 73.3515 25.9858 73.7009 25.9858 74.3997V77.4149H24.5752V72.3032V72.3162Z" fill="#333333"/>
<path d="M33.6079 72.3162H35.0185V73.1185C35.3032 72.6268 35.8985 72.1997 36.649 72.1997C37.9043 72.1997 38.8749 73.1315 38.8749 74.8138V74.8914C38.8749 76.5867 37.9173 77.5314 36.649 77.5314C35.8596 77.5314 35.2773 77.1432 35.0185 76.6385V79.162H33.6079V72.3162ZM37.4514 74.9044V74.8267C37.4514 73.7915 36.9467 73.2868 36.2349 73.2868C35.5232 73.2868 34.9797 73.8044 34.9797 74.8267V74.9044C34.9797 75.9267 35.4714 76.4314 36.2349 76.4314C36.9985 76.4314 37.4514 75.9008 37.4514 74.9044Z" fill="#333333"/>
<path d="M39.8716 70H41.2822V77.4281H39.8716V70Z" fill="#333333"/>
<path d="M42.2656 74.9434V74.8658C42.2656 73.2482 43.4044 72.2129 44.8927 72.2129C46.2126 72.2129 47.3903 72.9893 47.3903 74.814V75.2023H43.7021C43.7409 76.0564 44.2068 76.5352 44.9703 76.5352C45.6303 76.5352 45.9409 76.2505 46.0315 75.8234H47.3644C47.1962 76.9234 46.3162 77.5446 44.9185 77.5446C43.3786 77.5446 42.2527 76.574 42.2527 74.9434H42.2656ZM46.0056 74.3223C45.9538 73.5458 45.5656 73.1835 44.8927 73.1835C44.2585 73.1835 43.8315 73.5976 43.715 74.3223H46.0056Z" fill="#333333"/>
<path d="M48.5289 75.9139V73.3257H47.8689V72.3163H48.5289V71.2163H49.9395V72.3163H51.0136V73.3257H49.9395V75.7845C49.9395 76.1986 50.1465 76.3927 50.5089 76.3927C50.7289 76.3927 50.8842 76.3668 51.0524 76.2892V77.3892C50.8583 77.4539 50.5736 77.5315 50.1983 77.5315C49.1242 77.5315 48.5418 76.988 48.5418 75.9139H48.5289Z" fill="#333333"/>
<path d="M51.6997 74.9434V74.8658C51.6997 73.2482 52.8385 72.2129 54.3267 72.2129C55.6467 72.2129 56.8244 72.9893 56.8244 74.814V75.2023H53.1362C53.175 76.0564 53.6409 76.5352 54.4044 76.5352C55.0644 76.5352 55.375 76.2505 55.4655 75.8234H56.7985C56.6302 76.9234 55.7502 77.5446 54.3526 77.5446C52.8126 77.5446 51.6868 76.574 51.6868 74.9434H51.6997ZM55.4397 74.3223C55.3879 73.5458 54.9997 73.1835 54.3267 73.1835C53.6926 73.1835 53.2656 73.5976 53.1491 74.3223H55.4397Z" fill="#333333"/>
<path d="M57.4456 74.9435V74.8658C57.4456 73.1835 58.4161 72.2 59.6973 72.2C60.5126 72.2 61.0302 72.5623 61.3149 73.08V70H62.7255V77.4281H61.3149V76.574C61.0561 77.0917 60.422 77.5317 59.6714 77.5317C58.4291 77.5317 57.4585 76.6387 57.4585 74.9435H57.4456ZM61.3408 74.8917V74.8141C61.3408 73.7917 60.8879 73.2741 60.1243 73.2741C59.3608 73.2741 58.8949 73.8176 58.8949 74.827V74.9046C58.8949 75.927 59.3867 76.4187 60.0855 76.4187C60.8232 76.4187 61.3408 75.927 61.3408 74.8788V74.8917Z" fill="#333333"/>
<path d="M65.8442 75.2411H67.3583C67.423 75.8622 67.6948 76.3799 68.7301 76.3799C69.4289 76.3799 69.8818 76.0046 69.8818 75.4481C69.8818 74.8917 69.5842 74.6975 68.5619 74.5423C66.776 74.3093 66.0384 73.7658 66.0384 72.4199C66.0384 71.2294 67.0348 70.3364 68.5748 70.3364C70.1148 70.3364 71.0724 71.0352 71.1889 72.4329H69.7265C69.623 71.7988 69.2607 71.5011 68.5619 71.5011C67.863 71.5011 67.5136 71.8246 67.5136 72.2905C67.5136 72.7952 67.7336 73.0282 68.8077 73.1834C70.503 73.4034 71.3701 73.8564 71.3701 75.3058C71.3701 76.5481 70.3477 77.5316 68.7042 77.5316C66.7889 77.5316 65.9089 76.6387 65.8184 75.2281L65.8442 75.2411Z" fill="#333333"/>
<path d="M72.1074 74.9434V74.8658C72.1074 73.2482 73.2462 72.2129 74.7344 72.2129C76.0544 72.2129 77.2321 72.9893 77.2321 74.814V75.2023H73.5439C73.5827 76.0564 74.0356 76.5352 74.8121 76.5352C75.4721 76.5352 75.7956 76.2505 75.8733 75.8234H77.2191C77.0509 76.9234 76.1709 77.5446 74.7733 77.5446C73.2333 77.5446 72.1074 76.574 72.1074 74.9434ZM75.8474 74.3223C75.7956 73.5458 75.4074 73.1835 74.7344 73.1835C74.1003 73.1835 73.6733 73.5976 73.5568 74.3223H75.8474Z" fill="#333333"/>
<path d="M78.1641 72.3164H79.5876V73.287C79.9111 72.6011 80.4029 72.2388 81.244 72.2258V73.5458C80.1958 73.5458 79.5876 73.8823 79.5876 74.8529V77.4152H78.1641V72.3035V72.3164Z" fill="#333333"/>
<path d="M81.7229 72.3164H83.237L84.4535 75.9787L85.6699 72.3164H87.0417L85.1911 77.4281H83.5993L81.7358 72.3164H81.7229Z" fill="#333333"/>
<path d="M87.7402 70.8541C87.7402 70.4141 88.0896 70.0776 88.5426 70.0776C88.9955 70.0776 89.3579 70.4141 89.3579 70.8541C89.3579 71.2941 89.0084 71.6306 88.5426 71.6306C88.0767 71.6306 87.7402 71.2941 87.7402 70.8541ZM87.8438 72.3164H89.2543V77.4281H87.8438V72.3164Z" fill="#333333"/>
<path d="M90.2378 74.9434V74.8658C90.2378 73.2093 91.4154 72.2129 92.8778 72.2129C94.0554 72.2129 95.1554 72.7305 95.2848 74.1929H93.9519C93.8483 73.5976 93.486 73.3258 92.9166 73.3258C92.1789 73.3258 91.7001 73.8693 91.7001 74.8529V74.9305C91.7001 75.9528 92.1531 76.4834 92.9554 76.4834C93.5248 76.4834 93.9777 76.147 94.0554 75.4999H95.3365C95.2589 76.7164 94.3789 77.5575 92.8907 77.5575C91.4025 77.5575 90.2637 76.6258 90.2637 74.9564L90.2378 74.9434Z" fill="#333333"/>
<path d="M95.8931 74.9434V74.8658C95.8931 73.2482 97.0319 72.2129 98.5201 72.2129C99.8401 72.2129 101.018 72.9893 101.018 74.814V75.2023H97.3295C97.3683 76.0564 97.8213 76.5352 98.5977 76.5352C99.2577 76.5352 99.5813 76.2505 99.6589 75.8234H101.005C100.837 76.9234 99.9566 77.5446 98.5589 77.5446C97.0189 77.5446 95.8931 76.574 95.8931 74.9434ZM99.633 74.3223C99.5813 73.5458 99.193 73.1835 98.5201 73.1835C97.886 73.1835 97.4589 73.5976 97.3425 74.3223H99.633Z" fill="#333333"/>
<path d="M101.626 75.8232H102.946C103.011 76.2761 103.231 76.5479 103.852 76.5479C104.395 76.5479 104.654 76.3408 104.654 75.9914C104.654 75.642 104.357 75.4997 103.619 75.3832C102.26 75.1761 101.73 74.7879 101.73 73.7915C101.73 72.7303 102.7 72.1997 103.748 72.1997C104.887 72.1997 105.728 72.6138 105.858 73.7785H104.564C104.486 73.3644 104.253 73.1573 103.761 73.1573C103.308 73.1573 103.037 73.3773 103.037 73.6879C103.037 73.9985 103.282 74.1409 104.02 74.2444C105.301 74.4256 106 74.7491 106 75.8491C106 76.9491 105.198 77.5314 103.852 77.5314C102.506 77.5314 101.678 76.9232 101.626 75.8232Z" fill="#333333"/>
<path d="M118.012 70.4189H120.621C122.073 70.4189 122.824 71.0096 122.824 72.1541V72.191C122.824 72.8924 122.492 73.397 121.741 73.6185C122.602 73.7908 123.07 74.283 123.07 75.1814V75.2183C123.07 76.4366 122.27 77.0765 120.732 77.0765H118V70.4312L118.012 70.4189ZM120.387 73.1509C121.113 73.1509 121.396 72.8924 121.396 72.2894V72.2525C121.396 71.6988 121.076 71.4403 120.375 71.4403H119.489V73.1386H120.387V73.1509ZM120.523 76.0182C121.261 76.0182 121.606 75.6859 121.606 75.0829V75.046C121.606 74.4307 121.273 74.1107 120.449 74.1107H119.489V76.0182H120.523Z" fill="#333333"/>
<path d="M123.723 74.6886V74.6148C123.723 73.0765 124.805 72.092 126.221 72.092C127.476 72.092 128.596 72.8304 128.596 74.5655V74.9347H125.088C125.125 75.7469 125.568 76.2022 126.294 76.2022C126.922 76.2022 127.217 75.9315 127.304 75.5254H128.571C128.411 76.5714 127.574 77.1621 126.245 77.1621C124.781 77.1621 123.71 76.2392 123.71 74.6886H123.723ZM127.279 74.0979C127.23 73.3596 126.861 73.015 126.221 73.015C125.618 73.015 125.212 73.4088 125.101 74.0979H127.279Z" fill="#333333"/>
<path d="M129.174 75.5377H130.429C130.478 75.9684 130.7 76.2269 131.29 76.2269C131.807 76.2269 132.053 76.03 132.053 75.6977C132.053 75.3654 131.77 75.2301 131.069 75.1193C129.777 74.9224 129.272 74.5532 129.272 73.6057C129.272 72.5966 130.208 72.092 131.192 72.092C132.275 72.092 133.075 72.4858 133.198 73.5934H131.967C131.893 73.1873 131.672 73.0027 131.204 73.0027C130.761 73.0027 130.515 73.2119 130.515 73.5072C130.515 73.8026 130.749 73.9379 131.45 74.0364C132.669 74.2087 133.333 74.5163 133.333 75.5623C133.333 76.6083 132.57 77.1621 131.29 77.1621C130.011 77.1621 129.223 76.5837 129.174 75.5377Z" fill="#333333"/>
<path d="M134.404 75.6238V73.1626H133.776V72.2027H134.404V71.1567H135.745V72.2027H136.767V73.1626H135.745V75.5007C135.745 75.8945 135.942 76.0791 136.287 76.0791C136.496 76.0791 136.644 76.0545 136.804 75.9807V77.0267C136.619 77.0882 136.348 77.1621 135.979 77.1621C134.958 77.1621 134.404 76.6452 134.404 75.6238Z" fill="#333333"/>
<path d="M139.474 74.984H140.914C140.975 75.5747 141.234 76.067 142.218 76.067C142.883 76.067 143.313 75.7101 143.313 75.1809C143.313 74.6518 143.03 74.4672 142.058 74.3195C140.36 74.098 139.659 73.5812 139.659 72.3013C139.659 71.1692 140.606 70.3201 142.071 70.3201C143.535 70.3201 144.446 70.9846 144.556 72.3136H143.178C143.08 71.7106 142.735 71.4276 142.071 71.4276C141.406 71.4276 141.074 71.7353 141.074 72.1783C141.074 72.6582 141.283 72.8797 142.304 73.0274C143.916 73.2366 144.741 73.6673 144.741 75.0456C144.741 76.2269 143.769 77.1622 142.206 77.1622C140.385 77.1622 139.548 76.3131 139.462 74.984H139.474Z" fill="#333333"/>
<path d="M145.405 75.7223C145.405 74.5902 146.451 74.1594 147.928 74.1594H148.482V73.9626C148.482 73.3842 148.309 73.0642 147.694 73.0642C147.165 73.0642 146.919 73.3349 146.87 73.7534H145.59C145.676 72.5966 146.587 72.092 147.78 72.092C148.974 72.092 149.811 72.572 149.811 73.901V77.076H148.494V76.4853C148.211 76.8791 147.793 77.1744 147.03 77.1744C146.144 77.1744 145.405 76.7437 145.405 75.7223ZM148.482 75.3654V74.9593H147.965C147.19 74.9593 146.734 75.1316 146.734 75.6485C146.734 76.0053 146.944 76.2392 147.436 76.2392C148.026 76.2392 148.482 75.9192 148.482 75.3777V75.3654Z" fill="#333333"/>
<path d="M151.005 70H152.346V77.0636H151.005V70Z" fill="#333333"/>
<path d="M153.281 74.6886V74.6148C153.281 73.0888 154.389 72.092 155.841 72.092C157.293 72.092 158.4 73.0642 158.4 74.5778V74.6517C158.4 76.1899 157.293 77.1621 155.841 77.1621C154.389 77.1621 153.281 76.1899 153.281 74.6763V74.6886ZM157.034 74.6763V74.6148C157.034 73.6918 156.604 73.1257 155.841 73.1257C155.078 73.1257 154.647 73.6672 154.647 74.5902V74.664C154.647 75.5869 155.078 76.153 155.841 76.153C156.604 76.153 157.034 75.5992 157.034 74.6763Z" fill="#333333"/>
<path d="M159.311 72.2028H160.665V72.9781C160.911 72.4981 161.44 72.092 162.24 72.092C163.2 72.092 163.877 72.6704 163.877 73.9749V77.076H162.523V74.1718C162.523 73.5072 162.265 73.1996 161.674 73.1996C161.083 73.1996 160.665 73.5565 160.665 74.2702V77.076H159.311V72.2151V72.2028Z" fill="#333333"/>
<path d="M168.873 70.4189H170.83L172.983 77.0642H171.408L170.953 75.5875H168.541L168.085 77.0642H166.67L168.861 70.4189H168.873ZM168.873 74.5168H170.633L169.759 71.6495L168.873 74.5168Z" fill="#333333"/>
<path d="M172.921 72.2029H174.337L175.198 75.4763L176.133 72.2029H177.241L178.102 75.4763L179.025 72.2029H180.317L178.779 77.0637H177.462L176.638 74.0119L175.752 77.0637H174.41L172.934 72.2029H172.921Z" fill="#333333"/>
<path d="M180.601 75.7223C180.601 74.5902 181.647 74.1594 183.123 74.1594H183.677V73.9626C183.677 73.3842 183.505 73.0642 182.889 73.0642C182.36 73.0642 182.114 73.3349 182.065 73.7534H180.785C180.871 72.5966 181.782 72.092 182.976 72.092C184.169 72.092 185.006 72.572 185.006 73.901V77.076H183.689V76.4853C183.406 76.8791 182.988 77.1744 182.225 77.1744C181.339 77.1744 180.601 76.7437 180.601 75.7223ZM183.677 75.3654V74.9593H183.16C182.385 74.9593 181.93 75.1316 181.93 75.6485C181.93 76.0053 182.139 76.2392 182.631 76.2392C183.222 76.2392 183.677 75.9192 183.677 75.3777V75.3654Z" fill="#333333"/>
<path d="M186.163 72.2031H187.504V73.126C187.812 72.4738 188.279 72.1292 189.079 72.1169V73.3722C188.083 73.3722 187.504 73.6921 187.504 74.6151V77.0516H186.163V72.1908V72.2031Z" fill="#333333"/>
<path d="M189.584 74.7009V74.627C189.584 73.0273 190.507 72.092 191.725 72.092C192.5 72.092 192.992 72.4366 193.263 72.9288V70H194.605V77.0636H193.263V76.2514C193.017 76.7437 192.414 77.1621 191.7 77.1621C190.519 77.1621 189.596 76.313 189.596 74.7009H189.584ZM193.288 74.6517V74.5778C193.288 73.6056 192.857 73.1134 192.131 73.1134C191.405 73.1134 190.962 73.6303 190.962 74.5901V74.664C190.962 75.6361 191.43 76.1038 192.094 76.1038C192.796 76.1038 193.288 75.6361 193.288 74.6393V74.6517Z" fill="#333333"/>
<path d="M195.503 74.6886V74.6148C195.503 73.0765 196.586 72.092 198.001 72.092C199.256 72.092 200.376 72.8304 200.376 74.5655V74.9347H196.869C196.906 75.7469 197.349 76.2022 198.075 76.2022C198.703 76.2022 198.998 75.9315 199.084 75.5254H200.352C200.192 76.5714 199.355 77.1621 198.026 77.1621C196.561 77.1621 195.491 76.2392 195.491 74.6886H195.503ZM199.059 74.0979C199.01 73.3596 198.641 73.015 198.001 73.015C197.398 73.015 196.992 73.4088 196.881 74.0979H199.059Z" fill="#333333"/>
<path d="M200.979 74.7009V74.627C200.979 73.0273 201.902 72.092 203.12 72.092C203.896 72.092 204.388 72.4366 204.659 72.9288V70H206V77.0636H204.659V76.2514C204.413 76.7437 203.81 77.1621 203.096 77.1621C201.915 77.1621 200.992 76.313 200.992 74.7009H200.979ZM204.683 74.6517V74.5778C204.683 73.6056 204.253 73.1134 203.527 73.1134C202.801 73.1134 202.358 73.6303 202.358 74.5901V74.664C202.358 75.6361 202.825 76.1038 203.49 76.1038C204.191 76.1038 204.683 75.6361 204.683 74.6393V74.6517Z" fill="#333333"/>
<path d="M220 70.4458H221.599V73.3427H224.444V70.4458H226.043V77.5242H224.444V74.6011H221.599V77.5242H220V70.4458Z" fill="#333333"/>
<path d="M227.065 76.0952C227.065 74.8892 228.18 74.4304 229.753 74.4304H230.342V74.2207C230.342 73.6046 230.159 73.2638 229.504 73.2638C228.94 73.2638 228.678 73.5522 228.625 73.9979H227.262C227.354 72.7657 228.324 72.2283 229.595 72.2283C230.867 72.2283 231.758 72.7395 231.758 74.1552V77.5371H230.369V76.9079C230.067 77.3274 229.622 77.642 228.809 77.642C227.865 77.642 227.079 77.1832 227.079 76.0952H227.065ZM230.342 75.7151V75.2825H229.792C228.966 75.2825 228.481 75.466 228.481 76.0165C228.481 76.3967 228.704 76.6457 229.228 76.6457C229.857 76.6457 230.342 76.3049 230.342 75.7282V75.7151Z" fill="#333333"/>
<path d="M232.99 72.3462H234.432V73.159C234.721 72.6608 235.324 72.2283 236.084 72.2283C237.356 72.2283 238.339 73.1721 238.339 74.8761V74.9548C238.339 76.672 237.369 77.6288 236.084 77.6288C235.284 77.6288 234.695 77.2356 234.432 76.7244V79.2805H232.99V72.3462ZM236.884 74.9679V74.8892C236.884 73.8406 236.372 73.3294 235.651 73.3294C234.93 73.3294 234.38 73.8537 234.38 74.8892V74.9679C234.38 76.0034 234.878 76.5147 235.651 76.5147C236.425 76.5147 236.884 75.9772 236.884 74.9679Z" fill="#333333"/>
<path d="M239.295 72.3462H240.737V73.159C241.025 72.6608 241.628 72.2283 242.389 72.2283C243.66 72.2283 244.643 73.1721 244.643 74.8761V74.9548C244.643 76.672 243.673 77.6288 242.389 77.6288C241.589 77.6288 240.999 77.2356 240.737 76.7244V79.2805H239.295V72.3462ZM243.188 74.9679V74.8892C243.188 73.8406 242.677 73.3294 241.956 73.3294C241.235 73.3294 240.685 73.8537 240.685 74.8892V74.9679C240.685 76.0034 241.183 76.5147 241.956 76.5147C242.73 76.5147 243.188 75.9772 243.188 74.9679Z" fill="#333333"/>
<path d="M247.029 76.9998L244.971 72.3464H246.518L247.776 75.4531L248.93 72.3464H250.306L247.501 79.2807H246.112L247.029 76.9867V76.9998Z" fill="#333333"/>
<path d="M253.046 74.0241V73.9455C253.046 71.7958 254.553 70.3276 256.559 70.3276C258.263 70.3276 259.534 71.1535 259.692 72.8968H258.053C257.935 72.0448 257.463 71.586 256.572 71.586C255.458 71.586 254.737 72.4512 254.737 73.9193V73.9979C254.737 75.466 255.405 76.3181 256.572 76.3181C257.45 76.3181 258.066 75.8724 258.197 74.9548H259.77C259.587 76.7113 258.328 77.6027 256.598 77.6027C254.278 77.6027 253.046 76.1739 253.046 73.9979V74.0241Z" fill="#333333"/>
<path d="M260.727 70H262.156V77.5241H260.727V70Z" fill="#333333"/>
<path d="M263.401 70.8654C263.401 70.4197 263.755 70.0789 264.214 70.0789C264.673 70.0789 265.04 70.4197 265.04 70.8654C265.04 71.311 264.686 71.6518 264.214 71.6518C263.742 71.6518 263.401 71.311 263.401 70.8654ZM263.506 72.3466H264.935V77.5243H263.506V72.3466Z" fill="#333333"/>
<path d="M265.931 74.9941V74.9155C265.931 73.2769 267.085 72.2283 268.592 72.2283C269.929 72.2283 271.122 73.0148 271.122 74.863V75.2563H267.386C267.426 76.1214 267.884 76.6064 268.671 76.6064C269.339 76.6064 269.667 76.318 269.746 75.8855H271.109C270.938 76.9997 270.047 77.6288 268.631 77.6288C267.072 77.6288 265.931 76.6457 265.931 74.9941ZM269.719 74.3649C269.667 73.5784 269.274 73.2114 268.592 73.2114C267.95 73.2114 267.517 73.6308 267.399 74.3649H269.719Z" fill="#333333"/>
<path d="M272.066 72.3462H273.508V73.1721C273.77 72.6608 274.334 72.2283 275.186 72.2283C276.208 72.2283 276.929 72.8444 276.929 74.2338V77.5371H275.487V74.4436C275.487 73.7357 275.212 73.408 274.583 73.408C273.953 73.408 273.508 73.7881 273.508 74.5484V77.5371H272.066V72.3594V72.3462Z" fill="#333333"/>
<path d="M278.384 75.9905V73.3688H277.715V72.3464H278.384V71.2322H279.813V72.3464H280.901V73.3688H279.813V75.8594C279.813 76.2788 280.022 76.4755 280.389 76.4755C280.612 76.4755 280.77 76.4492 280.94 76.3706V77.4848C280.743 77.5503 280.455 77.629 280.075 77.629C278.987 77.629 278.397 77.0784 278.397 75.9905H278.384Z" fill="#333333"/>
<path d="M281.57 75.8986H282.907C282.959 76.3574 283.195 76.6326 283.824 76.6326C284.375 76.6326 284.637 76.4229 284.637 76.069C284.637 75.7151 284.335 75.5709 283.588 75.4529C282.212 75.2432 281.674 74.8499 281.674 73.8406C281.674 72.7657 282.671 72.2283 283.719 72.2283C284.873 72.2283 285.725 72.6477 285.856 73.8275H284.545C284.466 73.3949 284.231 73.1983 283.732 73.1983C283.261 73.1983 282.998 73.4211 282.998 73.7357C282.998 74.0503 283.247 74.1945 283.995 74.2994C285.292 74.4829 286 74.8106 286 75.9248C286 77.039 285.187 77.6288 283.824 77.6288C282.461 77.6288 281.622 77.0128 281.57 75.8986Z" fill="#333333"/>
<path d="M60.015 154.969H61.7652C61.84 155.687 62.1542 156.285 63.3509 156.285C64.1587 156.285 64.6823 155.851 64.6823 155.208C64.6823 154.565 64.3382 154.34 63.1564 154.161C61.092 153.892 60.2393 153.263 60.2393 151.708C60.2393 150.331 61.3912 149.299 63.1714 149.299C64.9516 149.299 66.0586 150.107 66.1932 151.722H64.5177C64.3981 150.989 63.9792 150.645 63.1714 150.645C62.3636 150.645 61.9597 151.019 61.9597 151.558C61.9597 152.141 62.214 152.411 63.4556 152.59C65.4153 152.844 66.4176 153.368 66.4176 155.043C66.4176 156.48 65.2358 157.616 63.3359 157.616C61.122 157.616 60.1047 156.584 60 154.969H60.015Z" fill="#333333"/>
<path d="M67.2554 154.625V154.535C67.2554 152.665 68.5719 151.469 70.2922 151.469C71.818 151.469 73.1794 152.366 73.1794 154.475V154.924H68.9159C68.9608 155.911 69.4993 156.465 70.3819 156.465C71.1449 156.465 71.5039 156.136 71.6086 155.642H73.1494C72.955 156.914 71.9377 157.632 70.3221 157.632C68.5419 157.632 67.2405 156.51 67.2405 154.625H67.2554ZM71.5787 153.907C71.5189 153.009 71.0701 152.59 70.2922 152.59C69.5592 152.59 69.0655 153.069 68.9309 153.907H71.5787Z" fill="#333333"/>
<path d="M74.2563 151.588H75.8869V152.71C76.2609 151.917 76.8294 151.498 77.8017 151.483V153.009C76.59 153.009 75.8869 153.398 75.8869 154.52V157.482H74.2563V151.573V151.588Z" fill="#333333"/>
<path d="M78.3701 151.588H80.1204L81.5265 155.822L82.9327 151.588H84.5184L82.3643 157.497H80.5243L78.3701 151.588Z" fill="#333333"/>
<path d="M85.3262 149.898C85.3262 149.389 85.7301 149 86.2537 149C86.7772 149 87.1961 149.389 87.1961 149.898C87.1961 150.406 86.7922 150.795 86.2537 150.795C85.7151 150.795 85.3262 150.406 85.3262 149.898ZM85.4458 151.588H87.0764V157.497H85.4458V151.588Z" fill="#333333"/>
<path d="M88.2283 154.625V154.535C88.2283 152.62 89.5896 151.469 91.28 151.469C92.6413 151.469 93.9128 152.067 94.0624 153.757H92.5067C92.387 153.069 91.9831 152.755 91.3099 152.755C90.4572 152.755 89.9037 153.383 89.9037 154.52V154.61C89.9037 155.792 90.4423 156.405 91.3548 156.405C92.013 156.405 92.5366 156.016 92.6263 155.268H94.1073C94.0176 156.674 93.0003 157.647 91.28 157.647C89.5597 157.647 88.2432 156.57 88.2432 154.64L88.2283 154.625Z" fill="#333333"/>
<path d="M94.7657 154.625V154.535C94.7657 152.665 96.0821 151.469 97.8024 151.469C99.3283 151.469 100.69 152.366 100.69 154.475V154.924H96.4262C96.4711 155.911 97.0096 156.465 97.8922 156.465C98.6551 156.465 99.0142 156.136 99.1189 155.642H100.66C100.465 156.914 99.448 157.632 97.8324 157.632C96.0522 157.632 94.7507 156.51 94.7507 154.625H94.7657ZM99.089 153.907C99.0291 153.009 98.5803 152.59 97.8024 152.59C97.0694 152.59 96.5758 153.069 96.4411 153.907H99.089Z" fill="#333333"/>
<path d="M104.414 149.419H107.302C109.216 149.419 110.413 150.197 110.413 151.872V151.917C110.413 153.144 109.695 153.787 108.753 154.071L110.892 157.512H108.947L107.017 154.4H106.224V157.512H104.399V149.434L104.414 149.419ZM107.257 153.144C108.169 153.144 108.633 152.755 108.633 151.977V151.932C108.633 151.109 108.139 150.825 107.257 150.825H106.224V153.144H107.257Z" fill="#333333"/>
<path d="M111.43 155.867C111.43 154.49 112.702 153.967 114.497 153.967H115.17V153.727C115.17 153.024 114.961 152.635 114.213 152.635C113.569 152.635 113.27 152.965 113.21 153.473H111.655C111.759 152.067 112.866 151.454 114.317 151.454C115.768 151.454 116.786 152.037 116.786 153.653V157.512H115.2V156.794C114.856 157.273 114.347 157.632 113.42 157.632C112.343 157.632 111.445 157.108 111.445 155.867H111.43ZM115.17 155.433V154.939H114.542C113.599 154.939 113.046 155.149 113.046 155.777C113.046 156.211 113.3 156.495 113.898 156.495C114.617 156.495 115.17 156.106 115.17 155.448V155.433Z" fill="#333333"/>
<path d="M118.446 155.747V152.755H117.683V151.588H118.446V150.317H120.077V151.588H121.318V152.755H120.077V155.597C120.077 156.076 120.316 156.3 120.735 156.3C120.989 156.3 121.169 156.27 121.363 156.181V157.452C121.139 157.527 120.81 157.617 120.376 157.617C119.134 157.617 118.461 156.989 118.461 155.747H118.446Z" fill="#333333"/>
<path d="M122.38 149.898C122.38 149.389 122.784 149 123.308 149C123.831 149 124.25 149.389 124.25 149.898C124.25 150.406 123.846 150.795 123.308 150.795C122.769 150.795 122.38 150.406 122.38 149.898ZM122.5 151.588H124.131V157.497H122.5V151.588Z" fill="#333333"/>
<path d="M125.642 151.588H127.287V152.531C127.586 151.947 128.23 151.454 129.202 151.454C130.369 151.454 131.192 152.157 131.192 153.742V157.512H129.546V153.982C129.546 153.174 129.232 152.8 128.514 152.8C127.796 152.8 127.287 153.234 127.287 154.101V157.512H125.642V151.603V151.588Z" fill="#333333"/>
<path d="M132.284 157.632H133.914C134.019 158.155 134.393 158.484 135.231 158.484C136.218 158.484 136.727 157.961 136.727 157.033V156.136C136.398 156.704 135.695 157.228 134.827 157.228C133.391 157.228 132.254 156.151 132.254 154.4V154.326C132.254 152.635 133.376 151.438 134.857 151.438C135.814 151.438 136.398 151.857 136.727 152.456V151.573H138.357V157.018C138.357 158.769 137.176 159.666 135.246 159.666C133.316 159.666 132.463 158.828 132.314 157.602L132.284 157.632ZM136.757 154.4V154.326C136.757 153.323 136.218 152.71 135.336 152.71C134.453 152.71 133.914 153.368 133.914 154.341V154.43C133.914 155.418 134.498 156.016 135.306 156.016C136.158 156.016 136.757 155.403 136.757 154.4Z" fill="#333333"/>
<path d="M173.668 149.507H176.038L178.646 157.555H176.738L176.187 155.767H173.265L172.714 157.555H171L173.653 149.507H173.668ZM173.668 154.47H175.799L174.741 150.997L173.668 154.47Z" fill="#333333"/>
<path d="M178.497 151.668H180.241L181.642 155.886L183.043 151.668H184.622L182.476 157.555H180.643L178.497 151.668Z" fill="#333333"/>
<path d="M184.95 155.916C184.95 154.545 186.217 154.023 188.006 154.023H188.676V153.785C188.676 153.084 188.468 152.697 187.722 152.697C187.081 152.697 186.783 153.025 186.724 153.531H185.174C185.278 152.13 186.381 151.519 187.827 151.519C189.272 151.519 190.286 152.101 190.286 153.71V157.555H188.706V156.84C188.363 157.317 187.856 157.675 186.932 157.675C185.859 157.675 184.965 157.153 184.965 155.916H184.95ZM188.676 155.484V154.992H188.05C187.111 154.992 186.56 155.201 186.56 155.827C186.56 156.259 186.813 156.542 187.409 156.542C188.125 156.542 188.676 156.154 188.676 155.499V155.484Z" fill="#333333"/>
<path d="M191.612 149.984C191.612 149.477 192.015 149.09 192.536 149.09C193.058 149.09 193.475 149.477 193.475 149.984C193.475 150.491 193.073 150.878 192.536 150.878C192 150.878 191.612 150.491 191.612 149.984ZM191.732 151.668H193.356V157.555H191.732V151.668Z" fill="#333333"/>
<path d="M194.906 149H196.53V157.555H194.906V149Z" fill="#333333"/>
<path d="M199.646 156.616V157.555H198.021V149H199.646V152.592C199.974 152.026 200.659 151.534 201.524 151.534C202.969 151.534 204.087 152.607 204.087 154.544V154.634C204.087 156.586 202.984 157.674 201.524 157.674C200.615 157.674 199.944 157.227 199.646 156.616ZM202.433 154.649V154.559C202.433 153.367 201.852 152.786 201.032 152.786C200.212 152.786 199.586 153.382 199.586 154.559V154.649C199.586 155.826 200.153 156.407 201.032 156.407C201.911 156.407 202.433 155.796 202.433 154.649Z" fill="#333333"/>
<path d="M205.115 149.984C205.115 149.477 205.518 149.09 206.039 149.09C206.561 149.09 206.978 149.477 206.978 149.984C206.978 150.491 206.576 150.878 206.039 150.878C205.503 150.878 205.115 150.491 205.115 149.984ZM205.234 151.668H206.859V157.555H205.234V151.668Z" fill="#333333"/>
<path d="M208.409 149H210.034V157.555H208.409V149Z" fill="#333333"/>
<path d="M211.435 149.984C211.435 149.477 211.837 149.09 212.359 149.09C212.88 149.09 213.298 149.477 213.298 149.984C213.298 150.491 212.895 150.878 212.359 150.878C211.822 150.878 211.435 150.491 211.435 149.984ZM211.554 151.668H213.178V157.555H211.554V151.668Z" fill="#333333"/>
<path d="M214.922 155.812V152.831H214.162V151.668H214.922V150.401H216.547V151.668H217.784V152.831H216.547V155.663C216.547 156.139 216.785 156.363 217.203 156.363C217.456 156.363 217.635 156.333 217.829 156.244V157.511C217.605 157.585 217.277 157.675 216.845 157.675C215.608 157.675 214.937 157.049 214.937 155.812H214.922Z" fill="#333333"/>
<path d="M220.705 156.959L218.365 151.668H220.124L221.555 155.2L222.866 151.668H224.431L221.242 159.552H219.662L220.705 156.944V156.959Z" fill="#333333"/>
</svg>
