<?xml version="1.0" encoding="UTF-8"?><svg id="Layer_1" xmlns="http://www.w3.org/2000/svg" viewBox="0 0 384 324.19"><defs><style>.cls-1{fill:#dd848b;}</style></defs><path class="cls-1" d="M0,124.56c.23-.28,.55-.52,.66-.83,2.69-7.41,8.06-10.67,15.83-10.63,16.62,.08,33.24-.02,49.85,.07,2.5,.01,3.98-.5,5.16-3.05,5.73-12.42,14.01-22.97,24.26-32.02,1.16-1.03,2.15-2.78,2.34-4.3,2.32-19.21,23.59-29.64,40.26-19.79,1.83,1.08,4.43,1.66,6.52,1.37,43.77-6.07,83.95,15.18,103.38,54.94,1.02,2.1,2.16,3,4.52,2.86,3.24-.19,6.5-.13,9.74,0,3.35,.14,5.58,2.29,5.74,5.26,.16,3.03-2.17,5.54-5.58,5.88-1.36,.14-2.75,.05-4.12,.06-1.35,0-2.71,0-4.7,0,5.6,20.51,5.22,40.53-1.7,60.61h52.09v-60.62c-4.21,0-8.53,.07-12.84-.02-4.03-.08-6.3-2.01-6.49-5.28-.21-3.43,1.96-5.8,5.75-5.9,5.24-.13,10.49-.05,15.74-.05,19.37,0,38.74,.32,58.1-.14,9.35-.22,15.97,2.7,19.49,11.58v60.01c-3.16,8.88-9.54,12.1-18.81,12.04-38.12-.24-76.24-.07-114.37-.17-2.76,0-4.29,.76-5.46,3.26-1.31,2.8-3.12,5.37-5.46,9.27,1.06,.64,2.56,1.21,3.6,2.24,26.74,26.65,53.39,53.38,80.14,80.01,5.61,5.58,8.13,11.98,5.94,19.7-3.61,12.7-19.03,17.41-29.32,9.08-1.26-1.02-2.38-2.21-3.53-3.36-26.61-26.6-53.21-53.2-79.8-79.83-.96-.96-1.69-2.14-2.54-3.24-10.71,6.87-21.5,11.56-33.2,14.2-42.07,9.5-85.98-10.09-106.81-47.89-1.38-2.51-2.77-3.49-5.71-3.46-16.62,.17-33.25-.16-49.87,.18-9.27,.19-15.66-3.15-18.81-12.04v-60.01Zm151.5-45c6.31,.3,12.89-.11,19.18,1.02,29.54,5.33,49.87,22.27,58.46,51.02,8.66,28.98,.62,54.29-21.41,74.91-9.2,8.62-20.29,14.01-32.68,16.57-3.41,.71-6.25-1.03-6.97-4.04-.73-3.04,.99-5.74,4.36-6.79,.95-.3,1.94-.49,2.9-.74,31.63-8.17,51.32-40.49,44.3-72.71-6.85-31.43-38.39-52.69-69.94-46.98-2,.36-4.12,1.66-5.59,3.12-5.09,5.09-11.11,7.8-18.24,8.59-2.17,.24-4.61,1.14-6.24,2.55-28.24,24.34-27.93,68.64,.52,92.71,7.57,6.4,16.13,10.79,25.78,13.12,4.76,1.15,6.78,5.07,4.61,8.56-1.95,3.14-4.88,2.94-7.97,2.23-37.54-8.72-62.06-47.83-53.67-85.53,3.27-14.68,10.31-27.22,20.86-37.45-3.16-3.49-6.22-6.87-9.43-10.42-.86,.81-1.89,1.7-2.82,2.67-12.48,12.99-20.16,28.38-23.24,46.12-.7,4.01-3.26,5.95-6.72,5.33-3.32-.59-5.05-3.52-4.29-7.46,.73-3.75,1.57-7.48,2.35-11.18-.49-.18-.72-.34-.95-.34-16.37-.03-32.74-.06-49.11-.06-3.49,0-4.33,2.17-4.32,5.22,.04,16.75,0,33.5,.03,50.25,0,4.11,1.24,5.35,5.36,5.38,6.62,.05,13.25,.01,19.87,.01,10.22,0,20.45,0,30.73,0-1.38-5.84-2.8-11.38-3.97-16.97-.91-4.35,.72-7.22,4.14-7.9,3.64-.73,6.12,1.41,6.92,5.96,8.27,47.04,50.73,78.05,98.02,71.59,42.96-5.88,75.74-44.75,74.2-87.99-1.47-41.01-29.94-74.7-70.17-82.81-8.91-1.8-17.92-2.34-26.7-.8,.66,4.69,1.28,9.08,1.86,13.22Zm164.62,44.81v60.88c17.53,0,34.74,0,51.96,0,3.53,0,4.71-2,4.7-5.32-.06-16.73-.01-33.45-.04-50.18,0-4.38-1.04-5.36-5.65-5.37-13.6-.02-27.21,0-40.81,0-3.34,0-6.68,0-10.16,0Zm-73.48,122.01c.62,.72,1.14,1.4,1.74,2,20.38,20.4,40.76,40.79,61.16,61.16,.88,.88,1.79,1.8,2.86,2.39,3.08,1.68,6.1,1.34,8.58-1.15,2.49-2.49,2.81-5.53,1.13-8.58-.71-1.28-1.85-2.34-2.9-3.39-19.93-19.96-39.88-39.91-59.83-59.85-.87-.87-1.79-1.67-3.11-2.9-2.68,2.86-5.24,5.57-7.78,8.3-.59,.63-1.16,1.28-1.84,2.03ZM109.27,76.83c-.01,8.45,6.68,15.29,15.08,15.42,8.46,.13,15.57-6.87,15.59-15.36,.02-8.37-6.79-15.27-15.16-15.35-8.64-.09-15.49,6.67-15.51,15.3ZM243.91,228.72c-3.68-3.7-7.33-7.36-10.94-11-2.91,3.09-6.04,6.4-8.84,9.37,3.37,3.41,7.01,7.09,10.53,10.64,3.11-3.03,6.39-6.23,9.26-9.02Z"/><path class="cls-1" d="M109.72,24.27c-.08,13.49-10.9,24.1-24.44,23.94-13.28-.15-23.84-10.91-23.79-24.25C61.53,10.55,72.42-.11,85.96,0c13.25,.11,23.84,10.92,23.76,24.27Zm-11.25-.14c0-7.17-5.59-12.83-12.74-12.88-7.14-.04-12.9,5.58-12.99,12.66-.09,7.32,5.64,13.08,12.96,13.05,7.18-.03,12.76-5.64,12.77-12.83Z"/><path class="cls-1" d="M241.88,18.57c12.45,.04,22.26,9.99,22.17,22.48-.09,12.2-10.05,22.04-22.3,22.02-12.37-.02-22.25-10.07-22.15-22.53,.1-12.28,9.97-22.02,22.28-21.98Zm-11.03,22.09c-.06,6.08,4.7,11.03,10.72,11.15,6.17,.13,11.24-4.86,11.23-11.05-.01-6.04-4.87-10.92-10.93-10.94-6.08-.03-10.96,4.77-11.02,10.83Z"/><path class="cls-1" d="M283.53,84.45c3.18,4.67,10.02,7.85,4.44,13.21-5.24,5.04-8.39-1.42-12.06-4.14-3.84,2.74-7.07,9.42-12.4,3.88-5.19-5.39,1.59-8.32,4.12-12.08-2.49-3.84-9.36-6.55-3.84-12.59,2.63-2.87,5.14-1.83,12.07,4.45,1.48-1.41,2.92-2.91,4.49-4.26,2.55-2.18,5.58-2.18,7.78-.12,2.29,2.15,2.44,5.47,.05,8.04-1.34,1.44-3.13,2.45-4.65,3.61Z"/><path class="cls-1" d="M52.33,68.62c3.81-2.81,6.53-8.82,12.32-4.1,2.96,2.42,1.99,5.05-4.04,12.35,2.39,3.72,9.31,6.88,3.93,12.23-5.46,5.44-8.52-1.59-12.31-3.99-7.12,6.19-9.34,6.95-12.2,4.23-3.02-2.87-2.29-5.17,4.04-12.46-2.46-3.76-9.06-6.33-4.09-12.37,2.48-3.01,5-2.07,12.34,4.1Z"/><path class="cls-1" d="M158.04,157.21c6.24,.03,11.78,1.63,16.6,5.35,3.03,2.34,3.68,5.46,1.82,8.15-1.89,2.72-5.05,3.21-8.2,1.08-6.63-4.5-13.19-4.5-19.84-.04-3.11,2.09-6.37,1.53-8.19-1.18-1.72-2.56-1.1-5.68,1.67-7.89,4.78-3.81,10.31-5.4,16.14-5.47Z"/><path class="cls-1" d="M134.14,141.8c.11,3.03-2.59,5.82-5.63,5.81-2.97,0-5.46-2.45-5.56-5.45-.1-3.08,2.13-5.53,5.19-5.69,3.21-.17,5.89,2.21,6,5.33Z"/><path class="cls-1" d="M189.6,136.46c3.26-.06,5.71,2.36,5.67,5.6-.03,2.98-2.49,5.49-5.44,5.56-3.06,.06-5.73-2.62-5.69-5.71,.04-3.07,2.37-5.39,5.46-5.45Z"/><path class="cls-1" d="M362.21,151.68c-.08,8.89-8.06,15.9-16.78,14.24-3.04-.58-4.92,.1-6.71,2.33-.93,1.16-2.05,2.2-3.23,3.1-2.55,1.94-5.18,1.81-7.42-.44-2.12-2.12-2.67-5.17-.46-7.04,4.66-3.93,5.72-8.45,5.63-14.42-.11-7.31,7.62-13.07,15.01-12.57,7.96,.54,14.03,6.97,13.96,14.79Zm-9.94-.19c-2.16-1.53-3.63-3.33-4.67-3.11-1.33,.29-2.3,2.21-3.43,3.43,1.16,1.05,2.29,2.87,3.5,2.93,1.2,.06,2.49-1.66,4.59-3.25Z"/></svg>