<?xml version="1.0" encoding="UTF-8"?><svg id="Layer_1" xmlns="http://www.w3.org/2000/svg" viewBox="0 0 221.02 182"><defs><style>.cls-1{fill:#dd848b;}</style></defs><path class="cls-1" d="M188.91,170.96c2.13,.15,3.76,.24,5.39,.39,1.12,.11,2.26,.23,3.35,.5,1.91,.46,3.66,1.3,3.93,3.52,.27,2.23-.97,3.86-2.87,4.69-1.54,.68-3.31,1.15-4.99,1.18-44.16,.75-88.33,1.33-132.49-.21-11.16-.39-22.33-.87-33.48-1.52-2.9-.17-5.81-.91-8.62-1.71-5.34-1.53-8.7-5.21-9.6-10.65-.9-5.42-1.35-10.93-1.84-16.41-1.52-16.92-2.95-33.84-4.43-50.76-1.04-11.96-2.11-23.91-3.13-35.87-.76-8.84,1.8-16.74,7.27-23.61,1.39-1.74,3.55-2.96,5.54-4.1,1.01-.58,1.42-1.04,1.42-2.17,0-2.41-.13-4.88,.34-7.22,1.55-7.77,8.01-12.98,16.07-12.9,20.84,.22,41.67,.57,62.51,.86,26.57,.36,53.15,.7,79.72,1.08,8.52,.12,14.76,4.91,16.54,12.69,.38,1.67,.42,3.44,.44,5.17,.05,6.72,.05,13.44,0,20.16-.01,1.39,.36,1.95,1.82,2.17,7.37,1.11,12.25,7.41,11.52,14.84-2.48,25.31-5,50.62-7.51,75.93-.44,4.43-.87,8.86-1.29,13.3-.39,4.08-1.99,7.55-5.6,10.64Zm-84.88-2.69c25.52,0,51.05,0,76.57,0,4.68,0,8.28-3.07,8.73-7.49,1.24-12.32,2.43-24.64,3.64-36.96,1.46-14.87,2.92-29.75,4.39-44.62,.3-3.08,.64-6.16,.9-9.24,.39-4.68-3.57-8.44-9.09-8.47-9.74-.06-19.48-.02-29.22-.02-8.16,0-16.31-.03-24.47,.01-5.94,.03-10.89-2.06-14.8-6.56-1.98-2.28-4.11-4.44-5.98-6.81-4.2-5.33-9.59-7.53-16.38-7.49-26.2,.15-52.41,.06-78.61,.06-.91,0-1.81,0-2.72,.06-4.95,.37-8.25,4.31-7.79,9.24,.23,2.48,.47,4.96,.68,7.44,1.42,16.09,2.82,32.18,4.26,48.28,1.59,17.82,3.24,35.63,4.78,53.46,.55,6.31,3.39,9.11,9.66,9.11,25.15,0,50.29,0,75.44,0ZM19.51,35.89c1.1,0,1.99,0,2.89,0,25.74,0,51.48,.02,77.22-.01,6.98,0,12.78,2.5,17.44,7.67,2.07,2.3,4.15,4.59,6.15,6.96,3.38,4,7.58,5.92,12.88,5.88,15.4-.11,30.8-.04,46.2-.04h2.53c0-8.73,.09-17.17-.08-25.61-.03-1.54-.9-3.21-1.79-4.54-2.41-3.57-6.04-4.66-10.22-4.71-26.27-.31-52.53-.68-78.79-1.04-21.06-.29-42.11-.61-63.17-.89-6.04-.08-10.52,3.58-11.21,9.27-.27,2.22-.04,4.5-.04,7.07Z"/><path class="cls-1" d="M214.27,12.59c-.76,.84-1.27,1.7-2.02,2.19-5.04,3.29-10.15,6.5-15.21,9.76-1.39,.89-2.64,.74-3.53-.6-.91-1.37-.47-2.64,.85-3.5,5.25-3.4,10.49-6.8,15.82-10.07,.66-.4,1.9-.28,2.66,.06,.59,.26,.86,1.25,1.43,2.16Z"/><path class="cls-1" d="M201.09,35.89c-1.31,.05-2.94-.21-3.11-2.29-.17-1.99,1.13-2.73,2.98-2.85,5.49-.38,10.97-.85,16.45-1.22,2.16-.15,3.71,.91,3.59,2.46-.15,1.95-1.48,2.5-3.3,2.62-5.41,.34-10.82,.82-16.62,1.28Z"/><path class="cls-1" d="M184.13,14.95c.97-2.23,1.62-4.09,2.56-5.78,1.38-2.49,2.96-4.88,4.48-7.29,.95-1.5,2.54-2.45,3.99-1.51,1.64,1.05,.75,2.61-.12,4.12-2.03,3.49-3.83,7.12-5.61,10.74-.68,1.39-1.59,2.38-3.1,1.81-.88-.33-1.48-1.38-2.19-2.09Z"/><path class="cls-1" d="M101.16,125c13.93,.19,25.17,4.58,34.5,13.62,.8,.77,1.49,2.25,1.34,3.27-.32,2.2-2.9,2.53-4.78,.67-4.13-4.09-8.87-7.23-14.29-9.34-16.25-6.33-34.11-2.43-46.28,10.07-.78,.8-1.93,1.62-2.96,1.68-.76,.05-2.06-.99-2.27-1.77-.23-.87,.23-2.25,.88-2.96,7.36-7.99,16.44-12.87,27.17-14.6,2.52-.41,5.1-.5,6.69-.65Z"/><path class="cls-1" d="M56.06,98.37c-3.41,3.47-6.44,6.62-9.54,9.7-1.17,1.17-2.63,1.33-3.84,.14-1.2-1.18-1.04-2.59,.07-3.84,.4-.45,.84-.86,1.27-1.29,2.69-2.64,5.38-5.28,8.24-8.09-2.8-2.79-5.46-5.44-8.12-8.09-.48-.48-.99-.94-1.43-1.45-1.08-1.27-1.22-2.64,.02-3.83,1.26-1.21,2.63-.95,3.82,.21,2.48,2.43,4.93,4.88,7.36,7.37,.63,.64,1.11,1.43,1.76,2.27,3.71-3.72,7.04-7.11,10.42-10.44,1.8-1.77,4.24-1.49,4.64,.61,.19,1.01-.41,2.51-1.17,3.31-3.15,3.35-6.48,6.52-10.02,10.03,2.53,2.47,4.94,4.81,7.33,7.17,.48,.47,1.26,.98,1.29,1.51,.07,1.09,.09,2.49-.52,3.25-1,1.25-2.52,.86-3.61-.16-2.04-1.9-3.99-3.91-5.94-5.9-.68-.7-1.25-1.5-2.04-2.47Z"/><path class="cls-1" d="M141.6,86.92c2.43-2.51,4.64-4.77,6.84-7.06,1.3-1.35,2.7-2.04,4.33-.6,1.27,1.12,1.07,2.72-.52,4.32-2.24,2.25-4.53,4.44-7.03,6.88,2.74,2.71,5.34,5.28,7.95,7.86,.54,.53,1.09,1.05,1.59,1.61,1.1,1.25,1.28,2.64,.05,3.84-1.23,1.2-2.65,1.02-3.83-.14-2.7-2.64-5.35-5.33-8.02-8-.42-.42-.88-.82-1.46-1.36-2.8,2.82-5.56,5.6-8.31,8.39-1.19,1.2-2.51,1.74-4.01,.59-1.37-1.05-1.31-2.77,.21-4.31,2.75-2.8,5.55-5.54,8.45-8.42-3.08-3.08-6.05-6.08-9.05-9.04-1.21-1.2-1.75-2.5-.68-4.02,.97-1.39,2.82-1.35,4.31,.13,3,2.98,5.94,6.02,9.19,9.32Z"/></svg>