<?xml version="1.0" encoding="UTF-8"?><svg id="Layer_1" xmlns="http://www.w3.org/2000/svg" viewBox="0 0 637.8 580"><defs><style>.cls-1{fill:#e7e7e7;}.cls-2{fill:#747474;}.cls-3{fill:#ed1c25;}.cls-4{fill:#b3b3b3;}.cls-5{fill:#fefefe;}.cls-6{fill:#9b1829;}</style></defs><path class="cls-1" d="M625.9,185.11c1.63,1.57,1.71,3.82,2.24,5.77,2.77,10.16,4.99,20.47,6.45,30.9,1.12,8.03,2.01,16.11,2.49,24.23,.38,6.48,.51,12.97,.68,19.44,.2,7.83-.15,15.71-.89,23.5-.91,9.64-2.23,19.24-3.81,28.81-2.57,15.58-6.47,30.8-11.56,45.72-3.7,10.85-8.36,21.28-13.5,31.54-6.72,13.4-15.16,25.65-24.03,37.62-4.07,5.49-8.62,10.66-13.22,15.76-6.29,6.98-12.94,13.6-19.78,20.01-6.81,6.38-13.99,12.38-21.53,17.93-5.94,4.37-11.87,8.76-18.03,12.83-10,6.62-20.33,12.68-30.98,18.2-7.62,3.95-15.43,7.49-23.24,11.06-13.24,6.06-26.94,10.86-40.72,15.43-10.37,3.44-20.97,6.14-31.59,8.71-6.94,1.68-13.95,3.11-20.97,4.41-8.49,1.58-17,3.04-25.61,3.94-7.47,.78-14.92,1.79-22.38,2.63-2.39,.27-4.8,.15-7.22,.43-3.81,.44-7.68,.33-11.52,.56-8.99,.54-17.99,.56-26.98,.4-7.61-.13-15.24-.33-22.83-.94-10.26-.82-20.52-1.81-30.72-3.23-6.61-.92-13.2-2.12-19.79-3.28-14.33-2.54-28.42-6.08-42.41-9.94-10.95-3.02-21.72-6.69-32.35-10.73-8.18-3.11-16.18-6.62-24-10.5-13.93-6.91-27.13-14.98-39.24-24.8-6.06-4.92-11.78-10.18-17.09-15.87-5.19-5.56-9.85-11.57-14.18-17.86-4.72-6.85-8.69-14.07-12.24-21.55-2.93-6.18-5.39-12.54-7.41-19.1-2.31-7.5-4.24-15.07-5.53-22.8-1.05-6.3-1.97-12.63-2.02-19.05-.02-2.71-.46-5.42-.39-8.12,.32-12.96,1.56-25.82,4.57-38.47,2.44-10.28,5.68-20.3,10.19-29.84,5.09-10.78,11.26-20.9,18.66-30.34,7.07-9.02,14.97-17.2,23.13-25.17,5.67-5.53,11.92-10.4,18.28-15.11,10.2-7.56,20.94-14.29,32.3-19.95,5.79-2.89,11.61-5.82,17.85-7.7,.1,.2,.25,.39,.29,.6,4.88,29.37,15.01,56.98,28.02,83.61,14.71,30.1,32.99,57.96,53.59,84.33,6.47,8.28,13.03,16.5,20.13,24.27-.55,1.05-1.67,.94-2.57,1.19-7.44,2.02-14.82,4.25-21.88,7.41-2.16,.9-4.36,1.71-6.48,2.7-11.96,5.61-22.99,12.54-31.75,22.65-14.89,17.21-15.19,38.5-.76,56.1,7.43,9.06,16.84,15.63,27.16,20.93,24.83,12.74,51.58,18.04,79.13,19.98,16.5,1.16,32.99,.77,49.43-1.21,21.54-2.59,42.48-7.45,62.16-16.89,11.7-5.61,22.43-12.6,30.85-22.71,14.08-16.91,14.3-37.83,.37-54.88-10.4-12.73-24.17-20.63-39.18-26.65-7.89-3.42-16.04-6.02-24.41-7.97-.17-.92,.61-1.33,1.08-1.87,16.75-19.46,32.34-39.8,46.29-61.36,20.27-31.33,36.97-64.37,47.48-100.32,2.86-9.8,5.28-19.71,6.79-29.82,.68-.04,1.36-.11,2.04-.11,13.7,0,27.4,.04,41.09-.05,2.04-.01,2.52,.61,2.51,2.57-.08,14.08-.05,28.15-.04,42.23,0,2.24-.42,4.67,2.07,6.05,2.53,1.41,4.3-.36,6.15-1.61,23.34-15.85,46.69-31.7,69.99-47.6,1.64-1.12,3.25-1.62,5.23-1.67,12.67-.34,23.96-4.54,33.94-12.33,4.76-3.71,8.55-8.3,12.21-13.03Zm-70.68,189.06c7.16,0,12.64-5.41,12.68-12.54,.04-6.86-5.61-12.5-12.54-12.5-7.26,0-12.82,5.48-12.86,12.67-.03,6.7,5.79,12.37,12.72,12.37Z"/><path class="cls-3" d="M226.99,403.39c-7.09-7.77-13.66-15.98-20.13-24.27-20.6-26.37-38.88-54.23-53.59-84.33-13.01-26.63-23.14-54.25-28.02-83.61-.03-.21-.19-.4-.29-.6-.07-.61-.14-1.22-.21-1.83,.13-.5,.13-.98-.26-1.39-.75-7.37-1.71-14.73-1.78-22.16-.24-28.12,4.51-55.22,17.56-80.36,24.46-47.12,62.67-76.83,114.6-87.98,33.95-7.29,67.13-3.48,99.06,10.35-.02,1.02-.48,1.87-.95,2.74-4.31,7.95-6.81,16.39-6.85,25.49-.03,6.12-.02,12.25-.02,18.37,0,.98,.07,1.97-.42,2.88-.75-.37-1.5-.72-2.24-1.1-28.88-15.21-59.07-18.24-90.2-8.73-73.73,22.54-105.42,110.25-63.49,175.03,26.9,41.56,77.38,62.29,124.83,50.31,43.65-11.02,72.16-38.65,85.76-81.6,8.54-.01,17.08-.05,25.62-.04,8.24,0,16.48,.07,24.71,.1-1.51,10.11-3.92,20.02-6.79,29.82-10.51,35.95-27.21,68.99-47.48,100.32-13.95,21.57-29.53,41.91-46.29,61.36-.47,.54-1.24,.95-1.08,1.87-.69,.03-.98,.58-1.39,1.03-4.69,5.16-9.41,10.31-14.12,15.46-.13,.19-.23,.39-.38,.56-13.98,15.11-28.68,29.49-43.75,43.51-1.35,1.25-2.06,.78-3.15-.23-14.74-13.6-28.99-27.68-42.7-42.32-.56-.6-1.02-1.33-1.86-1.62-1.38-2.46-3.58-4.21-5.36-6.34-3.04-3.64-6.24-7.15-9.37-10.71Z"/><path class="cls-4" d="M490.31,44.24c15.52,0,31.05,.12,46.57-.03,15.09-.15,28.52,4.48,39.99,14.08,11.38,9.53,18.59,21.74,21.08,36.55,2.2,13.09,.61,25.71-5.37,37.51-8.86,17.49-23.02,28.47-42.21,32.79-4.36,.98-8.81,1.35-13.28,1.35-31.8,0-63.61,.19-95.41-.11-14.21-.14-26.86-5.24-37.75-14.52-11.34-9.67-18.36-21.9-20.68-36.51-2.83-17.82,1.28-34.11,12.65-48.3,8.98-11.21,20.58-18.3,34.57-21.5,4.52-1.04,9.1-1.33,13.73-1.32,15.37,.04,30.74,.02,46.11,.02Zm-46.53,8.21c-29.23-.41-52.82,23.62-53.18,52.2-.37,28.61,22.74,53.51,52.76,53.64,29.19,.12,53.01-23.56,53.21-52.52,.2-29.29-23.69-53.52-52.79-53.32Zm65.93,52.88c0,7.3,5.37,12.93,12.35,12.97,6.67,.04,12.26-5.82,12.27-12.84,0-7.45-5.22-13-12.24-13-7.04,0-12.39,5.55-12.38,12.86Zm28.31-.03c0,3.56,.05,7.11-.02,10.67-.03,1.4,.3,2.18,1.88,1.99,1.44-.17,3.42,.68,3.41-1.98-.01-2.27,.05-4.54-.01-6.81-.04-1.29,.47-1.74,1.73-1.7,2.27,.06,4.54-.01,6.81,.03,1.03,.02,1.45-.32,1.54-1.42,.15-1.94-.29-3.05-2.55-2.69-.96,.15-1.96,.03-2.95,.03-4.81,0-4.77,0-4.59-4.72,.05-1.26,.44-1.74,1.72-1.71,2.8,.06,5.6-.08,8.4,.06,1.83,.09,1.9-.88,1.87-2.24-.03-1.26,.13-2.36-1.79-2.31-4.46,.12-8.93,.09-13.39,.01-1.63-.03-2.1,.62-2.07,2.15,.07,3.55,.02,7.11,.03,10.67Zm29.37-12.79c-2.34,0-4.69,.04-7.03-.02-1.17-.03-1.6,.41-1.59,1.58,.03,7.41,.05,14.82,0,22.23-.02,2.25,1.54,1.54,2.67,1.62,1.22,.09,2.46,.26,2.36-1.71-.12-2.34,.02-4.69-.05-7.03-.04-1.27,.4-1.77,1.69-1.73,2.27,.07,4.54,0,6.8,.02,1,.01,1.49-.26,1.57-1.39,.14-1.9-.21-3.08-2.52-2.72-1.03,.16-2.11,.03-3.17,.03-4.48,0-4.4,0-4.4-4.45,0-1.66,.61-2.05,2.13-1.99,2.79,.1,5.59,0,8.39,.04,1.07,.01,2-.34,1.65-1.5-.32-1.06,.67-3.04-1.71-3-2.27,.03-4.54,0-6.81,.01Z"/><path class="cls-2" d="M450.7,210.66c-8.24-.04-16.48-.09-24.71-.1-8.54-.01-17.08,.02-25.62,.04-.97-.13-1.94-.3-2.92-.39-12.71-1.24-23.79-6.23-33.09-14.92-12.32-11.49-18.4-25.81-18.43-42.64-.05-24.28-.01-48.55-.02-72.83,0-1.05-.13-2.1-.2-3.15,.5-.91,.42-1.9,.42-2.88,0-6.12,0-12.25,.02-18.37,.04-9.09,2.54-17.54,6.85-25.49,.47-.87,.93-1.72,.95-2.74,.78-.13,1.05-.8,1.43-1.35C367.07,8.91,383.24,.33,403.8,.06c7.72-.1,15.45-.05,23.17,0,3.96,.02,5.67,1.32,5.61,4.02-.06,2.69-1.79,3.83-5.78,3.83-8.03,0-16.05-.03-24.08,.01-24.63,.12-45.45,18.64-48.52,43.08-.27,2.11-.38,4.22-.38,6.34,0,31.88-.07,63.76,.01,95.64,.07,24.13,15.78,43.48,39.34,48.73,3.79,.84,7.65,1.08,11.51,1.08,55.81,.02,111.62-.03,167.43,.06,10.12,.02,20.01-.76,29.02-5.82,16.47-9.26,25.95-23.31,26.22-42.26,.47-32.86,.33-65.73,.07-98.59-.2-24.68-19.1-45.07-43.68-47.92-2.19-.25-4.37-.33-6.57-.33-34.45,0-68.91,0-103.36,0-3.89,0-5.73-1.25-5.77-3.9-.04-2.64,1.85-3.96,5.71-3.96,34.3,0,68.61-.03,102.91,0,28.4,.03,51.21,17.97,57.34,45.02,.96,4.23,1.26,8.52,1.26,12.85-.02,28.78-.29,57.55,.11,86.32,.2,14.55-1.38,28.38-9.46,40.87-3.66,4.73-7.45,9.32-12.21,13.03-9.99,7.79-21.28,11.99-33.94,12.33-1.98,.05-3.59,.56-5.23,1.67-23.31,15.9-46.65,31.75-69.99,47.6-1.84,1.25-3.61,3.02-6.15,1.61-2.48-1.38-2.06-3.81-2.07-6.05-.01-14.08-.04-28.15,.04-42.23,.01-1.96-.47-2.58-2.51-2.57-13.7,.09-27.4,.05-41.09,.05-.68,0-1.36,.07-2.04,.11Zm111.56,.42l-.18-.47c-.37-.03-.73-.08-1.1-.08-18.24,0-36.48,.02-54.72-.04-1.8,0-2.11,.69-2.1,2.28,.05,11.66,.02,23.31,.04,34.97,0,.73-.37,1.74,.31,2.12,.83,.47,1.48-.5,2.12-.94,13.45-9.13,26.87-18.29,40.3-27.44,5.1-3.48,10.22-6.93,15.33-10.39Z"/><path class="cls-1" d="M58.8,579.98c-8.77,.51-15.01-7.29-15.19-14.96-.18-8.01,7.17-15.4,15.77-15.19,7.55,.18,14.63,7.18,14.69,15.07,.06,8.45-7.38,15.58-15.27,15.08Z"/><path class="cls-3" d="M63.73,113.75c.04,5.45-4.28,9.86-9.72,9.93-5.41,.07-9.9-4.3-9.96-9.69-.06-5.52,4.38-10.07,9.84-10.07,5.39,0,9.8,4.41,9.84,9.83Z"/><path class="cls-1" d="M124.5,207.36c.39,.41,.39,.89,.26,1.39-.42-.4-.35-.89-.26-1.39Z"/><path class="cls-3" d="M373.48,412.01c15.01,6.02,28.78,13.92,39.18,26.65,13.93,17.04,13.71,37.97-.37,54.88-8.42,10.11-19.15,17.1-30.85,22.71-19.67,9.44-40.61,14.29-62.16,16.89-16.44,1.98-32.93,2.37-49.43,1.21-27.55-1.94-54.3-7.24-79.13-19.98-10.32-5.3-19.72-11.86-27.16-20.93-14.43-17.6-14.14-38.89,.76-56.1,8.75-10.11,19.78-17.04,31.75-22.65,2.12-.99,4.32-1.81,6.48-2.7,2.1,3.21,5.03,5.74,7.33,8.78,1.76,2.32,4.19,4.1,5.48,6.8-.39,.21-.77,.47-1.19,.62-6.77,2.47-13.29,5.49-19.48,9.19-7.27,4.34-13.94,9.42-18.57,16.7-4.85,7.62-5,15.37-.26,23.11,4.09,6.68,9.97,11.52,16.48,15.66,13.46,8.56,28.32,13.63,43.75,17.1,23.36,5.24,47.01,6.55,70.87,4.79,20.28-1.49,40.05-5.23,58.96-12.88,10.73-4.34,20.86-9.75,29.06-18.16,4.47-4.59,7.95-9.81,8.44-16.42,.54-7.32-2.85-13.17-7.56-18.35-5.57-6.13-12.41-10.57-19.69-14.4-5.02-2.64-10.32-4.67-15.5-6.96,.01-1.12,.9-1.67,1.53-2.41,3.77-4.38,7.53-8.77,11.29-13.15Z"/><path class="cls-6" d="M215.36,427.56c-1.29-2.7-3.72-4.48-5.48-6.8-2.3-3.04-5.23-5.56-7.33-8.78,7.06-3.16,14.43-5.38,21.88-7.41,.9-.24,2.02-.14,2.57-1.19,3.13,3.57,6.33,7.08,9.37,10.72,1.77,2.12,3.98,3.88,5.36,6.34-1.76,.41-3.51,.84-5.28,1.22-7.16,1.51-14.09,3.82-21.09,5.9Z"/><path class="cls-6" d="M373.48,412.01c-3.76,4.39-7.52,8.77-11.29,13.15-.63,.73-1.52,1.29-1.53,2.41-1.01-.28-2.04-.53-3.04-.86-7.89-2.55-15.84-4.87-24.05-6.18,4.71-5.15,9.42-10.3,14.12-15.46,.41-.45,.69-1,1.39-1.03,8.37,1.95,16.52,4.55,24.41,7.97Z"/><path class="cls-4" d="M555.22,374.18c-6.93,0-12.75-5.67-12.72-12.37,.04-7.18,5.6-12.67,12.86-12.67,6.93,0,12.58,5.64,12.54,12.5-.04,7.13-5.52,12.54-12.68,12.54Z"/><path class="cls-5" d="M345.7,76.68c.07,1.05,.2,2.1,.2,3.15,.01,24.28-.03,48.55,.02,72.83,.04,16.83,6.11,31.14,18.43,42.64,9.31,8.68,20.38,13.67,33.09,14.92,.98,.1,1.95,.26,2.92,.39-13.6,42.95-42.11,70.58-85.76,81.6-47.45,11.98-97.93-8.76-124.83-50.31-41.94-64.78-10.24-152.49,63.49-175.03,31.13-9.52,61.32-6.48,90.2,8.73,.74,.39,1.49,.74,2.24,1.1Z"/><path class="cls-1" d="M333.57,420.53c8.21,1.31,16.16,3.63,24.05,6.18,1,.32,2.03,.57,3.04,.86,5.18,2.29,10.47,4.32,15.5,6.96,7.28,3.83,14.12,8.26,19.69,14.4,4.72,5.19,8.11,11.03,7.56,18.35-.49,6.61-3.97,11.83-8.44,16.42-8.2,8.41-18.33,13.81-29.06,18.16-18.91,7.65-38.68,11.39-58.96,12.88-23.86,1.76-47.51,.45-70.87-4.79-15.43-3.46-30.29-8.54-43.75-17.1-6.51-4.14-12.38-8.99-16.48-15.66-4.74-7.74-4.59-15.49,.26-23.11,4.63-7.28,11.29-12.36,18.57-16.7,6.19-3.69,12.7-6.72,19.48-9.19,.42-.15,.79-.41,1.19-.62,7-2.08,13.93-4.39,21.09-5.9,1.77-.37,3.52-.81,5.28-1.22,.84,.28,1.3,1.02,1.86,1.62,13.71,14.64,27.96,28.72,42.7,42.32,1.09,1.01,1.8,1.48,3.15,.23,15.07-14.02,29.77-28.4,43.75-43.51,.15-.16,.25-.37,.38-.56Z"/><path class="cls-5" d="M443.77,52.44c29.1-.19,52.99,24.03,52.79,53.32-.2,28.96-24.02,52.64-53.21,52.52-30.02-.13-53.13-25.03-52.76-53.64,.37-28.58,23.95-52.62,53.18-52.2Z"/><path class="cls-5" d="M509.7,105.32c0-7.31,5.34-12.86,12.38-12.86,7.02,0,12.24,5.55,12.24,13,0,7.02-5.6,12.88-12.27,12.84-6.98-.04-12.34-5.68-12.35-12.97Zm19.62,.12c0-3.38-1.35-6.15-3.7-7.56-3.4-2.03-7.63-.93-9.61,2.49-2.47,4.27-1.34,10.2,2.34,12.31,5.33,3.05,10.97-.66,10.98-7.24Z"/><path class="cls-5" d="M538.01,105.29c0-3.56,.05-7.11-.02-10.67-.03-1.53,.44-2.18,2.07-2.15,4.46,.08,8.93,.11,13.39-.01,1.92-.05,1.76,1.05,1.79,2.31,.04,1.36-.04,2.33-1.87,2.24-2.79-.13-5.6,0-8.4-.06-1.28-.03-1.67,.45-1.72,1.71-.18,4.72-.23,4.72,4.59,4.72,.98,0,1.99,.13,2.95-.03,2.26-.36,2.7,.75,2.55,2.69-.09,1.09-.51,1.44-1.54,1.42-2.27-.04-4.54,.04-6.81-.03-1.26-.03-1.77,.41-1.73,1.7,.07,2.27,0,4.54,.01,6.81,.01,2.66-1.97,1.81-3.41,1.98-1.58,.19-1.91-.58-1.88-1.99,.07-3.55,.02-7.11,.02-10.67Z"/><path class="cls-5" d="M567.38,92.5c2.27,0,4.54,.02,6.81,0,2.37-.04,1.38,1.94,1.71,3,.35,1.15-.58,1.51-1.65,1.5-2.8-.03-5.6,.06-8.39-.04-1.52-.05-2.13,.33-2.13,1.99,0,4.44-.07,4.44,4.4,4.45,1.06,0,2.14,.14,3.17-.03,2.3-.36,2.65,.82,2.52,2.72-.08,1.12-.57,1.4-1.57,1.39-2.27-.03-4.54,.04-6.8-.02-1.29-.04-1.73,.46-1.69,1.73,.07,2.34-.08,4.69,.05,7.03,.1,1.96-1.14,1.8-2.36,1.71-1.13-.08-2.69,.63-2.67-1.62,.06-7.41,.04-14.82,0-22.23,0-1.17,.42-1.61,1.59-1.58,2.34,.06,4.69,.02,7.03,.02Z"/><path class="cls-4" d="M562.27,211.08c-5.11,3.46-10.23,6.92-15.33,10.39-13.43,9.15-26.85,18.31-40.3,27.44-.64,.44-1.29,1.41-2.12,.94-.68-.38-.31-1.39-.31-2.12-.02-11.66,.01-23.31-.04-34.97,0-1.59,.3-2.28,2.1-2.28,18.24,.06,36.48,.04,54.72,.04,.37,0,.73,.05,1.1,.08l.18,.47Z"/><path class="cls-4" d="M529.32,105.45c-.01,6.57-5.64,10.29-10.98,7.24-3.68-2.11-4.81-8.04-2.34-12.31,1.98-3.43,6.22-4.52,9.61-2.49,2.35,1.4,3.71,4.18,3.7,7.56Z"/></svg>