<svg width="245" height="40" viewBox="0 0 245 40" fill="none" xmlns="http://www.w3.org/2000/svg">
<path d="M87.7402 0C87.9002 0 88.0402 0 88.1802 0C94.7602 0 101.34 0 107.91 0C108.27 0 108.45 0.09 108.63 0.42C110.22 3.27 111.84 6.11 113.46 8.95C116.91 15.01 120.37 21.07 123.83 27.14C125.97 30.89 128.1 34.65 130.23 38.4C130.43 38.76 130.65 39.11 130.89 39.52C130.7 39.52 130.58 39.54 130.47 39.54C127.09 39.54 123.7 39.54 120.32 39.54C119.99 39.54 119.81 39.43 119.65 39.15C117.07 34.6 114.49 30.06 111.9 25.52C110.25 22.62 108.58 19.73 106.93 16.83C104.4 12.39 101.88 7.95 99.3502 3.5C98.8002 2.53 98.2502 1.55 97.7002 0.57C97.6702 0.52 97.6302 0.47 97.5402 0.35V39.51H87.7202V0H87.7402Z" fill="black"/>
<path d="M60.9301 0V39.51H51.1301V1.15C51.1301 1.15 51.0701 1.15 51.0401 1.14C47.6701 13.92 44.3001 26.69 40.9201 39.51H31.0601C31.0901 39.34 31.1001 39.2 31.1401 39.06C32.3801 34.35 33.6201 29.64 34.8601 24.93C35.8001 21.38 36.7301 17.83 37.6701 14.28C38.6001 10.74 39.5301 7.2 40.4701 3.66C40.7601 2.58 41.0501 1.5 41.3301 0.41C41.3901 0.14 41.4901 0 41.8101 0C48.0801 0.01 54.3601 0 60.6301 0H60.9301Z" fill="black"/>
<path d="M79.82 39.52H69.75V0.0400391H79.82V39.52Z" fill="black"/>
<path d="M10.05 0.0200098H19.93C23.4 13.17 26.88 26.33 30.36 39.53H29.94C26.92 39.53 23.9 39.53 20.88 39.53C20.56 39.53 20.43 39.43 20.35 39.13C19.63 36.36 18.9 33.58 18.17 30.81C17.27 27.41 16.37 24 15.47 20.6C14.35 16.38 13.23 12.15 12.11 7.93001C11.49 5.59001 10.89 3.24001 10.28 0.89001C10.21 0.61001 10.13 0.33001 10.04 0.0100098L10.05 0.0200098Z" fill="black"/>
<path d="M9.79 39.52H0V0.0400391H9.79V39.52Z" fill="black"/>
<path d="M158.33 0.699951V10.31H157.16V2.64995L153.66 7.75995H153.34L149.82 2.64995V10.31H148.66V0.699951H149.9L153.49 6.10995L157.08 0.699951H158.32H158.33Z" fill="black"/>
<path d="M160.75 0.699951H161.95V10.31H160.75V0.699951Z" fill="black"/>
<path d="M171.06 10.31L168.05 6.32995H165.57V10.31H164.37V0.699951H168.39C170.31 0.699951 171.68 1.80995 171.68 3.53995C171.68 4.85995 170.73 5.83995 169.38 6.19995L172.54 10.31H171.07H171.06ZM165.57 5.26995H168.4C169.58 5.26995 170.43 4.60995 170.43 3.54995C170.43 2.38995 169.57 1.76995 168.39 1.76995H165.57V5.26995Z" fill="black"/>
<path d="M180.46 10.31L177.45 6.32995H174.98V10.31H173.78V0.699951H177.8C179.72 0.699951 181.09 1.80995 181.09 3.53995C181.09 4.85995 180.14 5.83995 178.79 6.19995L181.95 10.31H180.48H180.46ZM174.97 5.26995H177.8C178.98 5.26995 179.83 4.60995 179.83 3.54995C179.83 2.38995 178.97 1.76995 177.79 1.76995H174.97V5.26995Z" fill="black"/>
<path d="M182.64 5.51001C182.64 2.61001 184.71 0.51001 187.56 0.51001C190.41 0.51001 192.48 2.62001 192.48 5.51001C192.48 8.40001 190.41 10.51 187.56 10.51C184.71 10.51 182.64 8.40001 182.64 5.51001ZM191.23 5.51001C191.23 3.23001 189.69 1.59001 187.56 1.59001C185.43 1.59001 183.89 3.24001 183.89 5.51001C183.89 7.78001 185.43 9.43001 187.56 9.43001C189.69 9.43001 191.23 7.78001 191.23 5.51001Z" fill="black"/>
<path d="M201.13 10.31L198.12 6.32995H195.64V10.31H194.44V0.699951H198.46C200.38 0.699951 201.75 1.80995 201.75 3.53995C201.75 4.85995 200.8 5.83995 199.45 6.19995L202.61 10.31H201.14H201.13ZM195.64 5.26995H198.47C199.65 5.26995 200.5 4.60995 200.5 3.54995C200.5 2.38995 199.64 1.76995 198.46 1.76995H195.64V5.26995Z" fill="black"/>
<path d="M203.56 9.51002L203.98 8.47002C204.88 9.02002 206.03 9.43002 207.1 9.43002C208.42 9.43002 209.52 8.92002 209.52 7.67002C209.52 6.63002 208.37 6.31002 206.91 5.91002C205.54 5.51002 203.71 5.09002 203.71 3.15002C203.71 1.49002 204.99 0.52002 207.29 0.52002C208.2 0.52002 209.26 0.78002 210.27 1.31002L209.91 2.39002C209.05 1.89002 207.99 1.60002 207.2 1.60002C205.78 1.60002 204.96 2.19002 204.96 3.13002C204.96 4.14002 206.11 4.49002 207.38 4.85002C208.97 5.30002 210.76 5.73002 210.76 7.71002C210.76 9.57002 209.06 10.53 207.06 10.53C205.76 10.53 204.65 10.14 203.55 9.53002L203.56 9.51002Z" fill="black"/>
<path d="M148.66 14.97H149.86V24.58H148.66V14.97Z" fill="black"/>
<path d="M160.41 14.97V24.58H159.28L153.49 16.83V24.58H152.29V14.97H153.44L159.22 22.71V14.97H160.42H160.41Z" fill="black"/>
<path d="M162.54 23.77L162.96 22.73C163.86 23.28 165.01 23.69 166.08 23.69C167.4 23.69 168.5 23.18 168.5 21.93C168.5 20.89 167.35 20.57 165.89 20.17C164.52 19.77 162.69 19.35 162.69 17.41C162.69 15.75 163.97 14.78 166.27 14.78C167.18 14.78 168.24 15.04 169.25 15.57L168.89 16.65C168.03 16.15 166.97 15.86 166.18 15.86C164.76 15.86 163.94 16.45 163.94 17.39C163.94 18.4 165.09 18.75 166.36 19.11C167.95 19.56 169.74 19.99 169.74 21.97C169.74 23.83 168.04 24.79 166.04 24.79C164.74 24.79 163.63 24.4 162.53 23.79L162.54 23.77Z" fill="black"/>
<path d="M179.38 16.03H175.93V24.57H174.73V16.03H171.27V14.96H179.38V16.03Z" fill="black"/>
<path d="M181.24 14.97H182.44V24.58H181.24V14.97Z" fill="black"/>
<path d="M192.38 16.03H188.93V24.57H187.73V16.03H184.27V14.96H192.38V16.03Z" fill="black"/>
<path d="M194.24 20.94V14.96H195.44V20.94C195.44 22.78 196.43 23.69 198.11 23.69C199.89 23.69 200.89 22.78 200.89 20.94V14.96H202.09V20.94C202.09 23.4 200.64 24.77 198.11 24.77C195.58 24.77 194.24 23.4 194.24 20.94Z" fill="black"/>
<path d="M212.02 16.03H208.57V24.57H207.37V16.03H203.91V14.96H212.02V16.03Z" fill="black"/>
<path d="M215.08 16.03V19.29H220.15V20.36H215.08V23.51H220.7V24.58H213.88V14.97H220.7V16.04H215.08V16.03Z" fill="black"/>
<path d="M225.88 19.77C225.88 16.87 227.95 14.77 230.8 14.77C233.65 14.77 235.72 16.88 235.72 19.77C235.72 22.66 233.65 24.77 230.8 24.77C227.95 24.77 225.88 22.66 225.88 19.77ZM234.47 19.77C234.47 17.49 232.93 15.85 230.8 15.85C228.67 15.85 227.13 17.5 227.13 19.77C227.13 22.04 228.67 23.69 230.8 23.69C232.93 23.69 234.47 22.04 234.47 19.77Z" fill="black"/>
<path d="M237.69 14.97H244.4V16.04H238.88V19.44H243.88V20.51H238.88V24.59H237.68V14.98L237.69 14.97Z" fill="black"/>
<path d="M151.85 29.23H153.13L157.22 38.84H155.93L154.97 36.54H149.99L149.04 38.84H147.76L151.84 29.23H151.85ZM154.54 35.47L152.49 30.55L150.45 35.47H154.54Z" fill="black"/>
<path d="M160.03 30.3V33.56H165.1V34.63H160.03V37.78H165.65V38.85H158.83V29.24H165.65V30.31H160.03V30.3Z" fill="black"/>
<path d="M167.52 38.0401L167.94 37C168.84 37.55 169.99 37.96 171.06 37.96C172.38 37.96 173.48 37.4501 173.48 36.2001C173.48 35.1601 172.33 34.84 170.87 34.44C169.5 34.04 167.67 33.62 167.67 31.68C167.67 30.02 168.95 29.05 171.25 29.05C172.16 29.05 173.22 29.31 174.23 29.84L173.87 30.92C173.01 30.42 171.95 30.13 171.16 30.13C169.74 30.13 168.92 30.72 168.92 31.66C168.92 32.67 170.07 33.0201 171.34 33.3801C172.93 33.8301 174.72 34.2601 174.72 36.2401C174.72 38.1001 173.02 39.0601 171.02 39.0601C169.72 39.0601 168.61 38.6701 167.51 38.0601L167.52 38.0401Z" fill="black"/>
<path d="M184.36 30.3H180.91V38.84H179.71V30.3H176.25V29.23H184.36V30.3Z" fill="black"/>
<path d="M186.22 29.23H187.42V33.6H192.92V29.23H194.12V38.84H192.91V34.69H187.42V38.84H186.22V29.23Z" fill="black"/>
<path d="M197.74 30.3V33.56H202.81V34.63H197.74V37.78H203.36V38.85H196.54V29.24H203.36V30.31H197.74V30.3Z" fill="black"/>
<path d="M213.04 30.3H209.59V38.84H208.39V30.3H204.93V29.23H213.04V30.3Z" fill="black"/>
<path d="M214.9 29.23H216.1V38.84H214.9V29.23Z" fill="black"/>
<path d="M218.03 34.03C218.02 31.03 220.04 29.03 223.1 29.03C224.31 29.03 225.35 29.35 226.26 29.83L225.9 30.84C225.14 30.38 223.96 30.1 223.1 30.1C220.81 30.1 219.3 31.67 219.31 34.02C219.3 36.38 220.82 37.94 223.11 37.94C224.08 37.94 225.12 37.65 225.91 37.18L226.28 38.21C225.28 38.72 224.09 39.03 223.09 39.03C220.04 39.03 218.01 37.03 218.02 34.03H218.03Z" fill="black"/>
<path d="M227.84 38.0401L228.26 37C229.16 37.55 230.31 37.96 231.38 37.96C232.7 37.96 233.8 37.4501 233.8 36.2001C233.8 35.1601 232.65 34.84 231.19 34.44C229.82 34.04 227.99 33.62 227.99 31.68C227.99 30.02 229.27 29.05 231.57 29.05C232.48 29.05 233.54 29.31 234.55 29.84L234.19 30.92C233.33 30.42 232.27 30.13 231.48 30.13C230.06 30.13 229.24 30.72 229.24 31.66C229.24 32.67 230.39 33.0201 231.66 33.3801C233.25 33.8301 235.04 34.2601 235.04 36.2401C235.04 38.1001 233.34 39.0601 231.34 39.0601C230.04 39.0601 228.93 38.6701 227.83 38.0601L227.84 38.0401Z" fill="black"/>
</svg>
