<svg width="959" height="174" viewBox="0 0 959 174" fill="none" xmlns="http://www.w3.org/2000/svg">
<mask id="mask0_69_16" style="mask-type:alpha" maskUnits="userSpaceOnUse" x="0" y="11" width="524" height="151">
<rect y="11" width="524" height="151" fill="#D9D9D9"/>
</mask>
<g mask="url(#mask0_69_16)">
<rect x="263" y="11.1187" width="36.7074" height="150.763" fill="white"/>
<rect y="11.1191" width="36.7074" height="150.763" fill="white"/>
<rect width="36.7074" height="150.763" transform="matrix(-1 0 0 1 231.707 11.1191)" fill="white"/>
<rect width="36.7074" height="318.131" transform="matrix(-0.967032 -0.254656 -0.254656 0.967032 206.848 -33.002)" fill="white"/>
<rect x="26" y="-33.002" width="36.7074" height="318.131" transform="rotate(-14.7532 26 -33.002)" fill="white"/>
<rect x="330" y="11.1189" width="36.7074" height="150.763" fill="white"/>
<rect x="353.16" y="-13.0474" width="36.7074" height="318.131" transform="rotate(-29.6291 353.16 -13.0474)" fill="white"/>
</g>
<path d="M554.227 11.0909H559.273L571.136 40.0682H571.545L583.409 11.0909H588.455V46H584.5V19.4773H584.159L573.25 46H569.432L558.523 19.4773H558.182V46H554.227V11.0909ZM608.598 11.0909V46H604.37V11.0909H608.598ZM624.514 46V11.0909H636.309C639.036 11.0909 641.275 11.5568 643.025 12.4886C644.775 13.4091 646.07 14.6761 646.911 16.2898C647.752 17.9034 648.173 19.7386 648.173 21.7955C648.173 23.8523 647.752 25.6761 646.911 27.267C646.07 28.858 644.781 30.108 643.042 31.017C641.303 31.9148 639.082 32.3636 636.377 32.3636H626.832V28.5455H636.241C638.104 28.5455 639.604 28.2727 640.741 27.7273C641.889 27.1818 642.718 26.4091 643.229 25.4091C643.752 24.3977 644.014 23.1932 644.014 21.7955C644.014 20.3977 643.752 19.1761 643.229 18.1307C642.707 17.0852 641.871 16.2784 640.724 15.7102C639.576 15.1307 638.059 14.8409 636.173 14.8409H628.741V46H624.514ZM640.945 30.3182L649.536 46H644.627L636.173 30.3182H640.945ZM662.657 46V11.0909H674.452C677.179 11.0909 679.418 11.5568 681.168 12.4886C682.918 13.4091 684.213 14.6761 685.054 16.2898C685.895 17.9034 686.316 19.7386 686.316 21.7955C686.316 23.8523 685.895 25.6761 685.054 27.267C684.213 28.858 682.924 30.108 681.185 31.017C679.446 31.9148 677.225 32.3636 674.52 32.3636H664.975V28.5455H674.384C676.248 28.5455 677.748 28.2727 678.884 27.7273C680.032 27.1818 680.861 26.4091 681.373 25.4091C681.895 24.3977 682.157 23.1932 682.157 21.7955C682.157 20.3977 681.895 19.1761 681.373 18.1307C680.85 17.0852 680.015 16.2784 678.867 15.7102C677.719 15.1307 676.202 14.8409 674.316 14.8409H666.884V46H662.657ZM679.088 30.3182L687.679 46H682.77L674.316 30.3182H679.088ZM730.254 28.5455C730.254 32.2273 729.59 35.4091 728.26 38.0909C726.93 40.7727 725.107 42.8409 722.788 44.2955C720.47 45.75 717.822 46.4773 714.845 46.4773C711.868 46.4773 709.22 45.75 706.902 44.2955C704.584 42.8409 702.76 40.7727 701.43 38.0909C700.101 35.4091 699.436 32.2273 699.436 28.5455C699.436 24.8636 700.101 21.6818 701.43 19C702.76 16.3182 704.584 14.25 706.902 12.7955C709.22 11.3409 711.868 10.6136 714.845 10.6136C717.822 10.6136 720.47 11.3409 722.788 12.7955C725.107 14.25 726.93 16.3182 728.26 19C729.59 21.6818 730.254 24.8636 730.254 28.5455ZM726.163 28.5455C726.163 25.5227 725.658 22.9716 724.646 20.892C723.646 18.8125 722.288 17.2386 720.572 16.1705C718.868 15.1023 716.959 14.5682 714.845 14.5682C712.732 14.5682 710.817 15.1023 709.101 16.1705C707.396 17.2386 706.038 18.8125 705.027 20.892C704.027 22.9716 703.527 25.5227 703.527 28.5455C703.527 31.5682 704.027 34.1193 705.027 36.1989C706.038 38.2784 707.396 39.8523 709.101 40.9205C710.817 41.9886 712.732 42.5227 714.845 42.5227C716.959 42.5227 718.868 41.9886 720.572 40.9205C722.288 39.8523 723.646 38.2784 724.646 36.1989C725.658 34.1193 726.163 31.5682 726.163 28.5455ZM744.802 46V11.0909H756.598C759.325 11.0909 761.564 11.5568 763.314 12.4886C765.064 13.4091 766.359 14.6761 767.2 16.2898C768.041 17.9034 768.461 19.7386 768.461 21.7955C768.461 23.8523 768.041 25.6761 767.2 27.267C766.359 28.858 765.069 30.108 763.331 31.017C761.592 31.9148 759.37 32.3636 756.666 32.3636H747.12V28.5455H756.53C758.393 28.5455 759.893 28.2727 761.03 27.7273C762.177 27.1818 763.007 26.4091 763.518 25.4091C764.041 24.3977 764.302 23.1932 764.302 21.7955C764.302 20.3977 764.041 19.1761 763.518 18.1307C762.995 17.0852 762.16 16.2784 761.012 15.7102C759.865 15.1307 758.348 14.8409 756.461 14.8409H749.03V46H744.802ZM761.234 30.3182L769.825 46H764.916L756.461 30.3182H761.234ZM802.036 19.8182C801.832 18.0909 801.002 16.75 799.548 15.7955C798.093 14.8409 796.309 14.3636 794.195 14.3636C792.65 14.3636 791.298 14.6136 790.139 15.1136C788.991 15.6136 788.093 16.3011 787.445 17.1761C786.809 18.0511 786.491 19.0455 786.491 20.1591C786.491 21.0909 786.712 21.892 787.156 22.5625C787.61 23.2216 788.19 23.7727 788.894 24.2159C789.599 24.6477 790.337 25.0057 791.11 25.2898C791.883 25.5625 792.593 25.7841 793.241 25.9545L796.786 26.9091C797.695 27.1477 798.707 27.4773 799.82 27.8977C800.945 28.3182 802.019 28.892 803.042 29.6193C804.076 30.3352 804.928 31.2557 805.599 32.3807C806.269 33.5057 806.604 34.8864 806.604 36.5227C806.604 38.4091 806.11 40.1136 805.122 41.6364C804.144 43.1591 802.712 44.3693 800.826 45.267C798.951 46.1648 796.673 46.6136 793.991 46.6136C791.491 46.6136 789.326 46.2102 787.497 45.4034C785.678 44.5966 784.247 43.4716 783.201 42.0284C782.167 40.5852 781.582 38.9091 781.445 37H785.809C785.923 38.3182 786.366 39.4091 787.139 40.2727C787.923 41.125 788.911 41.7614 790.104 42.1818C791.309 42.5909 792.604 42.7955 793.991 42.7955C795.604 42.7955 797.053 42.5341 798.337 42.0114C799.622 41.4773 800.639 40.7386 801.389 39.7955C802.139 38.8409 802.514 37.7273 802.514 36.4545C802.514 35.2955 802.19 34.3523 801.542 33.625C800.894 32.8977 800.042 32.3068 798.985 31.8523C797.928 31.3977 796.786 31 795.559 30.6591L791.264 29.4318C788.536 28.6477 786.377 27.5284 784.786 26.0739C783.195 24.6193 782.4 22.7159 782.4 20.3636C782.4 18.4091 782.928 16.7045 783.985 15.25C785.053 13.7841 786.485 12.6477 788.281 11.8409C790.087 11.0227 792.104 10.6136 794.332 10.6136C796.582 10.6136 798.582 11.017 800.332 11.8239C802.082 12.6193 803.468 13.7102 804.491 15.0966C805.525 16.483 806.07 18.0568 806.127 19.8182H802.036ZM558.455 69.0909V104H554.227V69.0909H558.455ZM602.052 69.0909V104H597.961L578.939 76.5909H578.598V104H574.37V69.0909H578.461L597.552 96.5682H597.893V69.0909H602.052ZM637.042 77.8182C636.837 76.0909 636.008 74.75 634.553 73.7955C633.099 72.8409 631.315 72.3636 629.201 72.3636C627.656 72.3636 626.303 72.6136 625.144 73.1136C623.996 73.6136 623.099 74.3011 622.451 75.1761C621.815 76.0511 621.496 77.0455 621.496 78.1591C621.496 79.0909 621.718 79.892 622.161 80.5625C622.616 81.2216 623.195 81.7727 623.9 82.2159C624.604 82.6477 625.343 83.0057 626.116 83.2898C626.889 83.5625 627.599 83.7841 628.246 83.9545L631.792 84.9091C632.701 85.1477 633.712 85.4773 634.826 85.8977C635.951 86.3182 637.025 86.892 638.048 87.6193C639.082 88.3352 639.934 89.2557 640.604 90.3807C641.275 91.5057 641.61 92.8864 641.61 94.5227C641.61 96.4091 641.116 98.1136 640.127 99.6364C639.15 101.159 637.718 102.369 635.832 103.267C633.957 104.165 631.678 104.614 628.996 104.614C626.496 104.614 624.332 104.21 622.502 103.403C620.684 102.597 619.252 101.472 618.207 100.028C617.173 98.5852 616.587 96.9091 616.451 95H620.815C620.928 96.3182 621.371 97.4091 622.144 98.2727C622.928 99.125 623.917 99.7614 625.11 100.182C626.315 100.591 627.61 100.795 628.996 100.795C630.61 100.795 632.059 100.534 633.343 100.011C634.627 99.4773 635.644 98.7386 636.394 97.7955C637.144 96.8409 637.519 95.7273 637.519 94.4545C637.519 93.2955 637.195 92.3523 636.548 91.625C635.9 90.8977 635.048 90.3068 633.991 89.8523C632.934 89.3977 631.792 89 630.565 88.6591L626.269 87.4318C623.542 86.6477 621.383 85.5284 619.792 84.0739C618.201 82.6193 617.406 80.7159 617.406 78.3636C617.406 76.4091 617.934 74.7045 618.991 73.25C620.059 71.7841 621.491 70.6477 623.286 69.8409C625.093 69.0227 627.11 68.6136 629.337 68.6136C631.587 68.6136 633.587 69.017 635.337 69.8239C637.087 70.6193 638.474 71.7102 639.496 73.0966C640.531 74.483 641.076 76.0568 641.133 77.8182H637.042ZM654.091 72.8409V69.0909H680.273V72.8409H669.296V104H665.069V72.8409H654.091ZM698.465 69.0909V104H694.237V69.0909H698.465ZM712.471 72.8409V69.0909H738.653V72.8409H727.676V104H723.449V72.8409H712.471ZM775.526 69.0909H779.754V92.2045C779.754 94.5909 779.191 96.7216 778.066 98.5966C776.953 100.46 775.379 101.932 773.345 103.011C771.31 104.08 768.924 104.614 766.185 104.614C763.447 104.614 761.06 104.08 759.026 103.011C756.992 101.932 755.413 100.46 754.288 98.5966C753.174 96.7216 752.617 94.5909 752.617 92.2045V69.0909H756.845V91.8636C756.845 93.5682 757.22 95.0852 757.97 96.4148C758.72 97.733 759.788 98.7727 761.174 99.5341C762.572 100.284 764.242 100.659 766.185 100.659C768.129 100.659 769.799 100.284 771.197 99.5341C772.595 98.7727 773.663 97.733 774.401 96.4148C775.151 95.0852 775.526 93.5682 775.526 91.8636V69.0909ZM793.726 72.8409V69.0909H819.908V72.8409H808.931V104H804.704V72.8409H793.726ZM833.872 104V69.0909H854.94V72.8409H838.1V84.6364H853.85V88.3864H838.1V100.25H855.213V104H833.872ZM920.394 86.5455C920.394 90.2273 919.73 93.4091 918.4 96.0909C917.07 98.7727 915.247 100.841 912.928 102.295C910.61 103.75 907.962 104.477 904.985 104.477C902.008 104.477 899.36 103.75 897.042 102.295C894.724 100.841 892.9 98.7727 891.57 96.0909C890.241 93.4091 889.576 90.2273 889.576 86.5455C889.576 82.8636 890.241 79.6818 891.57 77C892.9 74.3182 894.724 72.25 897.042 70.7955C899.36 69.3409 902.008 68.6136 904.985 68.6136C907.962 68.6136 910.61 69.3409 912.928 70.7955C915.247 72.25 917.07 74.3182 918.4 77C919.73 79.6818 920.394 82.8636 920.394 86.5455ZM916.303 86.5455C916.303 83.5227 915.798 80.9716 914.786 78.892C913.786 76.8125 912.428 75.2386 910.712 74.1705C909.008 73.1023 907.099 72.5682 904.985 72.5682C902.872 72.5682 900.957 73.1023 899.241 74.1705C897.536 75.2386 896.178 76.8125 895.167 78.892C894.167 80.9716 893.667 83.5227 893.667 86.5455C893.667 89.5682 894.167 92.1193 895.167 94.1989C896.178 96.2784 897.536 97.8523 899.241 98.9205C900.957 99.9886 902.872 100.523 904.985 100.523C907.099 100.523 909.008 99.9886 910.712 98.9205C912.428 97.8523 913.786 96.2784 914.786 94.1989C915.798 92.1193 916.303 89.5682 916.303 86.5455ZM934.942 104V69.0909H955.874V72.8409H939.17V84.6364H954.306V88.3864H939.17V104H934.942ZM555.659 162H551.227L564.045 127.091H568.409L581.227 162H576.795L566.364 132.614H566.091L555.659 162ZM557.295 148.364H575.159V152.114H557.295V148.364ZM594.105 162V127.091H615.173V130.841H598.332V142.636H614.082V146.386H598.332V158.25H615.446V162H594.105ZM649.323 135.818C649.119 134.091 648.289 132.75 646.835 131.795C645.38 130.841 643.596 130.364 641.482 130.364C639.937 130.364 638.585 130.614 637.425 131.114C636.278 131.614 635.38 132.301 634.732 133.176C634.096 134.051 633.778 135.045 633.778 136.159C633.778 137.091 633.999 137.892 634.442 138.562C634.897 139.222 635.477 139.773 636.181 140.216C636.886 140.648 637.624 141.006 638.397 141.29C639.17 141.562 639.88 141.784 640.528 141.955L644.073 142.909C644.982 143.148 645.994 143.477 647.107 143.898C648.232 144.318 649.306 144.892 650.329 145.619C651.363 146.335 652.215 147.256 652.886 148.381C653.556 149.506 653.891 150.886 653.891 152.523C653.891 154.409 653.397 156.114 652.408 157.636C651.431 159.159 649.999 160.369 648.113 161.267C646.238 162.165 643.96 162.614 641.278 162.614C638.778 162.614 636.613 162.21 634.783 161.403C632.965 160.597 631.533 159.472 630.488 158.028C629.454 156.585 628.869 154.909 628.732 153H633.096C633.21 154.318 633.653 155.409 634.425 156.273C635.21 157.125 636.198 157.761 637.391 158.182C638.596 158.591 639.891 158.795 641.278 158.795C642.891 158.795 644.34 158.534 645.624 158.011C646.908 157.477 647.925 156.739 648.675 155.795C649.425 154.841 649.8 153.727 649.8 152.455C649.8 151.295 649.477 150.352 648.829 149.625C648.181 148.898 647.329 148.307 646.272 147.852C645.215 147.398 644.073 147 642.846 146.659L638.55 145.432C635.823 144.648 633.664 143.528 632.073 142.074C630.482 140.619 629.687 138.716 629.687 136.364C629.687 134.409 630.215 132.705 631.272 131.25C632.34 129.784 633.772 128.648 635.567 127.841C637.374 127.023 639.391 126.614 641.619 126.614C643.869 126.614 645.869 127.017 647.619 127.824C649.369 128.619 650.755 129.71 651.778 131.097C652.812 132.483 653.357 134.057 653.414 135.818H649.323ZM666.373 130.841V127.091H692.554V130.841H681.577V162H677.35V130.841H666.373ZM706.519 162V127.091H710.746V142.636H729.359V127.091H733.587V162H729.359V146.386H710.746V162H706.519ZM749.49 162V127.091H770.558V130.841H753.717V142.636H769.467V146.386H753.717V158.25H770.831V162H749.49ZM783.708 130.841V127.091H809.89V130.841H798.913V162H794.685V130.841H783.708ZM828.081 127.091V162H823.854V127.091H828.081ZM872.088 138H867.861C867.611 136.784 867.173 135.716 866.548 134.795C865.935 133.875 865.185 133.102 864.298 132.477C863.423 131.841 862.452 131.364 861.384 131.045C860.315 130.727 859.202 130.568 858.043 130.568C855.929 130.568 854.014 131.102 852.298 132.17C850.594 133.239 849.236 134.812 848.225 136.892C847.225 138.972 846.725 141.523 846.725 144.545C846.725 147.568 847.225 150.119 848.225 152.199C849.236 154.278 850.594 155.852 852.298 156.92C854.014 157.989 855.929 158.523 858.043 158.523C859.202 158.523 860.315 158.364 861.384 158.045C862.452 157.727 863.423 157.256 864.298 156.631C865.185 155.994 865.935 155.216 866.548 154.295C867.173 153.364 867.611 152.295 867.861 151.091H872.088C871.77 152.875 871.19 154.472 870.35 155.881C869.509 157.29 868.463 158.489 867.213 159.477C865.963 160.455 864.56 161.199 863.003 161.71C861.457 162.222 859.804 162.477 858.043 162.477C855.065 162.477 852.418 161.75 850.1 160.295C847.781 158.841 845.957 156.773 844.628 154.091C843.298 151.409 842.634 148.227 842.634 144.545C842.634 140.864 843.298 137.682 844.628 135C845.957 132.318 847.781 130.25 850.1 128.795C852.418 127.341 855.065 126.614 858.043 126.614C859.804 126.614 861.457 126.869 863.003 127.381C864.56 127.892 865.963 128.642 867.213 129.631C868.463 130.608 869.509 131.801 870.35 133.21C871.19 134.608 871.77 136.205 872.088 138Z" fill="white"/>
</svg>
