<svg width="307" height="83" viewBox="0 0 307 83" fill="none" xmlns="http://www.w3.org/2000/svg">
<path d="M5.30078 57.6414V13.4701H15.7756L27.3864 32.1483L38.9971 13.4701H49.472V57.6414H39.8174V28.8039L27.3864 47.6713H27.134L14.8291 28.9932V57.6414H5.30078ZM60.5252 57.6414V13.4701H70.2428V57.6414H60.5252ZM81.2817 57.6414V13.4701H101.474C107.09 13.4701 111.444 15.0477 114.347 17.9504C116.808 20.4113 118.133 23.8819 118.133 28.0466V28.1728C118.133 35.3033 114.284 39.7836 108.668 41.8659L119.458 57.6414H108.1L98.6347 43.5066H90.9994V57.6414H81.2817ZM90.9994 34.9247H100.843C105.576 34.9247 108.289 32.4007 108.289 28.6777V28.5515C108.289 24.3867 105.386 22.2413 100.654 22.2413H90.9994V34.9247ZM126.882 57.6414V13.4701H147.075C152.691 13.4701 157.045 15.0477 159.948 17.9504C162.409 20.4113 163.734 23.8819 163.734 28.0466V28.1728C163.734 35.3033 159.885 39.7836 154.269 41.8659L165.059 57.6414H153.701L144.235 43.5066H136.6V57.6414H126.882ZM136.6 34.9247H146.444C151.177 34.9247 153.89 32.4007 153.89 28.6777V28.5515C153.89 24.3867 150.987 22.2413 146.255 22.2413H136.6V34.9247ZM193.938 58.3986C180.308 58.3986 170.527 48.2392 170.527 35.682V35.5558C170.527 22.9985 180.434 12.7129 194.064 12.7129C207.694 12.7129 217.475 22.8723 217.475 35.4296V35.5558C217.475 48.113 207.568 58.3986 193.938 58.3986ZM194.064 49.4381C201.889 49.4381 207.315 43.2542 207.315 35.682V35.5558C207.315 27.9835 201.763 21.6734 193.938 21.6734C186.113 21.6734 180.687 27.8573 180.687 35.4296V35.5558C180.687 43.128 186.239 49.4381 194.064 49.4381ZM226.095 57.6414V13.4701H246.288C251.904 13.4701 256.258 15.0477 259.16 17.9504C261.621 20.4113 262.947 23.8819 262.947 28.0466V28.1728C262.947 35.3033 259.097 39.7836 253.481 41.8659L264.272 57.6414H252.913L243.448 43.5066H235.813V57.6414H226.095ZM235.813 34.9247H245.657C250.389 34.9247 253.103 32.4007 253.103 28.6777V28.5515C253.103 24.3867 250.2 22.2413 245.467 22.2413H235.813V34.9247ZM287.408 58.2724C280.72 58.2724 273.968 55.9376 268.667 51.205L274.409 44.3269C278.385 47.6082 282.55 49.6906 287.598 49.6906C291.573 49.6906 293.971 48.113 293.971 45.5258V45.3996C293.971 42.9387 292.457 41.6766 285.074 39.7836C276.176 37.5119 270.434 35.0509 270.434 26.2798V26.1536C270.434 18.1397 276.87 12.8391 285.894 12.8391C292.33 12.8391 297.82 14.8584 302.3 18.4552L297.252 25.775C293.34 23.0616 289.491 21.421 285.768 21.421C282.045 21.421 280.089 23.1247 280.089 25.2702V25.3964C280.089 28.299 281.982 29.2456 289.617 31.2017C298.577 33.5365 303.626 36.7547 303.626 44.4531V44.5793C303.626 53.3505 296.937 58.2724 287.408 58.2724Z" fill="black"/>
<path d="M4.5791 78.6277V67.9065H9.14326C10.3686 67.9065 11.3335 68.2588 11.9461 68.8561C12.3903 69.3156 12.6353 69.8822 12.6353 70.5715V70.6021C12.6353 71.9958 11.7777 72.7157 10.9353 73.0833C12.2065 73.4662 13.2327 74.2013 13.2327 75.6717V75.7023C13.2327 77.5402 11.6858 78.6277 9.34237 78.6277H4.5791ZM5.77375 72.6851H8.94415C10.3992 72.6851 11.4101 72.0265 11.4101 70.7706V70.7399C11.4101 69.6831 10.5677 68.9939 9.03605 68.9939H5.77375V72.6851ZM5.77375 77.5402H9.373C10.9965 77.5402 12.0074 76.8204 12.0074 75.6257V75.5951C12.0074 74.4311 11.0272 73.7572 9.15858 73.7572H5.77375V77.5402ZM27.1193 78.6277V67.9065H34.8692V69.0092H28.3293V72.6697H34.18V73.7725H28.3293V77.5249H34.9457V78.6277H27.1193ZM47.9479 78.6277L52.8337 67.8299H53.967L58.8528 78.6277H57.551L56.2951 75.7942H50.4597L49.1885 78.6277H47.9479ZM50.9345 74.7068H55.8203L53.385 69.239L50.9345 74.7068ZM76.3535 78.7961C73.7038 78.7961 71.8967 77.1726 71.8967 74.1401V67.9065H73.1066V74.0635C73.1066 76.3762 74.3318 77.6781 76.3841 77.6781C78.3599 77.6781 79.6159 76.4834 79.6159 74.1401V67.9065H80.8259V74.0482C80.8259 77.1726 79.0338 78.7961 76.3535 78.7961ZM98.007 78.6277V69.0245H94.4079V67.9065H102.832V69.0245H99.2323V78.6277H98.007ZM119.947 78.6277V74.3851L115.49 67.9065H116.96L120.575 73.2671L124.22 67.9065H125.629L121.172 74.3698V78.6277H119.947ZM154.203 78.6277L159.088 67.8299H160.222L165.108 78.6277H163.806L162.55 75.7942H156.715L155.443 78.6277H154.203ZM157.189 74.7068H162.075L159.64 69.239L157.189 74.7068ZM182.982 78.8115C179.888 78.8115 177.606 76.3762 177.606 73.2977V73.2671C177.606 70.2345 179.873 67.7227 183.028 67.7227C184.973 67.7227 186.137 68.4119 187.209 69.4228L186.382 70.3111C185.478 69.4534 184.467 68.8408 183.012 68.8408C180.638 68.8408 178.862 70.7706 178.862 73.2364V73.2671C178.862 75.7483 180.654 77.6934 183.012 77.6934C184.483 77.6934 185.448 77.1267 186.474 76.1465L187.27 76.9276C186.152 78.061 184.927 78.8115 182.982 78.8115ZM199.956 78.6277L204.842 67.8299H205.975L210.861 78.6277H209.559L208.303 75.7942H202.468L201.197 78.6277H199.956ZM202.943 74.7068H207.829L205.393 69.239L202.943 74.7068ZM224.462 78.6277V67.9065H228.184C231.554 67.9065 233.882 70.2192 233.882 73.2364V73.2671C233.882 76.2843 231.554 78.6277 228.184 78.6277H224.462ZM225.672 77.5096H228.184C230.895 77.5096 232.626 75.6717 232.626 73.2977V73.2671C232.626 70.8931 230.895 69.0245 228.184 69.0245H225.672V77.5096ZM247.93 78.6277V67.9065H255.68V69.0092H249.14V72.6697H254.99V73.7725H249.14V77.5249H255.756V78.6277H247.93ZM269.677 78.6277V67.9065H270.903L274.808 73.7572L278.714 67.9065H279.939V78.6277H278.729V69.9435L274.823 75.687H274.762L270.857 69.9588V78.6277H269.677ZM297.815 78.6277V74.3851L293.358 67.9065H294.829L298.443 73.2671L302.088 67.9065H303.497L299.041 74.3698V78.6277H297.815Z" fill="black"/>
</svg>
