<svg xmlns="http://www.w3.org/2000/svg" viewBox="0 0 440 101.69"><polygon style="fill:#fff;" points="68.65 1.3 68.65 64.74 55.09 64.74 55.44 21.98 36.06 49.62 32.32 49.62 13.21 22.68 13.56 64.74 0 64.74 0 1.3 13.9 1.3 34.24 31.98 54.4 1.3 68.65 1.3"/><rect style="fill:#fff;" x="83.11" y="1.3" width="13.64" height="63.43"/><path style="fill:#fff;" d="M155.77,64.74l-19.11-23.2h-11.82v23.2h-13.64V1.3h31.46c12.94,0,21.81,7.91,21.81,19.99,0,8.43-5.3,15.29-13.56,18.42l21.2,25.03h-16.34Zm-30.93-34.58h15.9c5.82,0,9.73-3.3,9.73-8.6,0-5.65-3.91-8.77-9.73-8.77h-15.9V30.15Z"/><path style="fill:#fff;" d="M223.5,64.74l-19.11-23.2h-11.82v23.2h-13.64V1.3h31.45c12.95,0,21.81,7.91,21.81,19.99,0,8.43-5.3,15.29-13.56,18.42l21.2,25.03h-16.34Zm-30.93-34.58h15.9c5.82,0,9.73-3.3,9.73-8.6,0-5.65-3.91-8.77-9.73-8.77h-15.9V30.15Z"/><path style="fill:#fff;" d="M242.04,33.02c0-19.12,14.16-33.02,33.8-33.02s33.72,13.9,33.72,33.02-14.16,33.02-33.72,33.02-33.8-13.9-33.8-33.02m53.53,0c0-12.08-8.34-20.85-19.73-20.85s-19.81,8.77-19.81,20.85,8.34,20.85,19.81,20.85,19.73-8.78,19.73-20.85"/><path style="fill:#fff;" d="M365.47,64.74l-19.11-23.2h-11.82v23.2h-13.64V1.3h31.45c12.95,0,21.81,7.91,21.81,19.99,0,8.43-5.3,15.29-13.56,18.42l21.2,25.03h-16.34Zm-30.93-34.58h15.9c5.82,0,9.73-3.3,9.73-8.6,0-5.65-3.91-8.77-9.73-8.77h-15.9V30.15Z"/><path style="fill:#fff;" d="M385.84,59.52l3.82-11.82c6.43,3.82,14.6,6.34,22.16,6.34,6.43,0,11.3-2.09,11.3-7.3,0-4.35-4.78-5.74-16.51-8.43-9.3-2.17-20.25-6-20.25-19.12S397.23,0,411.82,0c7.38,0,15.72,2.08,22.16,5.39l-4.26,11.21c-5.65-3.04-13.03-4.86-18.77-4.86-6.77,0-10.51,2.35-10.51,6.25,0,4.26,4.87,5.82,13.99,7.91,10.43,2.43,22.77,5.99,22.77,19.55,0,12.86-11.3,20.59-26.42,20.59-8.86,0-17.46-2.6-24.94-6.52"/><path style="fill:#fff;" d="M0,81.07H8.37c2.29,0,4.14,.67,5.27,1.79,.84,.84,1.3,1.91,1.3,3.19v.05c0,2.75-1.79,4.14-3.45,4.81,2.43,.64,4.58,2.03,4.58,4.84v.06c0,3.39-2.9,5.53-7.27,5.53H0v-20.28Zm8.2,9.35c3.04,0,5.21-1.48,5.21-4.17v-.06c0-2.23-1.83-3.73-5.07-3.73H1.5v7.96h6.69Zm.67,9.53c3.47,0,5.68-1.59,5.68-4.14v-.06c0-2.49-2.17-3.94-6.17-3.94H1.5v8.14h7.36Z"/><polygon style="fill:#fff;" points="36.23 81.07 50.65 81.07 50.65 82.46 37.73 82.46 37.73 90.42 49.34 90.42 49.34 91.81 37.73 91.81 37.73 99.95 50.79 99.95 50.79 101.34 36.23 101.34 36.23 81.07"/><path style="fill:#fff;" d="M78.65,80.92h1.45l9.44,20.42h-1.65l-2.58-5.68h-11.96l-2.58,5.68h-1.56l9.44-20.42Zm6.03,13.38l-5.33-11.73-5.36,11.73h10.69Z"/><path style="fill:#fff;" d="M108.09,92.91v-11.84h1.51v11.7c0,4.78,2.58,7.53,6.87,7.53s6.75-2.49,6.75-7.39v-11.84h1.51v11.67c0,5.82-3.39,8.92-8.31,8.92s-8.31-3.07-8.31-8.75"/><polygon style="fill:#fff;" points="151.36 82.46 144.29 82.46 144.29 81.07 159.93 81.07 159.93 82.46 152.87 82.46 152.87 101.34 151.36 101.34 151.36 82.46"/><polygon style="fill:#fff;" points="186.42 93.32 177.74 81.07 179.62 81.07 187.21 91.96 194.83 81.07 196.62 81.07 187.93 93.29 187.93 101.34 186.42 101.34 186.42 93.32"/><polygon style="fill:#fff;" points="239.87 81.07 241.37 81.07 241.37 99.95 253.28 99.95 253.28 101.34 239.87 101.34 239.87 81.07"/><path style="fill:#fff;" d="M271.05,91.26v-.06c0-5.53,4.08-10.49,10.22-10.49s10.17,4.9,10.17,10.43v.06c0,5.53-4.09,10.49-10.23,10.49s-10.16-4.89-10.16-10.43m18.83,0v-.06c0-5.01-3.65-9.12-8.66-9.12s-8.6,4.06-8.6,9.07v.06c0,5.01,3.65,9.12,8.66,9.12s8.6-4.05,8.6-9.06"/><path style="fill:#fff;" d="M311.57,92.91v-11.84h1.51v11.7c0,4.78,2.58,7.53,6.87,7.53s6.75-2.49,6.75-7.39v-11.84h1.51v11.67c0,5.82-3.39,8.92-8.31,8.92s-8.31-3.07-8.31-8.75"/><polygon style="fill:#fff;" points="349.21 81.07 350.63 81.07 364.62 98.71 364.62 81.07 366.07 81.07 366.07 101.34 364.94 101.34 350.66 83.32 350.66 101.34 349.21 101.34 349.21 81.07"/><path style="fill:#fff;" d="M386.51,91.26v-.06c0-5.47,3.97-10.49,10.02-10.49,3.3,0,5.38,.99,7.41,2.67l-.99,1.13c-1.59-1.39-3.45-2.43-6.52-2.43-4.93,0-8.37,4.17-8.37,9.07v.06c0,5.24,3.27,9.16,8.69,9.16,2.58,0,4.98-1.07,6.46-2.32v-5.82h-6.78v-1.39h8.22v7.82c-1.83,1.62-4.66,3.04-7.96,3.04-6.4,0-10.2-4.72-10.2-10.43"/><polygon style="fill:#fff;" points="425.43 81.07 439.85 81.07 439.85 82.46 426.94 82.46 426.94 90.42 438.55 90.42 438.55 91.81 426.94 91.81 426.94 99.95 440 99.95 440 101.34 425.43 101.34 425.43 81.07"/></svg>