<?xml version="1.0" encoding="utf-8"?>
<!-- Generator: Adobe Illustrator 27.0.1, SVG Export Plug-In . SVG Version: 6.00 Build 0)  -->
<svg version="1.1" id="Layer_1" xmlns="http://www.w3.org/2000/svg" xmlns:xlink="http://www.w3.org/1999/xlink" x="0px" y="0px"
	 viewBox="0 0 571.5 101.7" style="enable-background:new 0 0 571.5 101.7;" xml:space="preserve">
<style type="text/css">
	.st0{fill:#FFFFFF;}
</style>
<polygon points="200.2,1.3 200.2,64.7 186.6,64.7 186.9,22 167.6,49.6 163.8,49.6 144.7,22.7 145.1,64.7 131.5,64.7 131.5,1.3 
	145.4,1.3 165.7,32 185.9,1.3 "/>
<rect x="214.6" y="1.3" width="13.6" height="63.4"/>
<path d="M287.3,64.7l-19.1-23.2h-11.8v23.2h-13.6V1.3h31.5c12.9,0,21.8,7.9,21.8,20c0,8.4-5.3,15.3-13.6,18.4l21.2,25H287.3z
	 M256.3,30.2h15.9c5.8,0,9.7-3.3,9.7-8.6c0-5.6-3.9-8.8-9.7-8.8h-15.9V30.2L256.3,30.2z"/>
<path d="M355,64.7l-19.1-23.2h-11.8v23.2h-13.6V1.3h31.4c12.9,0,21.8,7.9,21.8,20c0,8.4-5.3,15.3-13.6,18.4l21.2,25H355L355,64.7z
	 M324.1,30.2H340c5.8,0,9.7-3.3,9.7-8.6c0-5.6-3.9-8.8-9.7-8.8h-15.9V30.2L324.1,30.2z"/>
<path d="M373.5,33c0-19.1,14.2-33,33.8-33S441,13.9,441,33s-14.2,33-33.7,33S373.5,52.1,373.5,33 M427.1,33
	c0-12.1-8.3-20.9-19.7-20.9s-19.9,8.8-19.9,20.9s8.3,20.9,19.8,20.9S427.1,45.1,427.1,33"/>
<path d="M497,64.7l-19.1-23.2h-11.8v23.2h-13.6V1.3H484c13,0,21.8,7.9,21.8,20c0,8.4-5.3,15.3-13.6,18.4l21.2,25H497L497,64.7z
	 M466,30.2h15.9c5.8,0,9.7-3.3,9.7-8.6c0-5.6-3.9-8.8-9.7-8.8H466V30.2L466,30.2z"/>
<path d="M517.3,59.5l3.8-11.8c6.4,3.8,14.6,6.3,22.2,6.3c6.4,0,11.3-2.1,11.3-7.3c0-4.3-4.8-5.7-16.5-8.4c-9.3-2.2-20.2-6-20.2-19.1
	S528.7,0,543.3,0c7.4,0,15.7,2.1,22.2,5.4l-4.3,11.2c-5.6-3-13-4.9-18.8-4.9c-6.8,0-10.5,2.4-10.5,6.2c0,4.3,4.9,5.8,14,7.9
	c10.4,2.4,22.8,6,22.8,19.5c0,12.9-11.3,20.6-26.4,20.6C533.4,66,524.8,63.4,517.3,59.5"/>
<path d="M131.5,81.1h8.4c2.3,0,4.1,0.7,5.3,1.8c0.8,0.8,1.3,1.9,1.3,3.2v0.1c0,2.8-1.8,4.1-3.4,4.8c2.4,0.6,4.6,2,4.6,4.8v0.1
	c0,3.4-2.9,5.5-7.3,5.5h-8.9V81.1L131.5,81.1z M139.7,90.4c3,0,5.2-1.5,5.2-4.2v-0.1c0-2.2-1.8-3.7-5.1-3.7H133v8L139.7,90.4
	L139.7,90.4z M140.4,99.9c3.5,0,5.7-1.6,5.7-4.1v-0.1c0-2.5-2.2-3.9-6.2-3.9H133v8.1H140.4L140.4,99.9z"/>
<polygon points="167.7,81.1 182.2,81.1 182.2,82.5 169.2,82.5 169.2,90.4 180.8,90.4 180.8,91.8 169.2,91.8 169.2,99.9 182.3,99.9 
	182.3,101.3 167.7,101.3 "/>
<path d="M210.2,80.9h1.4l9.4,20.4h-1.7l-2.6-5.7h-12l-2.6,5.7h-1.6L210.2,80.9z M216.2,94.3l-5.3-11.7l-5.4,11.7H216.2z"/>
<path d="M239.6,92.9V81.1h1.5v11.7c0,4.8,2.6,7.5,6.9,7.5s6.8-2.5,6.8-7.4V81.1h1.5v11.7c0,5.8-3.4,8.9-8.3,8.9
	C243.1,101.7,239.6,98.6,239.6,92.9"/>
<polygon points="282.9,82.5 275.8,82.5 275.8,81.1 291.4,81.1 291.4,82.5 284.4,82.5 284.4,101.3 282.9,101.3 "/>
<polygon points="317.9,93.3 309.2,81.1 311.1,81.1 318.7,92 326.3,81.1 328.1,81.1 319.4,93.3 319.4,101.3 317.9,101.3 "/>
<polygon points="371.4,81.1 372.9,81.1 372.9,99.9 384.8,99.9 384.8,101.3 371.4,101.3 "/>
<path d="M402.5,91.3L402.5,91.3c0-5.6,4.1-10.5,10.2-10.5s10.2,4.9,10.2,10.4v0.1c0,5.5-4.1,10.5-10.2,10.5S402.5,96.8,402.5,91.3
	 M421.4,91.3L421.4,91.3c0-5.1-3.6-9.2-8.7-9.2s-8.6,4.1-8.6,9.1v0.1c0,5,3.6,9.1,8.7,9.1S421.4,96.3,421.4,91.3"/>
<path d="M443.1,92.9V81.1h1.5v11.7c0,4.8,2.6,7.5,6.9,7.5s6.8-2.5,6.8-7.4V81.1h1.5v11.7c0,5.8-3.4,8.9-8.3,8.9
	S443.1,98.6,443.1,92.9"/>
<polygon points="480.7,81.1 482.1,81.1 496.1,98.7 496.1,81.1 497.6,81.1 497.6,101.3 496.4,101.3 482.2,83.3 482.2,101.3 
	480.7,101.3 "/>
<path d="M518,91.3L518,91.3c0-5.5,4-10.5,10-10.5c3.3,0,5.4,1,7.4,2.7l-1,1.1c-1.6-1.4-3.5-2.4-6.5-2.4c-4.9,0-8.4,4.2-8.4,9.1v0.1
	c0,5.2,3.3,9.2,8.7,9.2c2.6,0,5-1.1,6.5-2.3v-5.8h-6.8v-1.4h8.2v7.8c-1.8,1.6-4.7,3-8,3C521.8,101.7,518,97,518,91.3"/>
<polygon points="556.9,81.1 571.4,81.1 571.4,82.5 558.4,82.5 558.4,90.4 570,90.4 570,91.8 558.4,91.8 558.4,99.9 571.5,99.9 
	571.5,101.3 556.9,101.3 "/>
<g>
	<path d="M85.5,101.6H15.6C7,101.6,0,94.7,0,86V15.7C0,7,7,0.1,15.6,0.1h69.9c8.6,0,15.6,7,15.6,15.6V86
		C101.2,94.7,94.2,101.6,85.5,101.6z"/>
	<g>
		<path class="st0" d="M23,25.5h19.2L49,54.9c0.3,1.1,0.5,2.5,0.7,4.1c0.2,1.6,0.3,3.2,0.3,4.9h1.1c0-1.6,0.1-3.3,0.3-4.9
			c0.2-1.6,0.5-3,0.7-4.1l6.7-29.5h19.2v50.8H66.2V44.3c0-1.7,0-3.1,0.1-4.1c0.1-1.1,0.2-2.6,0.4-4.5l-1.1-0.1
			c-0.5,3.5-1.1,6.4-1.7,8.7l-7.7,31.9H44.8l-7.7-31.9c-0.6-2.3-1.1-5.2-1.7-8.7l-1.1,0.1c0.2,1.9,0.4,3.4,0.4,4.5
			c0.1,1.1,0.1,2.4,0.1,4.1v31.9H23V25.5z"/>
	</g>
</g>
</svg>
