<svg xmlns="http://www.w3.org/2000/svg" viewBox="0 0 414.61 333.82"><defs><style>.cls-1{fill:#bababa;}.cls-2{fill:none;}.cls-3{fill:#d9e0e8;}.cls-4{fill:#f1f1f1;}.cls-5{fill:#03042a;}.cls-6{fill:#283061;}.cls-7{fill:#fefefe;}</style></defs><path class="cls-1" d="M107.33,220.98c6.72-2.81,13.43-4.98,20.97-5.25,23.78-.84,46.88,23.34,39.9,50.84-.28,1.12-.57,2.23-.86,3.35-1.62,3.86-3.24,7.71-4.86,11.57-3.89,2.49-6.9,5.87-9.62,9.53-1.94,.01-3.4,1.23-5,2.06-25.07,12.89-54.64-.53-60.02-28.15-3.62-18.54,3.52-33.49,19.49-43.94Zm-1.15,10.82c-11.79,10.3-14.94,26.34-7.89,40.16,6.89,13.5,21.73,20.69,36.73,17.8,14.27-2.75,26.03-16.1,26.28-29.85,1.82-16.87-8.34-28.78-19.49-33.83-11.71-5.3-25.68-3.21-35.63,5.72Z"/><path class="cls-3" d="M299.36,68.91c-1.28,1.54-3.06,1.03-4.65,1.03-14.78,.03-29.55-.14-44.32,.12-4.31,.07-5.3-1.43-5.19-5.43,.26-9.62,.1-19.25,.08-28.88-.01-6.94,.34-13.9-.98-20.79,1.05,.01,1.91,.43,2.66,1.18,17.47,17.59,34.94,35.18,52.41,52.77Z"/><path class="cls-1" d="M169.47,288.87c9.95,8.61,18.71,18.44,28.15,27.56,1.68,1.62,3.34,3.26,5,4.9,3.27,3.24,3.51,6.99,.65,10.11-2.86,3.13-6.59,3.23-10.13-.03-4.65-4.28-9.26-8.63-13.67-13.15-6.49-6.65-12.8-13.48-19.19-20.23,3.07-3.05,6.13-6.1,9.2-9.15Z"/><path class="cls-6" d="M169.47,288.87c-3.07,3.05-6.13,6.1-9.2,9.15-2.47-2.34-4.94-4.67-7.4-7,2.72-3.67,5.73-7.05,9.62-9.53,2.33,2.46,4.66,4.92,6.98,7.39Z"/><path class="cls-3" d="M40.57,310.03c2.17-.24,3.13,.97,3.31,2.48,.21,1.76-.63,3.18-2.67,3.34-1.76,.14-3.51-.2-3.65-2.27-.14-2.08,1.42-3.1,3-3.54Z"/><path class="cls-3" d="M371.19,131.06c-.21,2.04-1.4,2.92-3.31,2.75-1.73-.15-2.65-1.27-2.54-2.97,.12-1.99,1.2-3.68,3.27-3.42,1.64,.21,2.61,1.81,2.58,3.64Z"/><path class="cls-3" d="M335.21,270.67c-.02,1.93-.91,3.12-2.92,3.13-2.02,.01-2.89-1.18-2.97-3.11-.08-1.78,.6-2.79,2.52-2.77,1.87,.02,3.16,.7,3.38,2.75Z"/><path class="cls-3" d="M28.66,205.83c-2.1-.02-3.25-.94-3.23-2.95,.02-2,1.21-2.88,3.14-2.94,1.79-.06,2.75,.67,2.72,2.56-.03,1.89-.79,3.1-2.63,3.33Z"/><path class="cls-4" d="M360.08,0c1.95,.01,3.12,.93,3.13,2.98,0,1.75-.93,2.82-2.71,2.9-2,.09-3.14-.9-3.15-2.95,0-1.77,.94-2.74,2.74-2.93Z"/><path class="cls-3" d="M412.94,87.1c-.44-3.63-5.42-1.65-3.84-6.01,.59-1.63,1.2-2.26,2.74-1.35,.93,.55,3.52-.16,2.56,1.6-.8,1.46-.19,2.78-1.46,5.76Z"/><path class="cls-3" d="M0,179.55c.78-2.32-.84-5.86,3.35-5.59,2.72,.17,1.46,2.24,1.56,3.32,.43,4.86-4.22-.92-4.91,2.27Z"/><path class="cls-7" d="M161.3,259.91c-.25,13.74-12.01,27.1-26.28,29.85-15,2.89-29.84-4.3-36.73-17.8-7.05-13.81-3.9-29.85,7.89-40.16,2.39,2.36,4.74,2.09,7.56,.47,4.45-2.56,9.06-4.93,14.53-4.38,1.91,.19,4.01,.23,3.78,2.78-.17,1.97-1.06,3.92-3.54,4.18-.99,.1-1.99,.02-2.99,.07-9.36,.49-17.22,8.75-17.22,18.07,0,3.99-.07,7.98,.03,11.96,.05,1.77-.94,4.22,.64,5.15,1.99,1.18,2.73-1.76,4.26-2.53,2.28-1.15,3.95-3.01,5.68-4.79,5.17-5.31,5.05-5.19,10.45-.44,2.1,1.85,3.38,2.95,.21,4.92-1.19,.74-2.9,1.9-1.78,4.01,4.97-3.77,4.99-3.8,10.68-.34,1.85,1.13,3.34,1.03,4.87-.56,2.52-2.62,5.57-4.85,7.6-7.79,2.88-4.19,6.04-5.12,10.36-2.68Z"/><path class="cls-4" d="M161.3,259.91c-4.32-2.44-7.48-1.51-10.36,2.68-2.02,2.94-5.08,5.17-7.6,7.79-1.52,1.59-3.01,1.69-4.87,.56-5.69-3.47-5.71-3.43-10.68,.34-1.12-2.11,.59-3.27,1.78-4.01,3.17-1.97,1.9-3.06-.21-4.92-5.39-4.76-5.28-4.87-10.45,.44-1.73,1.78-3.4,3.65-5.68,4.79-1.52,.77-2.26,3.7-4.26,2.53-1.58-.94-.6-3.39-.64-5.15-.11-3.99-.03-7.98-.03-11.96,0-9.31,7.86-17.57,17.22-18.07,.99-.05,2,.03,2.99-.07,2.48-.26,3.37-2.21,3.54-4.18,.23-2.54-1.87-2.58-3.78-2.78-5.47-.56-10.08,1.81-14.53,4.38-2.82,1.62-5.17,1.89-7.56-.47,9.95-8.93,23.92-11.02,35.63-5.72,11.15,5.05,21.31,16.96,19.49,33.83Z"/><path class="cls-4" d="M242.3,158.89c5.67-.02,11.34-.03,17.01-.05-5.66,1.7-11.33,1.69-17.01,.05Z"/><path class="cls-5" d="M143.31,158.91c5.34,0,10.69,0,16.03-.01-5.34,1.62-10.69,1.63-16.03,.01Z"/><path class="cls-2" d="M187.93,13.94h-60.97c20.32,.11,40.65,.15,60.97,0Z"/><path class="cls-2" d="M232.93,13.94h-6.32c2.11,.17,4.22,.09,6.32,0Z"/><path class="cls-2" d="M217.75,13.94h-13.45c4.47,.26,9.05,.84,13.45,0Z"/><path class="cls-4" d="M305.47,239.09c-3.66,1.55-4.45-.15-4.2-3.36,.09-1.16,.01-2.33,.01-3.5,0-52.62,.02-105.24-.06-157.87,0-1.88,1.32-4.53-1.86-5.46-1.28,1.54-3.06,1.03-4.65,1.03-14.78,.03-29.55-.14-44.32,.12-4.31,.07-5.3-1.43-5.19-5.43,.26-9.62,.1-19.25,.08-28.88-.01-6.94,.34-13.9-.98-20.79-1.6-.58-3.21-.88-4.84-1.02h-6.52c-2.1,.09-4.21,.17-6.32,0h-8.86c-4.39,.84-8.97,.26-13.45,0h-16.38c-20.32,.15-40.64,.11-60.97,0h-14.87c-2.95,.3-3.86,1.66-3.89,5.46-.44,52.55,1.23,105.1-.8,157.65-.56,14.62-.08,29.29-.07,43.93,6.72-2.81,13.43-4.98,20.97-5.25,23.78-.84,46.88,23.34,39.9,50.84-.28,1.12-.57,2.23-.86,3.35,4.29,2.71,7.74,2.3,10.78-2.19,1.65-2.44,4.36-4.13,6.23-6.45,2.68-3.33,4.85-3.8,7.78-.17,2.49,3.09,5.47,5.83,8.45,8.49,2.94,2.62,5.66,3.64,8.55-.72,2.17-3.27,5.65-5.63,8.26-8.65,2.84-3.29,5.2-2.46,7.14,.6,2.28,3.58,5.64,6.09,8.37,9.21,2.06,2.35,4.46,2.43,6.63,.66,3.33-2.73,7.41-5.28,9.26-8.89,2.71-5.3,5.44-2.65,7.78-.87,3.23,2.46,6.06,5.53,8.72,8.63,2.74,3.19,5.38,3.08,7.92,.22,2.85-3.21,5.99-6.17,8.78-9.37,2.56-2.94,3.91-2.56,6.24-.15,4.02,4.15,8.27,8.08,13.06,12.72,0-8.58,.46-16.11-.15-23.54-.47-5.86,1.45-8.68,7.24-8.97,.11,0,.2-.54,.31-.83-.93-1.07-2.24-.96-3.21-.55Zm-130.23-71.76c-5.14-.18-5.57,2.61-5.11,6.51,.11,.97-.05,1.99-.2,2.98-.45,3.08-2.13,4.79-5.39,4.58-3.1-.2-4.08-2.2-4.52-4.98-.45-2.82,1.69-6.63-1.29-8.24-2.2-1.19-5.52-.31-8.35-.33-3.99-.03-8,.2-11.97-.13-6.24-.53-8.65-5.53-4.93-10.63,8.32-11.41,16.83-22.68,25.48-33.84,3.29-4.24,5.52-4.21,9.38-.91,1.85,1.63,1.61,3.88,1.62,5.96,.04,9.89-.04,19.78-.07,29.68,1.13,1.15,2.49,1.61,4.08,1.28,2.58-.54,4.21,.42,4.62,3.05,.4,2.64-.47,5.13-3.35,5.03Zm49.93-8.47c-.52,15.09-10.4,24.31-23.77,22.13-7.92-1.29-12.97-6.32-15.15-13.59-3.37-11.24-3.05-22.75,.22-34,1.83-6.28,6.05-10.88,12.69-12.2,9.72-1.93,17.97,.31,22.87,9.81,2.08,4.04,3.25,8.36,3.16,12.96,.48,4.96,.49,9.92-.02,14.88Zm48.2,8.5c-5,.06-4.55,2.99-4.43,6.2,.06,1.66-.11,3.27-.7,4.9-.83,2.29-2.52,3.04-4.66,2.93-2.15-.11-3.84-1.09-4.41-3.38-.16-.64-.29-1.3-.36-1.96q-.83-8.2-9.01-8.21c-4.16,0-8.35,.21-12.49-.13-6.3-.52-8.67-5.49-4.94-10.6,8.25-11.28,16.64-22.46,25.15-33.54,3.41-4.45,5.73-4.56,9.8-1.24,1.49,1.02,1.28,2.66,1.28,4.09,.02,10.48-.05,20.97-.09,31.46,.99,.95,2.12,1.7,3.54,1.42,2.58-.51,4.68-.21,5.32,2.81,.69,3.27-2.17,5.24-4.01,5.26Z"/><path class="cls-7" d="M232.93,13.94h6.52c-2.15-.18-4.33-.09-6.52,0Z"/><path class="cls-7" d="M113.82,13.86c-.65,0-1.22,.02-1.73,.07h14.87c-4.38-.02-8.76-.05-13.14-.07Z"/><path class="cls-7" d="M200.7,13.84c-4.26,.05-8.52,.07-12.77,.1h16.38c-1.21-.07-2.41-.11-3.6-.1Z"/><rect class="cls-4" x="128.74" y="116.32" width="151.96" height="74.57"/></svg>