<svg width="471" height="77" viewBox="0 0 471 77" fill="none" xmlns="http://www.w3.org/2000/svg">
<rect width="471" height="77" fill="white"/>
<path d="M29.97 61.7893C28.8313 61.7893 27.856 61.5093 27.044 60.9493C26.2413 60.3893 25.756 59.5446 25.588 58.4153H26.89C27.0487 59.1993 27.4173 59.7686 27.996 60.1233C28.584 60.4686 29.2607 60.6413 30.026 60.6413C30.7913 60.6413 31.3793 60.4826 31.79 60.1653C32.21 59.848 32.42 59.3766 32.42 58.7513C32.42 58.2753 32.2893 57.902 32.028 57.6313C31.7667 57.3513 31.44 57.146 31.048 57.0153C30.656 56.8753 30.1287 56.7353 29.466 56.5953C28.7193 56.4366 28.1173 56.278 27.66 56.1193C27.2027 55.9513 26.8153 55.6806 26.498 55.3073C26.1807 54.934 26.022 54.4206 26.022 53.7673C26.022 53.17 26.1667 52.652 26.456 52.2133C26.7547 51.7653 27.1653 51.4246 27.688 51.1913C28.22 50.9486 28.8313 50.8273 29.522 50.8273C30.502 50.8273 31.3513 51.084 32.07 51.5973C32.7887 52.1013 33.232 52.8713 33.4 53.9073H32.154C32.014 53.226 31.7013 52.736 31.216 52.4373C30.7307 52.1293 30.1613 51.9753 29.508 51.9753C28.7987 51.9753 28.2527 52.1246 27.87 52.4233C27.4967 52.722 27.31 53.1326 27.31 53.6553C27.31 54.066 27.4267 54.3926 27.66 54.6353C27.9027 54.8686 28.2013 55.046 28.556 55.1673C28.92 55.2886 29.4147 55.4146 30.04 55.5453C30.8333 55.7133 31.4727 55.8906 31.958 56.0773C32.4433 56.2546 32.854 56.5486 33.19 56.9593C33.5353 57.37 33.708 57.9393 33.708 58.6673C33.708 59.6286 33.3813 60.3893 32.728 60.9493C32.084 61.5093 31.1647 61.7893 29.97 61.7893ZM38.8579 61.7893C38.1299 61.7893 37.4766 61.6166 36.8979 61.2713C36.3286 60.926 35.8853 60.45 35.5679 59.8433C35.2506 59.2366 35.0919 58.5553 35.0919 57.7993C35.0919 57.0806 35.2413 56.418 35.5399 55.8113C35.8386 55.1953 36.2679 54.7006 36.8279 54.3273C37.3973 53.954 38.0646 53.7673 38.8299 53.7673C39.4926 53.7673 40.1086 53.9166 40.6779 54.2153C41.2473 54.514 41.7046 54.9526 42.0499 55.5313C42.3953 56.1006 42.5679 56.7866 42.5679 57.5893V58.0093H37.0379C36.9726 58.0093 36.8419 58.0093 36.6459 58.0093C36.4593 58.0093 36.2866 58 36.1279 57.9813L36.0859 58.2053C36.1699 58.224 36.2259 58.2566 36.2539 58.3033C36.2913 58.3406 36.3193 58.4106 36.3379 58.5133C36.3659 58.6066 36.3939 58.6953 36.4219 58.7793C36.6179 59.3766 36.9306 59.8526 37.3599 60.2073C37.7986 60.562 38.2933 60.7393 38.8439 60.7393C39.4039 60.7393 39.8846 60.59 40.2859 60.2913C40.6873 59.9926 40.9766 59.6146 41.1539 59.1573H42.4279C42.1759 59.9413 41.7466 60.576 41.1399 61.0613C40.5333 61.5466 39.7726 61.7893 38.8579 61.7893ZM36.3659 57.2253C36.4686 57.132 36.5713 57.0666 36.6739 57.0293C36.7859 56.9826 36.9213 56.9593 37.0799 56.9593H40.5519C40.7293 56.9593 40.8786 56.9826 40.9999 57.0293C41.1213 57.0666 41.2379 57.132 41.3499 57.2253L41.5039 57.0573C41.4106 56.992 41.3499 56.936 41.3219 56.8893C41.3033 56.8333 41.2846 56.7633 41.2659 56.6793C41.2379 56.5113 41.1913 56.3526 41.1259 56.2033C40.9299 55.7646 40.6266 55.424 40.2159 55.1813C39.8146 54.9386 39.3619 54.8173 38.8579 54.8173C38.3446 54.8173 37.8919 54.9386 37.4999 55.1813C37.1173 55.424 36.8186 55.7646 36.6039 56.2033C36.5199 56.3806 36.4686 56.5393 36.4499 56.6793C36.4406 56.7633 36.4219 56.8286 36.3939 56.8753C36.3659 56.922 36.3053 56.9826 36.2119 57.0573L36.3659 57.2253ZM44.2186 53.9073H45.4086V54.4113C45.4086 54.542 45.3946 54.654 45.3666 54.7473C45.3479 54.8313 45.3059 54.9153 45.2406 54.9993L45.4366 55.1253C45.7539 54.6493 46.1039 54.304 46.4866 54.0893C46.8786 53.8746 47.3639 53.7673 47.9426 53.7673H47.9986V54.9573H47.5926C46.9673 54.9573 46.4679 55.144 46.0946 55.5173C45.6373 55.956 45.4086 56.642 45.4086 57.5753V61.6493H44.2186V53.9073ZM48.5905 53.9073H49.9065L51.5305 58.4853C51.6425 58.812 51.7219 59.1246 51.7685 59.4233C51.8152 59.7126 51.8432 59.8946 51.8525 59.9693H52.0205L52.0625 59.6753C52.1372 59.1993 52.2305 58.8026 52.3425 58.4853L53.9945 53.9073H55.2965L52.4265 61.6493H51.4465L48.5905 53.9073ZM56.5643 61.6493V53.9073H57.7543V61.6493H56.5643ZM57.1663 52.5773C56.9143 52.5773 56.6996 52.4933 56.5223 52.3253C56.345 52.148 56.2563 51.938 56.2563 51.6953C56.2563 51.4526 56.345 51.2473 56.5223 51.0793C56.6996 50.9113 56.9143 50.8273 57.1663 50.8273C57.4183 50.8273 57.633 50.9113 57.8103 51.0793C57.9876 51.2473 58.0763 51.4526 58.0763 51.6953C58.0763 51.938 57.9876 52.148 57.8103 52.3253C57.633 52.4933 57.4183 52.5773 57.1663 52.5773ZM63.1662 61.7893C62.4382 61.7893 61.7895 61.6166 61.2202 61.2713C60.6509 60.926 60.2075 60.4453 59.8902 59.8293C59.5729 59.2133 59.4142 58.518 59.4142 57.7433C59.4142 56.9873 59.5729 56.306 59.8902 55.6993C60.2075 55.0926 60.6509 54.6213 61.2202 54.2853C61.7895 53.94 62.4382 53.7673 63.1662 53.7673C64.0342 53.7673 64.7669 53.9913 65.3642 54.4393C65.9709 54.878 66.3629 55.4753 66.5402 56.2313H65.2662C65.1169 55.802 64.8509 55.4613 64.4682 55.2093C64.0949 54.948 63.6609 54.8173 63.1662 54.8173C62.6809 54.8173 62.2422 54.9433 61.8502 55.1953C61.4675 55.4473 61.1642 55.7973 60.9402 56.2453C60.7162 56.684 60.6042 57.1833 60.6042 57.7433C60.6042 58.322 60.7115 58.84 60.9262 59.2973C61.1502 59.7453 61.4582 60.1 61.8502 60.3613C62.2422 60.6133 62.6809 60.7393 63.1662 60.7393C63.6982 60.7393 64.1555 60.5946 64.5382 60.3053C64.9302 60.016 65.1915 59.6333 65.3222 59.1573H66.5962C66.4282 59.9786 66.0315 60.6226 65.4062 61.0893C64.7902 61.556 64.0435 61.7893 63.1662 61.7893ZM71.6021 61.7893C70.8741 61.7893 70.2207 61.6166 69.6421 61.2713C69.0727 60.926 68.6294 60.45 68.3121 59.8433C67.9947 59.2366 67.8361 58.5553 67.8361 57.7993C67.8361 57.0806 67.9854 56.418 68.2841 55.8113C68.5827 55.1953 69.0121 54.7006 69.5721 54.3273C70.1414 53.954 70.8087 53.7673 71.5741 53.7673C72.2367 53.7673 72.8527 53.9166 73.4221 54.2153C73.9914 54.514 74.4487 54.9526 74.7941 55.5313C75.1394 56.1006 75.3121 56.7866 75.3121 57.5893V58.0093H69.7821C69.7167 58.0093 69.5861 58.0093 69.3901 58.0093C69.2034 58.0093 69.0307 58 68.8721 57.9813L68.8301 58.2053C68.9141 58.224 68.9701 58.2566 68.9981 58.3033C69.0354 58.3406 69.0634 58.4106 69.0821 58.5133C69.1101 58.6066 69.1381 58.6953 69.1661 58.7793C69.3621 59.3766 69.6747 59.8526 70.1041 60.2073C70.5427 60.562 71.0374 60.7393 71.5881 60.7393C72.1481 60.7393 72.6287 60.59 73.0301 60.2913C73.4314 59.9926 73.7207 59.6146 73.8981 59.1573H75.1721C74.9201 59.9413 74.4907 60.576 73.8841 61.0613C73.2774 61.5466 72.5167 61.7893 71.6021 61.7893ZM69.1101 57.2253C69.2127 57.132 69.3154 57.0666 69.4181 57.0293C69.5301 56.9826 69.6654 56.9593 69.8241 56.9593H73.2961C73.4734 56.9593 73.6227 56.9826 73.7441 57.0293C73.8654 57.0666 73.9821 57.132 74.0941 57.2253L74.2481 57.0573C74.1547 56.992 74.0941 56.936 74.0661 56.8893C74.0474 56.8333 74.0287 56.7633 74.0101 56.6793C73.9821 56.5113 73.9354 56.3526 73.8701 56.2033C73.6741 55.7646 73.3707 55.424 72.9601 55.1813C72.5587 54.9386 72.1061 54.8173 71.6021 54.8173C71.0887 54.8173 70.6361 54.9386 70.2441 55.1813C69.8614 55.424 69.5627 55.7646 69.3481 56.2033C69.2641 56.3806 69.2127 56.5393 69.1941 56.6793C69.1847 56.7633 69.1661 56.8286 69.1381 56.8753C69.1101 56.922 69.0494 56.9826 68.9561 57.0573L69.1101 57.2253ZM80.9986 50.9673H84.9746C86.0292 50.9673 86.8552 51.2286 87.4526 51.7513C88.0592 52.2646 88.3626 53.0206 88.3626 54.0193C88.3626 54.8406 88.1386 55.5173 87.6906 56.0493C87.3079 56.488 86.9159 56.7073 86.5146 56.7073C86.4586 56.7073 86.3839 56.698 86.2906 56.6793L86.2066 56.8613C86.3372 56.9266 86.4306 57.0106 86.4866 57.1133C86.5519 57.216 86.6266 57.356 86.7106 57.5333L88.5026 61.6493H87.1306L85.2266 57.1133H82.2866V61.6493H80.9986V50.9673ZM84.8066 55.9933C85.5439 55.9933 86.1086 55.83 86.5006 55.5033C86.8926 55.1673 87.0886 54.6866 87.0886 54.0613C87.0886 53.4453 86.8879 52.9693 86.4866 52.6333C86.0852 52.2973 85.5252 52.1293 84.8066 52.1293H82.2866V55.9933H84.8066ZM92.3268 61.7893C91.5521 61.7893 90.9361 61.5933 90.4788 61.2013C90.0308 60.8093 89.8068 60.2726 89.8068 59.5913C89.8068 58.9193 90.0588 58.3873 90.5628 57.9953C90.9734 57.6686 91.5661 57.426 92.3408 57.2673L95.0988 56.7353C95.1081 56.138 94.9494 55.676 94.6228 55.3493C94.2681 54.9946 93.7921 54.8173 93.1948 54.8173C92.7188 54.8173 92.3034 54.948 91.9488 55.2093C91.6034 55.4613 91.3841 55.802 91.2908 56.2313H90.1008C90.2314 55.4566 90.5861 54.8546 91.1648 54.4253C91.7528 53.9866 92.4341 53.7673 93.2088 53.7673C93.6661 53.7673 94.0908 53.8373 94.4828 53.9773C94.8748 54.108 95.2061 54.304 95.4768 54.5653C95.8314 54.9013 96.0554 55.2886 96.1488 55.7273C96.2421 56.166 96.2888 56.6186 96.2888 57.0853V61.6493H95.0988V61.2853C95.0988 61.052 95.1454 60.786 95.2388 60.4873L95.0428 60.4033C94.7908 60.8046 94.4968 61.1173 94.1608 61.3413C93.9274 61.5 93.6614 61.612 93.3628 61.6773C93.0734 61.752 92.7281 61.7893 92.3268 61.7893ZM92.4668 60.7393C92.9148 60.7393 93.3254 60.6506 93.6988 60.4733C94.1561 60.24 94.4921 59.9273 94.7068 59.5353C94.8654 59.2553 94.9681 58.9893 95.0148 58.7373C95.0708 58.4853 95.1034 58.3313 95.1128 58.2753C95.1408 58.1353 95.1781 58.0326 95.2248 57.9673C95.2714 57.902 95.3414 57.8646 95.4348 57.8553L95.3928 57.6313L93.5868 58.0093L92.5928 58.2053C92.0141 58.3173 91.5894 58.4993 91.3188 58.7513C91.1041 58.966 90.9968 59.2366 90.9968 59.5633C90.9968 59.918 91.1274 60.2026 91.3888 60.4173C91.6594 60.632 92.0188 60.7393 92.4668 60.7393ZM100.659 61.6493C100.034 61.6493 99.5718 61.5093 99.2732 61.2293C98.9745 60.9493 98.8252 60.4406 98.8252 59.7033V54.9573H97.5792V53.9073H98.8252V50.9673H100.015V53.9073H101.751V54.9573H100.015V59.4653C100.015 59.736 100.034 59.9506 100.071 60.1093C100.109 60.2586 100.193 60.38 100.323 60.4733C100.454 60.5573 100.659 60.5993 100.939 60.5993H101.737V61.6493H100.659ZM103.254 61.6493V53.9073H104.444V61.6493H103.254ZM103.856 52.5773C103.604 52.5773 103.389 52.4933 103.212 52.3253C103.034 52.148 102.946 51.938 102.946 51.6953C102.946 51.4526 103.034 51.2473 103.212 51.0793C103.389 50.9113 103.604 50.8273 103.856 50.8273C104.108 50.8273 104.322 50.9113 104.5 51.0793C104.677 51.2473 104.766 51.4526 104.766 51.6953C104.766 51.938 104.677 52.148 104.5 52.3253C104.322 52.4933 104.108 52.5773 103.856 52.5773ZM106.426 53.9073H107.616V54.4113C107.616 54.542 107.602 54.654 107.574 54.7473C107.555 54.8313 107.513 54.9153 107.448 54.9993L107.644 55.1253C107.998 54.64 108.348 54.2946 108.694 54.0893C109.039 53.8746 109.445 53.7673 109.912 53.7673C111.004 53.7673 111.764 54.1733 112.194 54.9853C112.352 55.2933 112.45 55.6106 112.488 55.9373C112.534 56.2546 112.558 56.6046 112.558 56.9873V61.6493H111.368V56.9873C111.368 56.166 111.218 55.5873 110.92 55.2513C110.658 54.962 110.262 54.8173 109.73 54.8173C109.142 54.8173 108.67 55.0086 108.316 55.3913C108.064 55.6526 107.882 56.012 107.77 56.4693C107.667 56.9266 107.616 57.552 107.616 58.3453V61.6493H106.426V53.9073ZM117.908 64.7293C117.021 64.7293 116.256 64.538 115.612 64.1553C114.977 63.7726 114.59 63.1473 114.45 62.2793H115.668C115.911 63.2126 116.653 63.6793 117.894 63.6793C119.434 63.6793 120.204 62.9886 120.204 61.6073V61.1453C120.204 60.9773 120.213 60.8606 120.232 60.7953C120.251 60.73 120.297 60.6506 120.372 60.5573L120.176 60.4313C119.812 60.926 119.443 61.276 119.07 61.4813C118.706 61.6866 118.239 61.7893 117.67 61.7893C116.989 61.7893 116.387 61.6213 115.864 61.2853C115.341 60.9493 114.935 60.4826 114.646 59.8853C114.366 59.2786 114.226 58.588 114.226 57.8133C114.226 57.02 114.366 56.32 114.646 55.7133C114.935 55.0973 115.337 54.6213 115.85 54.2853C116.373 53.94 116.975 53.7673 117.656 53.7673C118.235 53.7673 118.706 53.87 119.07 54.0753C119.443 54.2806 119.812 54.6306 120.176 55.1253L120.372 54.9993C120.307 54.9153 120.26 54.8313 120.232 54.7473C120.213 54.654 120.204 54.542 120.204 54.4113V53.9073H121.394V61.3833C121.394 62.578 121.086 63.432 120.47 63.9453C119.854 64.468 119 64.7293 117.908 64.7293ZM117.782 60.7393C118.258 60.7393 118.683 60.6133 119.056 60.3613C119.429 60.1 119.719 59.7453 119.924 59.2973C120.139 58.8493 120.246 58.3406 120.246 57.7713C120.246 57.2113 120.139 56.7073 119.924 56.2593C119.719 55.8113 119.425 55.4613 119.042 55.2093C118.669 54.948 118.249 54.8173 117.782 54.8173C117.306 54.8173 116.886 54.948 116.522 55.2093C116.167 55.4613 115.892 55.8113 115.696 56.2593C115.509 56.7073 115.416 57.2113 115.416 57.7713C115.416 58.3406 115.509 58.8493 115.696 59.2973C115.892 59.7453 116.167 60.1 116.522 60.3613C116.886 60.6133 117.306 60.7393 117.782 60.7393Z" fill="#B3B3B3"/>
<path d="M52.7182 32.5414L46.3077 35.8324L47.5323 28.8621L42.3391 23.9261L49.5057 22.912L52.7109 16.5704L55.9162 22.912L63.0828 23.9261L57.8896 28.8621L59.1141 35.8324L52.7182 32.5414Z" stroke="black" stroke-width="1.48169" stroke-linecap="round" stroke-linejoin="round"/>
<path d="M84.6208 35.0156V31.9041H78.6289V29.7171L84.6742 21.4493H86.8789V29.8771H88.7281V31.9041H86.8789V35.0156H84.6208ZM80.6025 30.1261C80.887 30.0194 81.1359 29.9542 81.3493 29.9305C81.5745 29.8949 81.8116 29.8771 82.0605 29.8771H84.6208V25.8943C84.6208 25.598 84.6268 25.355 84.6386 25.1654C84.6623 24.9638 84.7157 24.709 84.7986 24.4008L84.5853 24.3297C84.3364 24.7446 84.0815 25.1416 83.8207 25.521L81.5449 28.7392C81.4026 28.9526 81.2544 29.1422 81.1004 29.3082C80.9581 29.4741 80.7566 29.6756 80.4958 29.9127L80.6025 30.1261ZM91.651 35.2112C91.2835 35.2112 90.9694 35.0867 90.7086 34.8378C90.4479 34.577 90.3175 34.2629 90.3175 33.8955C90.3175 33.5399 90.4479 33.2376 90.7086 32.9887C90.9694 32.7398 91.2835 32.6153 91.651 32.6153C91.9947 32.6153 92.2911 32.7457 92.54 33.0065C92.7889 33.2554 92.9134 33.5517 92.9134 33.8955C92.9134 34.2511 92.7889 34.5593 92.54 34.82C92.2911 35.0808 91.9947 35.2112 91.651 35.2112ZM99.6554 35.2468C98.6953 35.2468 97.8419 35.069 97.0951 34.7134C96.3602 34.3459 95.7853 33.8421 95.3704 33.202C94.9674 32.5501 94.7659 31.8152 94.7659 30.9973C94.7659 30.2268 94.9792 29.5393 95.406 28.9348C95.8327 28.3184 96.455 27.9035 97.2729 27.6902V27.4768C96.6447 27.3108 96.1646 26.9908 95.8327 26.5167C95.5126 26.0307 95.3526 25.4913 95.3526 24.8987C95.3526 24.1874 95.5364 23.5533 95.9038 22.9962C96.2713 22.439 96.781 22.0064 97.4329 21.6982C98.0849 21.39 98.8257 21.2359 99.6554 21.2359C100.497 21.2359 101.244 21.39 101.896 21.6982C102.548 22.0064 103.051 22.439 103.407 22.9962C103.775 23.5533 103.958 24.1874 103.958 24.8987C103.958 25.4913 103.792 26.0307 103.46 26.5167C103.14 27.0027 102.666 27.3227 102.038 27.4768V27.6902C102.868 27.9035 103.49 28.3125 103.905 28.917C104.332 29.5215 104.545 30.215 104.545 30.9973C104.545 31.827 104.344 32.5619 103.94 33.202C103.537 33.8421 102.963 34.3459 102.216 34.7134C101.481 35.069 100.627 35.2468 99.6554 35.2468ZM99.6554 26.89C100.331 26.89 100.853 26.7182 101.22 26.3744C101.588 26.0307 101.771 25.5743 101.771 25.0053C101.771 24.4482 101.582 23.9919 101.202 23.6363C100.823 23.2806 100.307 23.1028 99.6554 23.1028C99.0035 23.1028 98.4879 23.2806 98.1086 23.6363C97.7293 23.9919 97.5396 24.4482 97.5396 25.0053C97.5396 25.5743 97.7233 26.0307 98.0908 26.3744C98.4582 26.7182 98.9798 26.89 99.6554 26.89ZM99.6554 33.2909C100.45 33.2909 101.084 33.0716 101.558 32.6331C102.044 32.1945 102.287 31.6077 102.287 30.8728C102.287 30.1616 102.05 29.5867 101.576 29.1481C101.113 28.6977 100.473 28.4725 99.6554 28.4725C98.8376 28.4725 98.1915 28.6977 97.7174 29.1481C97.2551 29.5867 97.024 30.1616 97.024 30.8728C97.024 31.6077 97.267 32.1945 97.753 32.6331C98.239 33.0716 98.8731 33.2909 99.6554 33.2909Z" fill="black"/>
<path d="M159.106 50.9673H163.124C164.291 50.9673 165.149 51.2286 165.7 51.7513C166.176 52.1993 166.414 52.8293 166.414 53.6413C166.414 54.2946 166.246 54.8406 165.91 55.2793C165.583 55.718 165.145 55.9373 164.594 55.9373V56.1613C165.341 56.1613 165.919 56.3853 166.33 56.8333C166.741 57.272 166.946 57.874 166.946 58.6393C166.946 59.498 166.685 60.1886 166.162 60.7113C165.807 61.0473 165.373 61.29 164.86 61.4393C164.347 61.5793 163.824 61.6493 163.292 61.6493H159.106V50.9673ZM163.124 55.6013C163.749 55.6013 164.235 55.4473 164.58 55.1393C164.935 54.8313 165.112 54.402 165.112 53.8513C165.112 53.3473 164.963 52.9553 164.664 52.6753C164.291 52.3113 163.684 52.1293 162.844 52.1293H160.394V55.6013H163.124ZM163.152 60.4873C163.525 60.4873 163.885 60.4546 164.23 60.3893C164.575 60.324 164.879 60.17 165.14 59.9273C165.485 59.61 165.658 59.1526 165.658 58.5553C165.658 57.7806 165.429 57.286 164.972 57.0713C164.515 56.8566 164.001 56.7493 163.432 56.7493H160.394V60.4873H163.152ZM172.104 61.7893C171.376 61.7893 170.723 61.6166 170.144 61.2713C169.575 60.926 169.131 60.45 168.814 59.8433C168.497 59.2366 168.338 58.5553 168.338 57.7993C168.338 57.0806 168.487 56.418 168.786 55.8113C169.085 55.1953 169.514 54.7006 170.074 54.3273C170.643 53.954 171.311 53.7673 172.076 53.7673C172.739 53.7673 173.355 53.9166 173.924 54.2153C174.493 54.514 174.951 54.9526 175.296 55.5313C175.641 56.1006 175.814 56.7866 175.814 57.5893V58.0093H170.284C170.219 58.0093 170.088 58.0093 169.892 58.0093C169.705 58.0093 169.533 58 169.374 57.9813L169.332 58.2053C169.416 58.224 169.472 58.2566 169.5 58.3033C169.537 58.3406 169.565 58.4106 169.584 58.5133C169.612 58.6066 169.64 58.6953 169.668 58.7793C169.864 59.3766 170.177 59.8526 170.606 60.2073C171.045 60.562 171.539 60.7393 172.09 60.7393C172.65 60.7393 173.131 60.59 173.532 60.2913C173.933 59.9926 174.223 59.6146 174.4 59.1573H175.674C175.422 59.9413 174.993 60.576 174.386 61.0613C173.779 61.5466 173.019 61.7893 172.104 61.7893ZM169.612 57.2253C169.715 57.132 169.817 57.0666 169.92 57.0293C170.032 56.9826 170.167 56.9593 170.326 56.9593H173.798C173.975 56.9593 174.125 56.9826 174.246 57.0293C174.367 57.0666 174.484 57.132 174.596 57.2253L174.75 57.0573C174.657 56.992 174.596 56.936 174.568 56.8893C174.549 56.8333 174.531 56.7633 174.512 56.6793C174.484 56.5113 174.437 56.3526 174.372 56.2033C174.176 55.7646 173.873 55.424 173.462 55.1813C173.061 54.9386 172.608 54.8173 172.104 54.8173C171.591 54.8173 171.138 54.9386 170.746 55.1813C170.363 55.424 170.065 55.7646 169.85 56.2033C169.766 56.3806 169.715 56.5393 169.696 56.6793C169.687 56.7633 169.668 56.8286 169.64 56.8753C169.612 56.922 169.551 56.9826 169.458 57.0573L169.612 57.2253ZM180.587 61.7893C179.607 61.7893 178.809 61.556 178.193 61.0893C177.577 60.6226 177.203 59.9786 177.073 59.1573H178.319C178.421 59.652 178.659 60.0393 179.033 60.3193C179.415 60.5993 179.938 60.7393 180.601 60.7393C181.142 60.7393 181.571 60.6366 181.889 60.4313C182.215 60.226 182.379 59.932 182.379 59.5493C182.379 59.2506 182.281 59.0126 182.085 58.8353C181.898 58.6486 181.655 58.5086 181.357 58.4153C181.067 58.322 180.68 58.2286 180.195 58.1353C179.588 58.014 179.098 57.8926 178.725 57.7713C178.361 57.6406 178.048 57.4353 177.787 57.1553C177.525 56.8753 177.395 56.488 177.395 55.9933C177.395 55.2933 177.656 54.7473 178.179 54.3553C178.711 53.9633 179.387 53.7673 180.209 53.7673C181.049 53.7673 181.749 53.9866 182.309 54.4253C182.869 54.864 183.214 55.466 183.345 56.2313H182.239C182.127 55.7553 181.893 55.4006 181.539 55.1673C181.184 54.934 180.741 54.8173 180.209 54.8173C179.695 54.8173 179.294 54.9153 179.005 55.1113C178.725 55.298 178.585 55.5593 178.585 55.8953C178.585 56.1566 178.673 56.362 178.851 56.5113C179.028 56.6606 179.247 56.7773 179.509 56.8613C179.77 56.936 180.139 57.02 180.615 57.1133C181.24 57.2346 181.749 57.3653 182.141 57.5053C182.533 57.636 182.869 57.8553 183.149 58.1633C183.429 58.462 183.569 58.882 183.569 59.4233C183.569 60.1513 183.307 60.73 182.785 61.1593C182.262 61.5793 181.529 61.7893 180.587 61.7893ZM187.626 61.6493C187.001 61.6493 186.539 61.5093 186.24 61.2293C185.941 60.9493 185.792 60.4406 185.792 59.7033V54.9573H184.546V53.9073H185.792V50.9673H186.982V53.9073H188.718V54.9573H186.982V59.4653C186.982 59.736 187.001 59.9506 187.038 60.1093C187.075 60.2586 187.159 60.38 187.29 60.4733C187.421 60.5573 187.626 60.5993 187.906 60.5993H188.704V61.6493H187.626ZM194.144 61.6493V53.9073H195.334V61.6493H194.144ZM194.746 52.5773C194.494 52.5773 194.28 52.4933 194.102 52.3253C193.925 52.148 193.836 51.938 193.836 51.6953C193.836 51.4526 193.925 51.2473 194.102 51.0793C194.28 50.9113 194.494 50.8273 194.746 50.8273C194.998 50.8273 195.213 50.9113 195.39 51.0793C195.568 51.2473 195.656 51.4526 195.656 51.6953C195.656 51.938 195.568 52.148 195.39 52.3253C195.213 52.4933 194.998 52.5773 194.746 52.5773ZM197.316 53.9073H198.506V54.4113C198.506 54.542 198.492 54.654 198.464 54.7473C198.446 54.8313 198.404 54.9153 198.338 54.9993L198.534 55.1253C198.889 54.64 199.239 54.2946 199.584 54.0893C199.93 53.8746 200.336 53.7673 200.802 53.7673C201.894 53.7673 202.655 54.1733 203.084 54.9853C203.243 55.2933 203.341 55.6106 203.378 55.9373C203.425 56.2546 203.448 56.6046 203.448 56.9873V61.6493H202.258V56.9873C202.258 56.166 202.109 55.5873 201.81 55.2513C201.549 54.962 201.152 54.8173 200.62 54.8173C200.032 54.8173 199.561 55.0086 199.206 55.3913C198.954 55.6526 198.772 56.012 198.66 56.4693C198.558 56.9266 198.506 57.552 198.506 58.3453V61.6493H197.316V53.9073ZM208.505 61.7893C207.525 61.7893 206.727 61.556 206.111 61.0893C205.495 60.6226 205.121 59.9786 204.991 59.1573H206.237C206.339 59.652 206.577 60.0393 206.951 60.3193C207.333 60.5993 207.856 60.7393 208.519 60.7393C209.06 60.7393 209.489 60.6366 209.807 60.4313C210.133 60.226 210.297 59.932 210.297 59.5493C210.297 59.2506 210.199 59.0126 210.003 58.8353C209.816 58.6486 209.573 58.5086 209.275 58.4153C208.985 58.322 208.598 58.2286 208.113 58.1353C207.506 58.014 207.016 57.8926 206.643 57.7713C206.279 57.6406 205.966 57.4353 205.705 57.1553C205.443 56.8753 205.313 56.488 205.313 55.9933C205.313 55.2933 205.574 54.7473 206.097 54.3553C206.629 53.9633 207.305 53.7673 208.127 53.7673C208.967 53.7673 209.667 53.9866 210.227 54.4253C210.787 54.864 211.132 55.466 211.263 56.2313H210.157C210.045 55.7553 209.811 55.4006 209.457 55.1673C209.102 54.934 208.659 54.8173 208.127 54.8173C207.613 54.8173 207.212 54.9153 206.923 55.1113C206.643 55.298 206.503 55.5593 206.503 55.8953C206.503 56.1566 206.591 56.362 206.769 56.5113C206.946 56.6606 207.165 56.7773 207.427 56.8613C207.688 56.936 208.057 57.02 208.533 57.1133C209.158 57.2346 209.667 57.3653 210.059 57.5053C210.451 57.636 210.787 57.8553 211.067 58.1633C211.347 58.462 211.487 58.882 211.487 59.4233C211.487 60.1513 211.225 60.73 210.703 61.1593C210.18 61.5793 209.447 61.7893 208.505 61.7893ZM215.544 61.6493C214.919 61.6493 214.457 61.5093 214.158 61.2293C213.859 60.9493 213.71 60.4406 213.71 59.7033V54.9573H212.464V53.9073H213.71V50.9673H214.9V53.9073H216.636V54.9573H214.9V59.4653C214.9 59.736 214.919 59.9506 214.956 60.1093C214.993 60.2586 215.077 60.38 215.208 60.4733C215.339 60.5573 215.544 60.5993 215.824 60.5993H216.622V61.6493H215.544ZM218.139 61.6493V53.9073H219.329V61.6493H218.139ZM218.741 52.5773C218.489 52.5773 218.274 52.4933 218.097 52.3253C217.919 52.148 217.831 51.938 217.831 51.6953C217.831 51.4526 217.919 51.2473 218.097 51.0793C218.274 50.9113 218.489 50.8273 218.741 50.8273C218.993 50.8273 219.207 50.9113 219.385 51.0793C219.562 51.2473 219.651 51.4526 219.651 51.6953C219.651 51.938 219.562 52.148 219.385 52.3253C219.207 52.4933 218.993 52.5773 218.741 52.5773ZM223.774 61.6493C223.149 61.6493 222.687 61.5093 222.388 61.2293C222.09 60.9493 221.94 60.4406 221.94 59.7033V54.9573H220.694V53.9073H221.94V50.9673H223.13V53.9073H224.866V54.9573H223.13V59.4653C223.13 59.736 223.149 59.9506 223.186 60.1093C223.224 60.2586 223.308 60.38 223.438 60.4733C223.569 60.5573 223.774 60.5993 224.054 60.5993H224.852V61.6493H223.774ZM228.987 61.7893C227.895 61.7893 227.134 61.3833 226.705 60.5713C226.546 60.2633 226.444 59.9506 226.397 59.6333C226.36 59.3066 226.341 58.952 226.341 58.5693V53.9073H227.531V58.5693C227.531 59.3906 227.68 59.9693 227.979 60.3053C228.24 60.5946 228.637 60.7393 229.169 60.7393C229.757 60.7393 230.228 60.548 230.583 60.1653C230.835 59.904 231.012 59.5446 231.115 59.0873C231.227 58.63 231.283 58.0046 231.283 57.2113V53.9073H232.473V61.6493H231.283V61.1453C231.283 61.0146 231.292 60.9073 231.311 60.8233C231.339 60.73 231.386 60.6413 231.451 60.5573L231.255 60.4313C230.9 60.9166 230.55 61.2666 230.205 61.4813C229.86 61.6866 229.454 61.7893 228.987 61.7893ZM236.927 61.6493C236.301 61.6493 235.839 61.5093 235.541 61.2293C235.242 60.9493 235.093 60.4406 235.093 59.7033V54.9573H233.847V53.9073H235.093V50.9673H236.283V53.9073H238.019V54.9573H236.283V59.4653C236.283 59.736 236.301 59.9506 236.339 60.1093C236.376 60.2586 236.46 60.38 236.591 60.4733C236.721 60.5573 236.927 60.5993 237.207 60.5993H238.005V61.6493H236.927ZM242.747 61.7893C242.019 61.7893 241.365 61.6166 240.787 61.2713C240.217 60.926 239.774 60.45 239.457 59.8433C239.139 59.2366 238.981 58.5553 238.981 57.7993C238.981 57.0806 239.13 56.418 239.429 55.8113C239.727 55.1953 240.157 54.7006 240.717 54.3273C241.286 53.954 241.953 53.7673 242.719 53.7673C243.381 53.7673 243.997 53.9166 244.567 54.2153C245.136 54.514 245.593 54.9526 245.939 55.5313C246.284 56.1006 246.457 56.7866 246.457 57.5893V58.0093H240.927C240.861 58.0093 240.731 58.0093 240.535 58.0093C240.348 58.0093 240.175 58 240.017 57.9813L239.975 58.2053C240.059 58.224 240.115 58.2566 240.143 58.3033C240.18 58.3406 240.208 58.4106 240.227 58.5133C240.255 58.6066 240.283 58.6953 240.311 58.7793C240.507 59.3766 240.819 59.8526 241.249 60.2073C241.687 60.562 242.182 60.7393 242.733 60.7393C243.293 60.7393 243.773 60.59 244.175 60.2913C244.576 59.9926 244.865 59.6146 245.043 59.1573H246.317C246.065 59.9413 245.635 60.576 245.029 61.0613C244.422 61.5466 243.661 61.7893 242.747 61.7893ZM240.255 57.2253C240.357 57.132 240.46 57.0666 240.563 57.0293C240.675 56.9826 240.81 56.9593 240.969 56.9593H244.441C244.618 56.9593 244.767 56.9826 244.889 57.0293C245.01 57.0666 245.127 57.132 245.239 57.2253L245.393 57.0573C245.299 56.992 245.239 56.936 245.211 56.8893C245.192 56.8333 245.173 56.7633 245.155 56.6793C245.127 56.5113 245.08 56.3526 245.015 56.2033C244.819 55.7646 244.515 55.424 244.105 55.1813C243.703 54.9386 243.251 54.8173 242.747 54.8173C242.233 54.8173 241.781 54.9386 241.389 55.1813C241.006 55.424 240.707 55.7646 240.493 56.2033C240.409 56.3806 240.357 56.5393 240.339 56.6793C240.329 56.7633 240.311 56.8286 240.283 56.8753C240.255 56.922 240.194 56.9826 240.101 57.0573L240.255 57.2253ZM255.489 61.7893C254.761 61.7893 254.108 61.6166 253.529 61.2713C252.96 60.926 252.512 60.4453 252.185 59.8293C251.868 59.2133 251.709 58.518 251.709 57.7433C251.709 56.9873 251.868 56.306 252.185 55.6993C252.512 55.0926 252.96 54.6213 253.529 54.2853C254.108 53.94 254.761 53.7673 255.489 53.7673C256.217 53.7673 256.87 53.94 257.449 54.2853C258.028 54.6213 258.48 55.0926 258.807 55.6993C259.134 56.306 259.297 56.9873 259.297 57.7433C259.297 58.518 259.134 59.2133 258.807 59.8293C258.49 60.436 258.042 60.9166 257.463 61.2713C256.884 61.6166 256.226 61.7893 255.489 61.7893ZM255.489 60.7393C255.974 60.7393 256.413 60.6086 256.805 60.3473C257.206 60.086 257.519 59.7313 257.743 59.2833C257.976 58.826 258.093 58.3126 258.093 57.7433C258.093 57.202 257.981 56.7073 257.757 56.2593C257.533 55.8113 257.22 55.4613 256.819 55.2093C256.427 54.948 255.984 54.8173 255.489 54.8173C255.004 54.8173 254.56 54.9433 254.159 55.1953C253.767 55.4473 253.459 55.7973 253.235 56.2453C253.011 56.6933 252.899 57.1926 252.899 57.7433C252.899 58.3126 253.011 58.826 253.235 59.2833C253.459 59.7406 253.767 60.1 254.159 60.3613C254.56 60.6133 255.004 60.7393 255.489 60.7393ZM261.439 54.9573H260.151V53.9073H261.439V53.0673C261.439 52.3766 261.607 51.854 261.943 51.4993C262.279 51.1446 262.778 50.9673 263.441 50.9673H264.435V52.0173H263.707C263.334 52.0173 263.058 52.1153 262.881 52.3113C262.713 52.5073 262.629 52.8106 262.629 53.2213C262.629 53.3426 262.62 53.4546 262.601 53.5573C262.592 53.6506 262.554 53.7673 262.489 53.9073L262.629 54.0473C262.769 53.982 262.881 53.9446 262.965 53.9353C263.058 53.9166 263.161 53.9073 263.273 53.9073H264.435V54.9573H262.629V61.6493H261.439V54.9573ZM271.838 61.7893C271.064 61.7893 270.448 61.5933 269.99 61.2013C269.542 60.8093 269.318 60.2726 269.318 59.5913C269.318 58.9193 269.57 58.3873 270.074 57.9953C270.485 57.6686 271.078 57.426 271.852 57.2673L274.61 56.7353C274.62 56.138 274.461 55.676 274.134 55.3493C273.78 54.9946 273.304 54.8173 272.706 54.8173C272.23 54.8173 271.815 54.948 271.46 55.2093C271.115 55.4613 270.896 55.802 270.802 56.2313H269.612C269.743 55.4566 270.098 54.8546 270.676 54.4253C271.264 53.9866 271.946 53.7673 272.72 53.7673C273.178 53.7673 273.602 53.8373 273.994 53.9773C274.386 54.108 274.718 54.304 274.988 54.5653C275.343 54.9013 275.567 55.2886 275.66 55.7273C275.754 56.166 275.8 56.6186 275.8 57.0853V61.6493H274.61V61.2853C274.61 61.052 274.657 60.786 274.75 60.4873L274.554 60.4033C274.302 60.8046 274.008 61.1173 273.672 61.3413C273.439 61.5 273.173 61.612 272.874 61.6773C272.585 61.752 272.24 61.7893 271.838 61.7893ZM271.978 60.7393C272.426 60.7393 272.837 60.6506 273.21 60.4733C273.668 60.24 274.004 59.9273 274.218 59.5353C274.377 59.2553 274.48 58.9893 274.526 58.7373C274.582 58.4853 274.615 58.3313 274.624 58.2753C274.652 58.1353 274.69 58.0326 274.736 57.9673C274.783 57.902 274.853 57.8646 274.946 57.8553L274.904 57.6313L273.098 58.0093L272.104 58.2053C271.526 58.3173 271.101 58.4993 270.83 58.7513C270.616 58.966 270.508 59.2366 270.508 59.5633C270.508 59.918 270.639 60.2026 270.9 60.4173C271.171 60.632 271.53 60.7393 271.978 60.7393ZM281.151 61.7893C280.423 61.7893 279.77 61.6166 279.191 61.2713C278.622 60.926 278.178 60.45 277.861 59.8433C277.544 59.2366 277.385 58.5553 277.385 57.7993C277.385 57.0806 277.534 56.418 277.833 55.8113C278.132 55.1953 278.561 54.7006 279.121 54.3273C279.69 53.954 280.358 53.7673 281.123 53.7673C281.786 53.7673 282.402 53.9166 282.971 54.2153C283.54 54.514 283.998 54.9526 284.343 55.5313C284.688 56.1006 284.861 56.7866 284.861 57.5893V58.0093H279.331C279.266 58.0093 279.135 58.0093 278.939 58.0093C278.752 58.0093 278.58 58 278.421 57.9813L278.379 58.2053C278.463 58.224 278.519 58.2566 278.547 58.3033C278.584 58.3406 278.612 58.4106 278.631 58.5133C278.659 58.6066 278.687 58.6953 278.715 58.7793C278.911 59.3766 279.224 59.8526 279.653 60.2073C280.092 60.562 280.586 60.7393 281.137 60.7393C281.697 60.7393 282.178 60.59 282.579 60.2913C282.98 59.9926 283.27 59.6146 283.447 59.1573H284.721C284.469 59.9413 284.04 60.576 283.433 61.0613C282.826 61.5466 282.066 61.7893 281.151 61.7893ZM278.659 57.2253C278.762 57.132 278.864 57.0666 278.967 57.0293C279.079 56.9826 279.214 56.9593 279.373 56.9593H282.845C283.022 56.9593 283.172 56.9826 283.293 57.0293C283.414 57.0666 283.531 57.132 283.643 57.2253L283.797 57.0573C283.704 56.992 283.643 56.936 283.615 56.8893C283.596 56.8333 283.578 56.7633 283.559 56.6793C283.531 56.5113 283.484 56.3526 283.419 56.2033C283.223 55.7646 282.92 55.424 282.509 55.1813C282.108 54.9386 281.655 54.8173 281.151 54.8173C280.638 54.8173 280.185 54.9386 279.793 55.1813C279.41 55.424 279.112 55.7646 278.897 56.2033C278.813 56.3806 278.762 56.5393 278.743 56.6793C278.734 56.7633 278.715 56.8286 278.687 56.8753C278.659 56.922 278.598 56.9826 278.505 57.0573L278.659 57.2253ZM289.634 61.7893C288.654 61.7893 287.856 61.556 287.24 61.0893C286.624 60.6226 286.25 59.9786 286.12 59.1573H287.366C287.468 59.652 287.706 60.0393 288.08 60.3193C288.462 60.5993 288.985 60.7393 289.648 60.7393C290.189 60.7393 290.618 60.6366 290.936 60.4313C291.262 60.226 291.426 59.932 291.426 59.5493C291.426 59.2506 291.328 59.0126 291.132 58.8353C290.945 58.6486 290.702 58.5086 290.404 58.4153C290.114 58.322 289.727 58.2286 289.242 58.1353C288.635 58.014 288.145 57.8926 287.772 57.7713C287.408 57.6406 287.095 57.4353 286.834 57.1553C286.572 56.8753 286.442 56.488 286.442 55.9933C286.442 55.2933 286.703 54.7473 287.226 54.3553C287.758 53.9633 288.434 53.7673 289.256 53.7673C290.096 53.7673 290.796 53.9866 291.356 54.4253C291.916 54.864 292.261 55.466 292.392 56.2313H291.286C291.174 55.7553 290.94 55.4006 290.586 55.1673C290.231 54.934 289.788 54.8173 289.256 54.8173C288.742 54.8173 288.341 54.9153 288.052 55.1113C287.772 55.298 287.632 55.5593 287.632 55.8953C287.632 56.1566 287.72 56.362 287.898 56.5113C288.075 56.6606 288.294 56.7773 288.556 56.8613C288.817 56.936 289.186 57.02 289.662 57.1133C290.287 57.2346 290.796 57.3653 291.188 57.5053C291.58 57.636 291.916 57.8553 292.196 58.1633C292.476 58.462 292.616 58.882 292.616 59.4233C292.616 60.1513 292.354 60.73 291.832 61.1593C291.309 61.5793 290.576 61.7893 289.634 61.7893ZM296.673 61.6493C296.048 61.6493 295.586 61.5093 295.287 61.2293C294.988 60.9493 294.839 60.4406 294.839 59.7033V54.9573H293.593V53.9073H294.839V50.9673H296.029V53.9073H297.765V54.9573H296.029V59.4653C296.029 59.736 296.048 59.9506 296.085 60.1093C296.122 60.2586 296.206 60.38 296.337 60.4733C296.468 60.5573 296.673 60.5993 296.953 60.5993H297.751V61.6493H296.673ZM299.281 50.9673H300.471V54.4113C300.471 54.542 300.457 54.654 300.429 54.7473C300.411 54.8313 300.369 54.9153 300.303 54.9993L300.499 55.1253C300.854 54.64 301.204 54.2946 301.549 54.0893C301.895 53.8746 302.301 53.7673 302.767 53.7673C303.859 53.7673 304.62 54.1733 305.049 54.9853C305.208 55.2933 305.306 55.6106 305.343 55.9373C305.39 56.2546 305.413 56.6046 305.413 56.9873V61.6493H304.223V56.9873C304.223 56.166 304.074 55.5873 303.775 55.2513C303.514 54.962 303.117 54.8173 302.585 54.8173C301.997 54.8173 301.526 55.0086 301.171 55.3913C300.919 55.6526 300.737 56.012 300.625 56.4693C300.523 56.9266 300.471 57.552 300.471 58.3453V61.6493H299.281V50.9673ZM310.792 61.7893C310.064 61.7893 309.41 61.6166 308.832 61.2713C308.262 60.926 307.819 60.45 307.502 59.8433C307.184 59.2366 307.026 58.5553 307.026 57.7993C307.026 57.0806 307.175 56.418 307.474 55.8113C307.772 55.1953 308.202 54.7006 308.762 54.3273C309.331 53.954 309.998 53.7673 310.764 53.7673C311.426 53.7673 312.042 53.9166 312.612 54.2153C313.181 54.514 313.638 54.9526 313.984 55.5313C314.329 56.1006 314.502 56.7866 314.502 57.5893V58.0093H308.972C308.906 58.0093 308.776 58.0093 308.58 58.0093C308.393 58.0093 308.22 58 308.062 57.9813L308.02 58.2053C308.104 58.224 308.16 58.2566 308.188 58.3033C308.225 58.3406 308.253 58.4106 308.272 58.5133C308.3 58.6066 308.328 58.6953 308.356 58.7793C308.552 59.3766 308.864 59.8526 309.294 60.2073C309.732 60.562 310.227 60.7393 310.778 60.7393C311.338 60.7393 311.818 60.59 312.22 60.2913C312.621 59.9926 312.91 59.6146 313.088 59.1573H314.362C314.11 59.9413 313.68 60.576 313.074 61.0613C312.467 61.5466 311.706 61.7893 310.792 61.7893ZM308.3 57.2253C308.402 57.132 308.505 57.0666 308.608 57.0293C308.72 56.9826 308.855 56.9593 309.014 56.9593H312.486C312.663 56.9593 312.812 56.9826 312.934 57.0293C313.055 57.0666 313.172 57.132 313.284 57.2253L313.438 57.0573C313.344 56.992 313.284 56.936 313.256 56.8893C313.237 56.8333 313.218 56.7633 313.2 56.6793C313.172 56.5113 313.125 56.3526 313.06 56.2033C312.864 55.7646 312.56 55.424 312.15 55.1813C311.748 54.9386 311.296 54.8173 310.792 54.8173C310.278 54.8173 309.826 54.9386 309.434 55.1813C309.051 55.424 308.752 55.7646 308.538 56.2033C308.454 56.3806 308.402 56.5393 308.384 56.6793C308.374 56.7633 308.356 56.8286 308.328 56.8753C308.3 56.922 308.239 56.9826 308.146 57.0573L308.3 57.2253ZM318.411 61.6493C317.786 61.6493 317.324 61.5093 317.025 61.2293C316.726 60.9493 316.577 60.4406 316.577 59.7033V54.9573H315.331V53.9073H316.577V50.9673H317.767V53.9073H319.503V54.9573H317.767V59.4653C317.767 59.736 317.786 59.9506 317.823 60.1093C317.86 60.2586 317.944 60.38 318.075 60.4733C318.206 60.5573 318.411 60.5993 318.691 60.5993H319.489V61.6493H318.411ZM321.006 61.6493V53.9073H322.196V61.6493H321.006ZM321.608 52.5773C321.356 52.5773 321.141 52.4933 320.964 52.3253C320.786 52.148 320.698 51.938 320.698 51.6953C320.698 51.4526 320.786 51.2473 320.964 51.0793C321.141 50.9113 321.356 50.8273 321.608 50.8273C321.86 50.8273 322.074 50.9113 322.252 51.0793C322.429 51.2473 322.518 51.4526 322.518 51.6953C322.518 51.938 322.429 52.148 322.252 52.3253C322.074 52.4933 321.86 52.5773 321.608 52.5773ZM327.608 61.7893C326.88 61.7893 326.231 61.6166 325.662 61.2713C325.092 60.926 324.649 60.4453 324.332 59.8293C324.014 59.2133 323.856 58.518 323.856 57.7433C323.856 56.9873 324.014 56.306 324.332 55.6993C324.649 55.0926 325.092 54.6213 325.662 54.2853C326.231 53.94 326.88 53.7673 327.608 53.7673C328.476 53.7673 329.208 53.9913 329.806 54.4393C330.412 54.878 330.804 55.4753 330.982 56.2313H329.708C329.558 55.802 329.292 55.4613 328.91 55.2093C328.536 54.948 328.102 54.8173 327.608 54.8173C327.122 54.8173 326.684 54.9433 326.292 55.1953C325.909 55.4473 325.606 55.7973 325.382 56.2453C325.158 56.684 325.046 57.1833 325.046 57.7433C325.046 58.322 325.153 58.84 325.368 59.2973C325.592 59.7453 325.9 60.1 326.292 60.3613C326.684 60.6133 327.122 60.7393 327.608 60.7393C328.14 60.7393 328.597 60.5946 328.98 60.3053C329.372 60.016 329.633 59.6333 329.764 59.1573H331.038C330.87 59.9786 330.473 60.6226 329.848 61.0893C329.232 61.556 328.485 61.7893 327.608 61.7893ZM335.721 61.7893C334.741 61.7893 333.943 61.556 333.327 61.0893C332.711 60.6226 332.338 59.9786 332.207 59.1573H333.453C333.556 59.652 333.794 60.0393 334.167 60.3193C334.55 60.5993 335.073 60.7393 335.735 60.7393C336.277 60.7393 336.706 60.6366 337.023 60.4313C337.35 60.226 337.513 59.932 337.513 59.5493C337.513 59.2506 337.415 59.0126 337.219 58.8353C337.033 58.6486 336.79 58.5086 336.491 58.4153C336.202 58.322 335.815 58.2286 335.329 58.1353C334.723 58.014 334.233 57.8926 333.859 57.7713C333.495 57.6406 333.183 57.4353 332.921 57.1553C332.66 56.8753 332.529 56.488 332.529 55.9933C332.529 55.2933 332.791 54.7473 333.313 54.3553C333.845 53.9633 334.522 53.7673 335.343 53.7673C336.183 53.7673 336.883 53.9866 337.443 54.4253C338.003 54.864 338.349 55.466 338.479 56.2313H337.373C337.261 55.7553 337.028 55.4006 336.673 55.1673C336.319 54.934 335.875 54.8173 335.343 54.8173C334.83 54.8173 334.429 54.9153 334.139 55.1113C333.859 55.298 333.719 55.5593 333.719 55.8953C333.719 56.1566 333.808 56.362 333.985 56.5113C334.163 56.6606 334.382 56.7773 334.643 56.8613C334.905 56.936 335.273 57.02 335.749 57.1133C336.375 57.2346 336.883 57.3653 337.275 57.5053C337.667 57.636 338.003 57.8553 338.283 58.1633C338.563 58.462 338.703 58.882 338.703 59.4233C338.703 60.1513 338.442 60.73 337.919 61.1593C337.397 61.5793 336.664 61.7893 335.721 61.7893Z" fill="#B3B3B3"/>
<path d="M255.33 25.7343C256.171 25.7343 256.918 25.9299 257.57 26.3211C258.222 26.7004 258.726 27.2397 259.081 27.9391C259.449 28.6384 259.633 29.4385 259.633 30.3394C259.633 31.2758 259.425 32.1174 259.01 32.8642C258.607 33.5991 258.038 34.18 257.303 34.6067C256.568 35.0216 255.733 35.229 254.796 35.229C253.931 35.229 253.155 35.0571 252.467 34.7134C251.78 34.3696 251.223 33.8836 250.796 33.2554C250.369 32.6271 250.114 31.8982 250.031 31.0684H252.289C252.42 31.7559 252.71 32.2834 253.161 32.6508C253.623 33.0183 254.192 33.202 254.867 33.202C255.65 33.202 256.26 32.9413 256.699 32.4197C257.149 31.8863 257.375 31.1988 257.375 30.3572C257.375 29.5512 257.143 28.8992 256.681 28.4014C256.219 27.9035 255.608 27.6546 254.85 27.6546C254.328 27.6546 253.86 27.785 253.445 28.0458C253.03 28.3065 252.704 28.674 252.467 29.1481H250.191L251.614 21.4493H259.01V23.4762H253.285L252.894 25.5032C252.823 25.9418 252.704 26.3507 252.538 26.73L252.734 26.8545C253.398 26.1077 254.263 25.7343 255.33 25.7343ZM265.416 33.9844V29.8238H261.274V28.2058H265.416V24.0452H267.052V28.2058H271.195V29.8238H267.052V33.9844H265.416Z" fill="black"/>
<g clip-path="url(#clip0_547_2)">
<path d="M213.18 26.4159C213.18 30.9548 216.866 34.6402 221.405 34.6402C225.944 34.6402 229.629 30.9548 229.629 26.4159C229.629 21.8769 225.944 18.1915 221.405 18.1915C216.866 18.1915 213.18 21.8851 213.18 26.4159ZM221.405 19.2914C225.336 19.2914 228.529 22.4925 228.529 26.4159C228.529 30.3392 225.328 33.5403 221.405 33.5403C217.481 33.5403 214.28 30.3392 214.28 26.4159C214.28 22.4925 217.473 19.2914 221.405 19.2914Z" fill="#333333"/>
<path d="M216.332 25.4389L218.458 27.5319L217.966 30.4786C217.933 30.6838 218.015 30.889 218.187 31.0121C218.351 31.1352 218.581 31.1516 218.762 31.0531L221.413 29.6742L224.064 31.0531C224.245 31.1516 224.466 31.1352 224.639 31.0121C224.803 30.889 224.893 30.6838 224.86 30.4786L224.368 27.5319L226.494 25.4389C226.641 25.2912 226.691 25.0778 226.633 24.8808C226.567 24.6838 226.395 24.536 226.19 24.5114L223.243 24.0682L221.905 21.4006C221.815 21.2118 221.626 21.0969 221.413 21.0969C221.2 21.0969 221.019 21.2118 220.92 21.4006L219.583 24.0682L216.636 24.5114C216.431 24.5442 216.258 24.6838 216.193 24.8808C216.127 25.0778 216.184 25.2912 216.332 25.4389ZM220.026 25.1024C220.206 25.0778 220.354 24.9628 220.436 24.8069L221.405 22.8616L222.373 24.8069C222.455 24.9628 222.603 25.0778 222.784 25.1024L224.934 25.4225L223.391 26.9492C223.268 27.0723 223.202 27.2529 223.235 27.4334L223.588 29.5757L221.659 28.5743C221.577 28.5333 221.495 28.5087 221.405 28.5087C221.314 28.5087 221.232 28.5333 221.15 28.5743L219.221 29.5757L219.574 27.4334C219.607 27.2611 219.542 27.0805 219.418 26.9492L217.875 25.4225L220.026 25.1024Z" fill="#333333"/>
<path d="M221.954 16.5499C221.954 16.8536 221.708 17.0999 221.404 17.0999C221.1 17.0999 220.854 16.8536 220.854 16.5499C220.854 16.2462 221.1 16 221.404 16C221.708 16 221.954 16.2462 221.954 16.5499Z" fill="#333333"/>
<path d="M218.819 16.3201C214.206 17.5021 210.989 21.6553 210.989 26.4159C210.989 29.3789 212.236 32.1614 214.42 34.1395L211.112 39.9671C211.005 40.1559 211.022 40.3857 211.145 40.5581C211.268 40.7305 211.489 40.8125 211.703 40.7715L215.454 39.9917L216.775 43.7099C216.849 43.9151 217.03 44.0547 217.243 44.0711C217.457 44.0875 217.662 43.9808 217.769 43.792L221.405 37.3898L225.041 43.792C225.139 43.9644 225.32 44.0711 225.517 44.0711C225.533 44.0711 225.55 44.0711 225.566 44.0711C225.779 44.0547 225.96 43.9069 226.034 43.7099L227.355 39.9917L231.106 40.7715C231.32 40.8125 231.533 40.7305 231.664 40.5581C231.788 40.3857 231.804 40.1559 231.697 39.9671L228.398 34.1477C230.581 32.1696 231.829 29.3871 231.829 26.4241C231.829 21.6553 228.611 17.5103 223.998 16.3283C223.703 16.2545 223.407 16.4268 223.333 16.7223C223.26 17.0178 223.432 17.3133 223.727 17.3872C227.856 18.4378 230.737 22.156 230.737 26.4159C230.737 31.6033 226.518 35.7401 221.413 35.7401C216.307 35.7401 212.089 31.6033 212.089 26.4159C212.089 22.156 214.97 18.4378 219.09 17.3872C219.385 17.3133 219.558 17.0096 219.484 16.7223C219.41 16.4268 219.115 16.2545 218.819 16.3283V16.3201ZM217.399 42.2079L216.324 39.171C216.234 38.9165 215.963 38.7606 215.692 38.818L212.655 39.45L215.273 34.8454C216.8 35.9535 218.606 36.6265 220.477 36.7989L217.399 42.2161V42.2079ZM227.109 38.818C226.838 38.7606 226.576 38.9165 226.477 39.171L225.402 42.2079L222.324 36.7907C224.204 36.6265 226.009 35.9452 227.528 34.8372L230.146 39.4418L227.109 38.8098V38.818Z" fill="#333333"/>
</g>
<path d="M364.628 61.7893C363.545 61.7893 362.635 61.542 361.898 61.0473C361.161 60.5433 360.61 59.876 360.246 59.0453C359.882 58.2146 359.7 57.3 359.7 56.3013C359.7 55.3026 359.882 54.388 360.246 53.5573C360.61 52.7266 361.161 52.064 361.898 51.5693C362.635 51.0746 363.545 50.8273 364.628 50.8273C365.403 50.8273 366.093 50.958 366.7 51.2193C367.307 51.4806 367.797 51.8446 368.17 52.3113C368.543 52.778 368.786 53.3146 368.898 53.9213H367.498C367.367 53.324 367.041 52.8526 366.518 52.5073C366.005 52.1526 365.365 51.9753 364.6 51.9753C363.825 51.9753 363.167 52.162 362.626 52.5353C362.085 52.8993 361.674 53.408 361.394 54.0613C361.123 54.7146 360.988 55.4613 360.988 56.3013C360.988 57.1506 361.123 57.902 361.394 58.5553C361.674 59.2086 362.085 59.722 362.626 60.0953C363.167 60.4593 363.825 60.6413 364.6 60.6413C365.384 60.6413 366.028 60.4546 366.532 60.0813C367.045 59.6986 367.367 59.1433 367.498 58.4153H368.898C368.73 59.4606 368.268 60.2866 367.512 60.8933C366.765 61.4906 365.804 61.7893 364.628 61.7893ZM373.085 61.7893C371.993 61.7893 371.232 61.3833 370.803 60.5713C370.644 60.2633 370.541 59.9506 370.495 59.6333C370.457 59.3066 370.439 58.952 370.439 58.5693V53.9073H371.629V58.5693C371.629 59.3906 371.778 59.9693 372.077 60.3053C372.338 60.5946 372.735 60.7393 373.267 60.7393C373.855 60.7393 374.326 60.548 374.681 60.1653C374.933 59.904 375.11 59.5446 375.213 59.0873C375.325 58.63 375.381 58.0046 375.381 57.2113V53.9073H376.571V61.6493H375.381V61.1453C375.381 61.0146 375.39 60.9073 375.409 60.8233C375.437 60.73 375.483 60.6413 375.549 60.5573L375.353 60.4313C374.998 60.9166 374.648 61.2666 374.303 61.4813C373.957 61.6866 373.551 61.7893 373.085 61.7893ZM381.682 61.7893C380.702 61.7893 379.904 61.556 379.288 61.0893C378.672 60.6226 378.299 59.9786 378.168 59.1573H379.414C379.517 59.652 379.755 60.0393 380.128 60.3193C380.511 60.5993 381.034 60.7393 381.696 60.7393C382.238 60.7393 382.667 60.6366 382.984 60.4313C383.311 60.226 383.474 59.932 383.474 59.5493C383.474 59.2506 383.376 59.0126 383.18 58.8353C382.994 58.6486 382.751 58.5086 382.452 58.4153C382.163 58.322 381.776 58.2286 381.29 58.1353C380.684 58.014 380.194 57.8926 379.82 57.7713C379.456 57.6406 379.144 57.4353 378.882 57.1553C378.621 56.8753 378.49 56.488 378.49 55.9933C378.49 55.2933 378.752 54.7473 379.274 54.3553C379.806 53.9633 380.483 53.7673 381.304 53.7673C382.144 53.7673 382.844 53.9866 383.404 54.4253C383.964 54.864 384.31 55.466 384.44 56.2313H383.334C383.222 55.7553 382.989 55.4006 382.634 55.1673C382.28 54.934 381.836 54.8173 381.304 54.8173C380.791 54.8173 380.39 54.9153 380.1 55.1113C379.82 55.298 379.68 55.5593 379.68 55.8953C379.68 56.1566 379.769 56.362 379.946 56.5113C380.124 56.6606 380.343 56.7773 380.604 56.8613C380.866 56.936 381.234 57.02 381.71 57.1133C382.336 57.2346 382.844 57.3653 383.236 57.5053C383.628 57.636 383.964 57.8553 384.244 58.1633C384.524 58.462 384.664 58.882 384.664 59.4233C384.664 60.1513 384.403 60.73 383.88 61.1593C383.358 61.5793 382.625 61.7893 381.682 61.7893ZM388.722 61.6493C388.096 61.6493 387.634 61.5093 387.336 61.2293C387.037 60.9493 386.888 60.4406 386.888 59.7033V54.9573H385.642V53.9073H386.888V50.9673H388.078V53.9073H389.814V54.9573H388.078V59.4653C388.078 59.736 388.096 59.9506 388.134 60.1093C388.171 60.2586 388.255 60.38 388.386 60.4733C388.516 60.5573 388.722 60.5993 389.002 60.5993H389.8V61.6493H388.722ZM392.016 61.7893C391.783 61.7893 391.582 61.71 391.414 61.5513C391.246 61.3833 391.162 61.1826 391.162 60.9493C391.162 60.7253 391.246 60.534 391.414 60.3753C391.582 60.2166 391.783 60.1373 392.016 60.1373C392.231 60.1373 392.418 60.2213 392.576 60.3893C392.735 60.548 392.814 60.7346 392.814 60.9493C392.814 61.1826 392.735 61.3833 392.576 61.5513C392.418 61.71 392.231 61.7893 392.016 61.7893ZM403.322 61.7893C402.211 61.7893 401.273 61.5373 400.508 61.0333C399.752 60.52 399.192 59.8526 398.828 59.0313C398.464 58.2006 398.282 57.2953 398.282 56.3153C398.282 55.3353 398.464 54.43 398.828 53.5993C399.201 52.7686 399.761 52.1013 400.508 51.5973C401.264 51.084 402.197 50.8273 403.308 50.8273C404.465 50.8273 405.427 51.1073 406.192 51.6673C406.967 52.218 407.508 52.9646 407.816 53.9073H406.374C406.131 53.31 405.744 52.8386 405.212 52.4933C404.68 52.148 404.036 51.9753 403.28 51.9753C402.449 51.9753 401.754 52.176 401.194 52.5773C400.643 52.9693 400.233 53.492 399.962 54.1453C399.701 54.7986 399.57 55.508 399.57 56.2733C399.57 57.076 399.71 57.8086 399.99 58.4713C400.27 59.134 400.69 59.6613 401.25 60.0533C401.819 60.4453 402.505 60.6413 403.308 60.6413C404.055 60.6413 404.708 60.4686 405.268 60.1233C405.837 59.7686 406.243 59.2926 406.486 58.6953C406.561 58.5086 406.617 58.3266 406.654 58.1493C406.691 57.972 406.719 57.8133 406.738 57.6733C406.757 57.5613 406.775 57.4586 406.794 57.3653C406.822 57.272 406.859 57.202 406.906 57.1553L406.738 56.9873C406.617 57.09 406.495 57.1553 406.374 57.1833C406.253 57.202 406.019 57.2113 405.674 57.2113H404.176V56.0633H407.998V61.6493H406.822V59.8853H406.598C406.598 60.1373 406.519 60.3753 406.36 60.5993C406.201 60.814 405.982 61.0053 405.702 61.1733C405.385 61.36 405.016 61.5093 404.596 61.6213C404.176 61.7333 403.751 61.7893 403.322 61.7893ZM411.675 61.6493C411.05 61.6493 410.588 61.5093 410.289 61.2293C409.99 60.9493 409.841 60.4406 409.841 59.7033V50.9673H411.031V59.5213C411.031 59.792 411.05 60.002 411.087 60.1513C411.124 60.2913 411.208 60.4033 411.339 60.4873C411.47 60.562 411.675 60.5993 411.955 60.5993H412.333V61.6493H411.675ZM416.841 61.7893C416.113 61.7893 415.459 61.6166 414.881 61.2713C414.311 60.926 413.863 60.4453 413.537 59.8293C413.219 59.2133 413.061 58.518 413.061 57.7433C413.061 56.9873 413.219 56.306 413.537 55.6993C413.863 55.0926 414.311 54.6213 414.881 54.2853C415.459 53.94 416.113 53.7673 416.841 53.7673C417.569 53.7673 418.222 53.94 418.801 54.2853C419.379 54.6213 419.832 55.0926 420.159 55.6993C420.485 56.306 420.649 56.9873 420.649 57.7433C420.649 58.518 420.485 59.2133 420.159 59.8293C419.841 60.436 419.393 60.9166 418.815 61.2713C418.236 61.6166 417.578 61.7893 416.841 61.7893ZM416.841 60.7393C417.326 60.7393 417.765 60.6086 418.157 60.3473C418.558 60.086 418.871 59.7313 419.095 59.2833C419.328 58.826 419.445 58.3126 419.445 57.7433C419.445 57.202 419.333 56.7073 419.109 56.2593C418.885 55.8113 418.572 55.4613 418.171 55.2093C417.779 54.948 417.335 54.8173 416.841 54.8173C416.355 54.8173 415.912 54.9433 415.511 55.1953C415.119 55.4473 414.811 55.7973 414.587 56.2453C414.363 56.6933 414.251 57.1926 414.251 57.7433C414.251 58.3126 414.363 58.826 414.587 59.2833C414.811 59.7406 415.119 60.1 415.511 60.3613C415.912 60.6133 416.355 60.7393 416.841 60.7393ZM426.062 61.7893C425.493 61.7893 425.021 61.6866 424.648 61.4813C424.284 61.276 423.92 60.926 423.556 60.4313L423.36 60.5573C423.425 60.6413 423.467 60.73 423.486 60.8233C423.514 60.9073 423.528 61.0146 423.528 61.1453V61.6493H422.338V50.9673H423.528V54.4113C423.528 54.542 423.514 54.654 423.486 54.7473C423.467 54.8313 423.425 54.9153 423.36 54.9993L423.556 55.1253C423.92 54.6306 424.284 54.2806 424.648 54.0753C425.021 53.87 425.493 53.7673 426.062 53.7673C426.753 53.7673 427.355 53.9353 427.868 54.2713C428.391 54.6073 428.792 55.0833 429.072 55.6993C429.361 56.306 429.506 57.0013 429.506 57.7853C429.506 58.5693 429.361 59.2646 429.072 59.8713C428.792 60.478 428.391 60.9493 427.868 61.2853C427.345 61.6213 426.743 61.7893 426.062 61.7893ZM425.95 60.7393C426.426 60.7393 426.841 60.6133 427.196 60.3613C427.56 60.1 427.835 59.7453 428.022 59.2973C428.218 58.8493 428.316 58.3453 428.316 57.7853C428.316 57.216 428.218 56.7073 428.022 56.2593C427.835 55.8113 427.56 55.4613 427.196 55.2093C426.841 54.948 426.426 54.8173 425.95 54.8173C425.474 54.8173 425.049 54.948 424.676 55.2093C424.303 55.4613 424.009 55.8113 423.794 56.2593C423.589 56.7073 423.486 57.216 423.486 57.7853C423.486 58.3453 423.589 58.854 423.794 59.3113C424.009 59.7593 424.303 60.1093 424.676 60.3613C425.049 60.6133 425.474 60.7393 425.95 60.7393ZM433.395 61.7893C432.62 61.7893 432.004 61.5933 431.547 61.2013C431.099 60.8093 430.875 60.2726 430.875 59.5913C430.875 58.9193 431.127 58.3873 431.631 57.9953C432.042 57.6686 432.634 57.426 433.409 57.2673L436.167 56.7353C436.176 56.138 436.018 55.676 435.691 55.3493C435.336 54.9946 434.86 54.8173 434.263 54.8173C433.787 54.8173 433.372 54.948 433.017 55.2093C432.672 55.4613 432.452 55.802 432.359 56.2313H431.169C431.3 55.4566 431.654 54.8546 432.233 54.4253C432.821 53.9866 433.502 53.7673 434.277 53.7673C434.734 53.7673 435.159 53.8373 435.551 53.9773C435.943 54.108 436.274 54.304 436.545 54.5653C436.9 54.9013 437.124 55.2886 437.217 55.7273C437.31 56.166 437.357 56.6186 437.357 57.0853V61.6493H436.167V61.2853C436.167 61.052 436.214 60.786 436.307 60.4873L436.111 60.4033C435.859 60.8046 435.565 61.1173 435.229 61.3413C434.996 61.5 434.73 61.612 434.431 61.6773C434.142 61.752 433.796 61.7893 433.395 61.7893ZM433.535 60.7393C433.983 60.7393 434.394 60.6506 434.767 60.4733C435.224 60.24 435.56 59.9273 435.775 59.5353C435.934 59.2553 436.036 58.9893 436.083 58.7373C436.139 58.4853 436.172 58.3313 436.181 58.2753C436.209 58.1353 436.246 58.0326 436.293 57.9673C436.34 57.902 436.41 57.8646 436.503 57.8553L436.461 57.6313L434.655 58.0093L433.661 58.2053C433.082 58.3173 432.658 58.4993 432.387 58.7513C432.172 58.966 432.065 59.2366 432.065 59.5633C432.065 59.918 432.196 60.2026 432.457 60.4173C432.728 60.632 433.087 60.7393 433.535 60.7393ZM441.07 61.6493C440.444 61.6493 439.982 61.5093 439.684 61.2293C439.385 60.9493 439.236 60.4406 439.236 59.7033V50.9673H440.426V59.5213C440.426 59.792 440.444 60.002 440.482 60.1513C440.519 60.2913 440.603 60.4033 440.734 60.4873C440.864 60.562 441.07 60.5993 441.35 60.5993H441.728V61.6493H441.07ZM444.952 61.6493C444.327 61.6493 443.865 61.5093 443.566 61.2293C443.268 60.9493 443.118 60.4406 443.118 59.7033V50.9673H444.308V59.5213C444.308 59.792 444.327 60.002 444.364 60.1513C444.402 60.2913 444.486 60.4033 444.616 60.4873C444.747 60.562 444.952 60.5993 445.232 60.5993H445.61V61.6493H444.952ZM447.029 63.4973H447.757C447.99 63.4973 448.168 63.4786 448.289 63.4413C448.41 63.4133 448.518 63.3433 448.611 63.2313C448.704 63.1193 448.798 62.9373 448.891 62.6853L449.311 61.5373L446.287 53.9073H447.603L449.647 59.1293C449.703 59.2693 449.745 59.4093 449.773 59.5493C449.801 59.68 449.829 59.82 449.857 59.9693H450.039C450.076 59.6613 450.142 59.3813 450.235 59.1293L452.139 53.9073H453.427L449.997 63.2033C449.792 63.754 449.558 64.1226 449.297 64.3093C449.036 64.496 448.662 64.5893 448.177 64.5893H447.029V63.4973Z" fill="#B3B3B3"/>
<path d="M409.144 35.229C408.148 35.229 407.271 35.0512 406.512 34.6956C405.766 34.3281 405.179 33.8125 404.752 33.1487C404.325 32.473 404.088 31.6907 404.041 30.8017H406.299C406.465 32.4493 407.431 33.2732 409.197 33.2732C409.98 33.2732 410.59 33.0716 411.029 32.6686C411.467 32.2538 411.686 31.6907 411.686 30.9795C411.686 30.2446 411.42 29.6993 410.886 29.3437C410.365 28.9881 409.648 28.8103 408.735 28.8103H407.899V26.9256H408.664C409.316 26.9256 409.855 26.7597 410.282 26.4278C410.72 26.0959 410.94 25.6158 410.94 24.9876C410.94 24.4304 410.762 23.9919 410.406 23.6718C410.062 23.3518 409.571 23.1917 408.93 23.1917C408.279 23.1917 407.751 23.3755 407.348 23.7429C406.945 24.1104 406.696 24.6616 406.601 25.3965H404.503C404.539 24.5905 404.752 23.8733 405.143 23.2451C405.546 22.605 406.074 22.1131 406.726 21.7693C407.39 21.4137 408.124 21.2359 408.93 21.2359C409.76 21.2359 410.489 21.3959 411.117 21.716C411.758 22.0242 412.249 22.4568 412.593 23.0139C412.949 23.5592 413.127 24.1815 413.127 24.8809C413.127 25.6039 412.913 26.2203 412.487 26.73C412.072 27.2397 411.532 27.5005 410.869 27.5124V27.7968C411.805 27.8443 412.552 28.1643 413.109 28.757C413.666 29.3496 413.945 30.1083 413.945 31.0328C413.945 31.8507 413.737 32.5797 413.322 33.2198C412.919 33.8481 412.35 34.34 411.615 34.6956C410.892 35.0512 410.068 35.229 409.144 35.229ZM416.081 21.4493H418.179V27.2101C418.179 27.5064 418.167 27.7672 418.143 27.9924C418.131 28.2176 418.084 28.4784 418.001 28.7748L418.214 28.8814C418.629 28.4191 418.931 28.105 419.121 27.9391L422.055 25.0765H424.793L420.899 28.7748C420.674 28.9881 420.401 29.16 420.081 29.2904V29.5393C420.366 29.6697 420.638 29.8771 420.899 30.1616L425.148 35.0156H422.481L419.121 31.104C418.943 30.9025 418.641 30.5409 418.214 30.0194L418.001 30.1083C418.084 30.4283 418.131 30.7069 418.143 30.9439C418.167 31.181 418.179 31.4596 418.179 31.7796V35.0156H416.081V21.4493ZM434.901 33.9844V29.8238H430.758V28.2058H434.901V24.0452H436.537V28.2058H440.679V29.8238H436.537V33.9844H434.901Z" fill="black"/>
<g clip-path="url(#clip1_547_2)">
<path d="M381.996 32.0076C383.493 31.0621 384.484 29.3982 384.484 27.4997C384.484 24.5575 382.086 22.1599 379.144 22.1599C376.202 22.1599 373.804 24.5575 373.804 27.4997C373.804 29.3982 374.803 31.0621 376.293 32.0076C373.721 32.8244 371.921 34.7153 371.921 36.9163C371.921 37.2642 372.201 37.5516 372.556 37.5516C372.912 37.5516 373.192 37.2718 373.192 36.9163C373.192 34.6699 375.862 32.8396 379.152 32.8396C382.442 32.8396 385.112 34.6699 385.112 36.9163C385.112 37.2642 385.392 37.5516 385.747 37.5516C386.103 37.5516 386.383 37.2718 386.383 36.9163C386.383 34.7153 384.575 32.832 382.011 32.0076H381.996ZM375.068 27.4997C375.068 25.2534 376.898 23.423 379.144 23.423C381.391 23.423 383.221 25.2534 383.221 27.4997C383.221 29.7461 381.391 31.5765 379.144 31.5765C376.898 31.5765 375.068 29.7461 375.068 27.4997Z" fill="#333333"/>
<path d="M372.375 24.323C372.375 23.9751 372.095 23.6877 371.74 23.6877C370.129 23.6877 368.813 22.3792 368.813 20.7606C368.813 19.142 370.129 17.8335 371.74 17.8335C373.351 17.8335 374.667 19.142 374.667 20.7606C374.667 21.1085 374.947 21.3959 375.302 21.3959C375.658 21.3959 375.938 21.1161 375.938 20.7606C375.938 18.4462 374.054 16.5704 371.747 16.5704C369.44 16.5704 367.55 18.4537 367.55 20.7606C367.55 22.1372 368.223 23.3624 369.251 24.1264C367.398 24.8146 366.128 26.2366 366.128 27.8779C366.128 28.2258 366.408 28.5132 366.763 28.5132C367.119 28.5132 367.398 28.2333 367.398 27.8779C367.398 26.2668 369.35 24.9508 371.747 24.9508C372.095 24.9508 372.383 24.6709 372.383 24.3154L372.375 24.323Z" fill="#333333"/>
<path d="M388.887 24.1264C389.915 23.3624 390.588 22.1372 390.588 20.7606C390.588 18.4462 388.705 16.5704 386.398 16.5704C384.091 16.5704 382.208 18.4537 382.208 20.7606C382.208 21.1085 382.488 21.3959 382.843 21.3959C383.199 21.3959 383.479 21.1161 383.479 20.7606C383.479 19.1496 384.795 17.8335 386.406 17.8335C388.017 17.8335 389.333 19.142 389.333 20.7606C389.333 22.3792 388.024 23.6877 386.406 23.6877C386.058 23.6877 385.77 23.9675 385.77 24.323C385.77 24.6785 386.05 24.9583 386.406 24.9583C388.803 24.9583 390.755 26.2668 390.755 27.8854C390.755 28.2333 391.035 28.5208 391.39 28.5208C391.746 28.5208 392.025 28.2409 392.025 27.8854C392.025 26.2441 390.747 24.8222 388.902 24.1339L388.887 24.1264Z" fill="#333333"/>
</g>
<defs>
<clipPath id="clip0_547_2">
<rect width="20.8317" height="28.0711" fill="white" transform="translate(210.989 16)"/>
</clipPath>
<clipPath id="clip1_547_2">
<rect width="25.8823" height="20.9736" fill="white" transform="translate(366.128 16.5704)"/>
</clipPath>
</defs>
</svg>
