<svg width="379" height="271" viewBox="0 0 379 271" fill="none" xmlns="http://www.w3.org/2000/svg">
<path d="M36.93 213.934C36.93 214.037 36.0877 214.247 34.4091 214.566C31.0458 215.144 26.7439 216.299 21.4914 218.032C20.7032 218.296 20.1136 218.651 19.7225 219.097C19.3254 219.542 18.8681 220.264 18.3447 221.263C18.2905 221.419 18.2123 221.576 18.11 221.738C12.8575 231.082 8.36912 235.757 4.63881 235.757H4.40417C3.77243 235.757 3.17076 235.492 2.59316 234.969C2.06972 234.337 1.80499 233.681 1.80499 233.001C1.80499 231.058 3.18279 228.627 5.93841 225.715C8.69402 222.803 11.9911 220.396 15.8237 218.507C17.0872 217.821 18.0138 216.708 18.6214 215.162C19.2231 213.616 19.6202 212.105 19.8007 210.631C19.9812 209.163 20.0775 208.297 20.0775 208.032C20.0775 207.4 19.9692 206.865 19.7646 206.42C19.554 205.974 19.2111 205.752 18.7418 205.752C17.5324 205.752 16.1546 206.498 14.6084 207.996C13.0621 209.494 11.5218 211.281 9.99963 213.351C8.47742 215.427 7.05749 217.436 5.74587 219.379C4.69296 220.902 3.80251 222.177 3.06848 223.2C2.33445 224.223 1.81099 224.734 1.49211 224.734C1.1251 224.734 0.78216 224.433 0.469296 223.832C0.156432 223.224 0 222.346 0 221.19C0 218.146 0.87843 213.88 2.63528 208.393C4.39214 202.906 6.55812 197.341 9.13323 191.697C11.7083 186.053 14.2955 181.234 16.8887 177.245C19.4879 173.256 21.6298 171.258 23.3084 171.258C24.4094 171.258 24.963 172.203 24.963 174.092C24.963 176.878 23.874 181.035 21.6959 186.577C19.5179 192.118 16.9188 197.485 13.8984 202.683C10.8781 207.882 7.95398 211.636 5.11413 213.946C4.43425 214.524 3.90479 215.366 3.53778 216.467C3.17076 217.568 2.91805 218.621 2.7917 219.62C2.65934 220.619 2.59316 221.221 2.59316 221.431V221.509L3.2249 220.565C4.06723 219.199 5.40292 217.244 7.244 214.699C9.07907 212.153 11.0646 209.777 13.1884 207.569C15.3123 205.361 17.1895 204.26 18.82 204.26C20.974 204.26 22.0509 205.914 22.0509 209.223C21.9426 211.798 21.4493 214.313 20.5528 216.786L20.8656 216.708C21.9125 216.395 24.0304 215.842 27.2072 215.053C30.384 214.265 33.284 213.874 35.9132 213.874H36.7796C36.7796 213.928 36.8037 213.952 36.8578 213.952H36.93V213.934ZM4.16349 233.946H4.24171C5.29462 233.946 6.49796 233.278 7.86373 231.936C9.22951 230.594 10.5652 229.06 11.8828 227.327C13.1945 225.595 14.2714 224.006 15.1138 222.562C15.9561 221.118 16.3773 220.288 16.3773 220.083C16.3773 220.029 16.3532 220.005 16.299 220.005C15.8779 220.005 14.5903 220.685 12.4364 222.051C10.2824 223.417 8.20667 225.095 6.21517 227.093C4.21765 229.09 3.2249 231.082 3.2249 233.079C3.2249 233.344 3.3272 233.549 3.53778 233.711C3.68819 233.867 3.89876 233.946 4.16349 233.946ZM23.146 173.846C22.2013 173.846 20.7032 175.633 18.6575 179.2C16.6119 182.774 14.5061 186.932 12.3581 191.685C10.2042 196.438 8.35107 200.86 6.8048 204.958C5.25251 209.055 4.48237 211.6 4.48237 212.599C4.48237 212.707 4.53653 212.755 4.63881 212.755C5.27056 212.755 6.58217 211.365 8.57969 208.58C10.5772 205.794 12.7011 202.328 14.9573 198.183C17.2136 194.037 19.181 189.796 20.8656 185.464C22.5443 181.132 23.3866 177.444 23.3866 174.399C23.3866 174.032 23.3325 173.846 23.2302 173.846H23.146Z" fill="black"/>
<path d="M63.2349 213.934H63.4695C63.5237 213.934 63.5718 213.934 63.6259 213.934C63.6801 213.934 63.7042 213.958 63.7042 214.013C63.7042 214.169 62.5249 214.981 60.1604 216.455C57.7958 217.923 54.9981 219.343 51.7732 220.709C48.5423 222.075 45.4858 222.863 42.5978 223.074H41.8879C40.0468 223.074 38.6449 222.761 37.6762 222.129C36.7015 221.497 36.0217 220.721 35.6306 219.807C35.2395 218.886 35.041 217.984 35.041 217.087C35.041 215.198 35.6847 213.501 36.9723 212.009C38.2598 210.517 39.7399 209.332 41.4246 208.465C43.1032 207.599 44.5773 207.166 45.8348 207.166C46.623 207.166 47.2006 207.298 47.5676 207.557C47.9346 207.822 48.1572 208.11 48.2354 208.423C48.3136 208.736 48.3557 209.001 48.3557 209.211C48.3557 210.523 47.5555 211.823 45.9551 213.11C44.3547 214.398 42.2368 215.041 39.6136 215.041C38.669 215.041 38.1155 215.83 37.959 217.406C37.959 219.981 39.6136 221.293 42.9227 221.347C43.2898 221.347 43.6568 221.323 44.0238 221.269C47.2788 220.902 50.4555 220.047 53.5541 218.706C56.6527 217.37 59.1736 216.149 61.117 215.041C62.0556 214.512 62.7656 214.145 63.2349 213.934ZM45.9852 209.368C45.2993 209.422 44.4991 209.681 43.5846 210.156C42.664 210.631 41.8277 211.167 41.0636 211.768C40.2995 212.37 39.9204 212.881 39.9204 213.303C39.9204 213.411 39.9746 213.459 40.0769 213.459H40.2333C40.6003 213.459 41.3103 213.327 42.3572 213.068C43.4101 212.803 44.4028 212.412 45.3535 211.889C46.2981 211.365 46.7734 210.709 46.7734 209.921C46.7734 209.819 46.7072 209.699 46.5748 209.566C46.4485 209.434 46.2499 209.368 45.9852 209.368Z" fill="black"/>
<path d="M102.222 213.934C102.277 213.934 102.325 213.934 102.379 213.934C102.433 213.934 102.481 213.958 102.535 214.013C102.589 214.067 102.614 214.145 102.614 214.247C102.614 214.35 101.657 214.915 99.7376 215.944C97.8183 216.967 95.4959 217.966 92.7643 218.94C90.0328 219.909 87.4095 220.396 84.8886 220.396C82.157 220.396 80.1896 219.698 78.9802 218.309C77.7709 216.919 77.1692 214.855 77.1692 212.123C77.1692 211.546 76.9346 211.257 76.4593 211.257H76.381C75.8034 211.257 75.0574 211.636 74.1369 212.4C73.2163 213.164 72.4943 214.121 71.9709 215.276C71.291 216.696 70.7916 217.4 70.4727 217.4C70.4186 217.4 70.3825 217.376 70.3524 217.322C70.3283 217.268 70.3103 217.165 70.3103 217.009C70.3103 216.798 70.3343 216.612 70.3885 216.455V216.143C70.3885 216.088 70.3885 216.052 70.3885 216.022C70.3885 215.998 70.3584 215.986 70.3103 215.986C70.202 215.986 69.9794 216.118 69.6424 216.377C69.2995 216.642 68.8964 216.979 68.4211 217.4C67.4223 218.242 66.3453 219.079 65.1901 219.921C64.0349 220.763 63.1144 221.184 62.4345 221.184C61.9111 221.184 61.4658 220.974 61.0928 220.553C60.7799 220.186 60.6175 219.789 60.6175 219.373V219.139C60.6175 218.038 61.159 216.582 62.2299 214.771C63.3069 212.96 64.5945 211.329 66.0926 209.885C67.5908 208.441 68.9926 207.719 70.3043 207.719C71.1947 207.719 71.8024 208.008 72.1153 208.586C72.4281 209.163 72.6387 209.717 72.747 210.24C72.8012 210.451 72.8493 210.625 72.9034 210.752C72.9576 210.884 73.0057 210.95 73.0599 210.95C73.2163 210.95 73.5292 210.77 74.0045 210.397C74.4798 210.084 74.9732 209.765 75.5026 209.452C76.0261 209.139 76.5555 208.983 77.079 208.983C77.9213 208.983 78.4808 209.338 78.7696 210.048C79.0584 210.758 79.3051 211.612 79.5157 212.605C79.6722 213.549 79.9369 214.506 80.3039 215.481C80.6709 216.449 81.2605 217.268 82.0788 217.923C82.891 218.579 84.1365 218.91 85.8211 218.91C87.9751 218.91 90.1772 218.501 92.4394 217.689C94.6957 216.877 96.6932 216.076 98.426 215.288C100.333 214.38 101.597 213.934 102.222 213.934ZM68.042 214.963C69.0408 214.175 69.7507 213.573 70.1659 213.152C70.5329 212.785 70.7194 212.418 70.7194 212.051V211.895C70.7194 211.582 70.6953 211.293 70.6412 211.028C70.587 210.926 70.5329 210.848 70.4848 210.794C70.4306 210.74 70.3524 210.716 70.2501 210.716C69.7808 210.716 69.1972 211.028 68.5173 211.66C67.8374 212.292 67.1636 213.026 66.5078 213.868C65.8519 214.711 65.2984 215.481 64.8532 216.191C64.408 216.901 64.1854 217.334 64.1854 217.49C64.1854 217.544 64.2094 217.568 64.2636 217.568C64.5764 217.562 65.8339 216.696 68.042 214.963Z" fill="black"/>
<path d="M132.631 213.934C132.685 213.934 132.721 213.946 132.751 213.977C132.775 214.001 132.787 214.025 132.787 214.055C132.787 214.079 132.787 214.121 132.787 214.175C132.787 214.65 132.143 215.83 130.856 217.719C129.568 219.608 127.992 221.672 126.127 223.904C124.262 226.136 122.384 228.092 120.495 229.77C118.606 231.449 117.078 232.291 115.928 232.291C115.874 232.291 115.718 232.267 115.459 232.213C115.194 232.159 114.906 232.002 114.593 231.738C114.28 231.473 113.991 231.082 113.726 230.558C113.462 230.035 113.335 229.295 113.335 228.35C113.335 225.883 114.033 222.929 115.423 219.488C116.813 216.046 117.986 213.381 118.931 211.492C119.352 210.601 119.562 210.102 119.562 209.994C119.406 209.994 118.618 210.728 117.198 212.202C115.886 213.567 114.31 215.126 112.469 216.889C110.628 218.645 108.817 220.198 107.036 221.533C105.249 222.875 103.781 223.543 102.626 223.543C101.94 223.543 101.314 223.23 100.736 222.598C100.159 221.967 99.8701 221.046 99.8701 219.843C99.8701 218.531 100.147 217.111 100.7 215.589C101.254 214.067 101.922 212.743 102.71 211.612C103.498 210.481 104.232 209.915 104.912 209.915C105.068 209.915 105.267 209.969 105.502 210.072C105.736 210.18 105.857 210.361 105.857 210.625C105.857 210.836 105.568 211.57 104.99 212.833C104.467 214.091 103.901 215.523 103.294 217.123C102.692 218.724 102.385 219.999 102.385 220.944C102.385 221.732 102.674 222.123 103.251 222.123C104.352 222.123 106.127 221.01 108.57 218.778C111.013 216.546 113.414 214.223 115.778 211.805C117.246 210.282 118.522 209.007 119.599 207.984C120.676 206.961 121.374 206.45 121.686 206.45C121.789 206.504 121.897 206.558 121.999 206.606C122.102 206.66 122.18 206.739 122.234 206.841C122.444 206.949 122.547 207.13 122.547 207.394V207.551C122.547 208.183 121.867 210.126 120.501 213.381C119.4 216.167 118.293 219.115 117.192 222.243C116.091 225.366 115.537 227.821 115.537 229.608C115.537 230.342 115.826 230.709 116.404 230.709H116.638C117.481 230.709 118.75 229.866 120.459 228.188C122.168 226.503 123.937 224.59 125.778 222.436C127.613 220.282 129.189 218.351 130.507 216.648C131.818 214.939 132.474 214.061 132.474 214.007L132.552 213.928H132.631V213.934Z" fill="black"/>
<path d="M160.037 186.444C161.138 186.444 162.004 186.456 162.636 186.481C163.267 186.511 163.725 186.559 164.014 186.637C164.302 186.715 164.483 186.805 164.567 186.914C164.645 187.022 164.687 187.124 164.687 187.227C164.687 187.335 164.675 187.473 164.651 187.66C164.621 187.846 164.573 188.015 164.495 188.171C164.417 188.328 164.272 188.406 164.062 188.406C163.953 188.406 163.851 188.394 163.749 188.37C163.641 188.346 163.538 188.304 163.436 188.249C163.28 188.195 163.027 188.117 162.69 188.015C162.347 187.912 161.811 187.828 161.077 187.78C160.343 187.732 159.29 187.702 157.925 187.702C157.191 187.702 155.56 187.744 153.039 187.822C150.518 187.9 147.474 188.069 143.9 188.334C142.011 193.009 140.103 198.087 138.19 203.574C136.271 209.061 134.634 214.374 133.269 219.524C131.903 224.668 131.223 228.952 131.223 232.363C131.223 233.675 131.367 234.493 131.656 234.806C131.945 235.119 132.348 235.281 132.878 235.281C134.243 235.281 135.988 234.271 138.118 232.249C140.242 230.227 142.408 227.893 144.616 225.24C146.824 222.586 148.761 220.162 150.446 217.953C152.492 215.222 153.647 213.856 153.912 213.856C153.966 213.856 153.99 213.88 153.99 213.934C154.044 213.934 154.068 213.958 154.068 214.013C154.068 214.38 153.226 215.757 151.547 218.146C149.868 220.535 147.805 223.2 145.362 226.142C142.919 229.084 140.452 231.665 137.956 233.904C135.459 236.136 133.401 237.249 131.77 237.249C129.773 237.249 128.774 235.281 128.774 231.34C128.774 227.141 129.442 222.4 130.784 217.123C132.125 211.847 133.684 206.702 135.471 201.685C137.258 196.673 138.912 192.353 140.434 188.731C132.246 189.73 127.071 190.518 124.918 191.095L124.208 191.252C124.051 191.252 123.919 191.198 123.81 191.095L123.889 191.174C123.835 191.174 123.786 191.149 123.732 191.095C123.63 190.993 123.576 190.861 123.576 190.698C123.576 190.175 124.31 189.699 125.784 189.278C127.252 188.857 129.015 188.52 131.061 188.255C133.106 187.991 135.037 187.78 136.849 187.624C138.66 187.467 139.983 187.365 140.825 187.311C140.88 187.257 140.958 187.233 141.06 187.233L143.738 181.09C145.103 178.045 146.102 176 146.734 174.947C147.366 173.894 147.943 173.37 148.467 173.37C149.201 173.37 149.568 173.659 149.568 174.237C149.568 174.345 149.098 175.494 148.148 177.702C147.203 180.067 145.94 183.189 144.369 187.076C145.837 186.974 148.256 186.842 151.613 186.679C154.971 186.529 157.78 186.444 160.037 186.444Z" fill="black"/>
<path d="M188.002 213.934C188.056 213.934 188.092 213.934 188.122 213.934C188.146 213.934 188.164 213.958 188.164 214.013C188.164 214.169 187.767 214.524 186.985 215.078C186.197 215.631 185.174 216.353 183.91 217.244C181.125 219.079 178.213 221.184 175.168 223.543C172.124 225.907 170.235 227.953 169.495 229.686C166.919 237.772 164.386 244.403 161.896 249.577C159.399 254.751 157.064 258.776 154.886 261.664C152.708 264.552 150.777 266.628 149.098 267.885C147.42 269.149 146.066 269.907 145.043 270.172C144.02 270.437 143.431 270.563 143.274 270.563H143.039C142.516 270.563 142.017 270.376 141.541 270.009C140.699 269.113 140.278 268.12 140.278 267.013V266.778C140.278 263.205 142.468 258.127 146.854 251.538C151.24 244.95 156.95 238.32 163.983 231.647C164.928 230.805 165.674 230.017 166.228 229.283C166.781 228.549 167.341 227.406 167.918 225.853C168.496 224.307 169.338 221.846 170.439 218.489C171.384 215.655 172.184 213.224 172.84 211.203C173.496 209.181 173.827 208.116 173.827 208.014V207.936C173.616 207.936 172.617 208.989 170.83 211.089C169.2 212.93 167.244 215.041 164.964 217.43C162.678 219.819 160.409 221.949 158.153 223.808C155.897 225.673 154.056 226.605 152.642 226.605C151.174 226.605 150.44 225.342 150.44 222.827C150.44 221.407 150.897 219.506 151.818 217.117C152.738 214.729 153.761 212.563 154.892 210.619C156.023 208.676 156.872 207.707 157.449 207.707C158.027 207.707 158.316 207.972 158.316 208.495C158.316 208.917 158.105 209.651 157.684 210.703C157.263 211.756 156.763 212.96 156.186 214.325C155.452 216.058 154.754 217.779 154.098 219.488C153.442 221.196 153.111 222.544 153.111 223.543C153.111 224.175 153.346 224.512 153.821 224.566C154.976 224.566 156.956 223.212 159.766 220.511C162.575 217.803 165.343 214.981 168.075 212.045C169.753 210.258 171.197 208.748 172.407 207.515C173.616 206.281 174.374 205.662 174.693 205.662C174.958 205.662 175.192 205.716 175.403 205.818C175.457 205.872 175.505 205.896 175.559 205.896C176.035 206.161 176.269 206.552 176.269 207.075V207.232C176.269 207.653 176.047 208.652 175.601 210.222C175.156 211.799 174.627 213.555 174.025 215.499C173.417 217.442 172.828 219.253 172.25 220.932C171.883 222.141 171.564 223.152 171.306 223.964C171.041 224.776 170.909 225.21 170.909 225.264V225.342C170.963 225.342 171.588 224.873 172.798 223.922C174.266 222.869 176.077 221.569 178.231 220.023C180.385 218.477 182.418 217.069 184.338 215.812C186.251 214.566 187.472 213.934 188.002 213.934ZM143.34 268.523C145.807 268.367 148.328 266.514 150.903 262.97C153.478 259.426 155.891 255.317 158.147 250.642C160.403 245.967 162.214 241.809 163.58 238.157C164.946 234.505 165.656 232.448 165.71 231.972H165.632C165.475 231.972 164.188 233.206 161.769 235.672C159.351 238.139 156.619 241.214 153.581 244.89C150.536 248.566 147.829 252.357 145.464 256.273C143.1 260.184 141.92 263.614 141.92 266.55C141.92 267.813 142.396 268.469 143.34 268.523Z" fill="black"/>
<path d="M229.745 213.934C229.799 213.934 229.835 213.946 229.865 213.977C229.889 214.001 229.901 214.043 229.901 214.097C229.901 214.62 229.077 215.83 227.422 217.719C225.768 219.608 223.722 221.66 221.279 223.862C218.836 226.07 216.316 227.983 213.716 229.614C211.117 231.238 208.843 232.056 206.906 232.056C206.539 232.056 205.997 231.924 205.293 231.659C204.583 231.395 203.927 230.715 203.326 229.614C202.724 228.513 202.417 226.78 202.417 224.415C202.417 218.85 204.005 212.087 207.182 204.133C210.359 196.179 213.915 189.14 217.856 183.021C221.797 176.902 224.943 173.846 227.308 173.846C228.198 173.846 228.674 174.688 228.728 176.367C228.728 178.623 227.428 182.431 224.829 187.786C222.23 193.141 219.288 198.369 216.009 203.459C212.73 208.556 209.902 212.178 207.543 214.332C206.809 215.066 206.178 216.564 205.654 218.82C205.131 221.076 204.866 223.176 204.866 225.119V225.51C204.866 225.877 204.908 226.455 204.986 227.243C205.064 228.031 205.287 228.753 205.654 229.409C206.021 230.065 206.599 230.396 207.387 230.396C209.697 230.396 212.296 229.361 215.184 227.285C218.072 225.21 220.75 222.977 223.217 220.589C225.683 218.2 227.524 216.323 228.728 214.957C229.354 214.277 229.69 213.934 229.745 213.934ZM207.297 213.068C207.453 213.068 207.952 212.545 208.795 211.492C209.896 210.228 211.905 207.37 214.823 202.906C217.735 198.442 220.521 193.628 223.174 188.454C225.828 183.28 227.151 179.279 227.151 176.439C227.151 176.282 227.151 176.162 227.151 176.084C227.151 176.006 227.097 175.963 226.995 175.963C225.786 175.963 224.095 177.63 221.917 180.963C219.739 184.297 217.531 188.195 215.299 192.66C213.067 197.124 211.165 201.312 209.589 205.222C208.013 209.133 207.224 211.666 207.224 212.821V212.9C207.224 212.954 207.224 212.99 207.224 213.02C207.218 213.056 207.242 213.068 207.297 213.068Z" fill="black"/>
<path d="M251.723 213.778C252.198 213.778 252.433 213.886 252.433 214.091C252.433 214.193 252.301 214.337 252.042 214.524C251.777 214.711 251.332 214.879 250.7 215.035C250.069 215.192 249.178 215.27 248.023 215.27C245.346 215.27 243.18 214.861 241.525 214.049C239.87 213.236 238.673 212.514 237.939 211.883C237.518 211.516 237.229 211.329 237.073 211.329C237.018 211.383 236.982 211.419 236.952 211.45C236.928 211.48 236.916 211.516 236.916 211.57C237.175 212.304 237.337 213.092 237.386 213.934C237.386 216.877 236.519 219.434 234.786 221.612C233.054 223.79 231.375 224.879 229.744 224.879C228.066 224.879 227.199 223.591 227.145 221.016C227.199 218.916 227.723 216.804 228.722 214.674C229.72 212.551 230.924 210.962 232.344 209.909C232.344 209.855 232.368 209.831 232.422 209.831C232.735 209.566 232.957 209.386 233.09 209.278C233.222 209.175 233.288 209.043 233.288 208.886V208.808C233.288 208.706 233.3 208.531 233.33 208.297C233.354 208.062 233.421 207.852 233.529 207.665C233.631 207.479 233.794 207.388 234.004 207.388C234.582 207.388 235.448 207.966 236.603 209.121C237.759 210.174 239.269 211.287 241.134 212.466C242.999 213.646 245.243 214.235 247.866 214.235C249.13 214.235 250.02 214.127 250.544 213.922C250.959 213.832 251.35 213.778 251.723 213.778ZM230.533 223.465C231.11 223.465 231.832 223.019 232.699 222.123C233.565 221.233 234.341 220.023 235.021 218.501C235.701 216.979 236.044 215.294 236.044 213.459V213.068C236.044 212.803 235.99 212.502 235.887 212.159C235.779 211.817 235.641 211.516 235.454 211.257C235.268 210.992 234.997 210.86 234.63 210.86C234.155 210.86 233.511 211.528 232.699 212.869C231.886 214.211 231.164 215.733 230.533 217.436C229.901 219.145 229.588 220.571 229.588 221.732C229.588 222.839 229.901 223.417 230.533 223.465Z" fill="black"/>
<path d="M282.282 213.934C282.337 213.934 282.373 213.946 282.403 213.977C282.427 214.001 282.439 214.025 282.439 214.055C282.439 214.079 282.439 214.121 282.439 214.175C282.439 214.65 281.795 215.83 280.508 217.719C279.22 219.608 277.644 221.672 275.778 223.904C273.913 226.136 272.036 228.092 270.147 229.77C268.258 231.449 266.729 232.291 265.58 232.291C265.526 232.291 265.37 232.267 265.111 232.213C264.846 232.159 264.557 232.002 264.245 231.738C263.932 231.473 263.643 231.082 263.378 230.558C263.113 230.035 262.987 229.295 262.987 228.35C262.987 225.883 263.685 222.929 265.075 219.488C266.465 216.046 267.638 213.381 268.583 211.492C269.004 210.601 269.214 210.102 269.214 209.994C269.058 209.994 268.27 210.728 266.85 212.202C265.538 213.567 263.962 215.126 262.121 216.889C260.28 218.645 258.469 220.198 256.688 221.533C254.901 222.875 253.433 223.543 252.278 223.543C251.592 223.543 250.966 223.23 250.388 222.598C249.811 221.967 249.522 221.046 249.522 219.843C249.522 218.531 249.799 217.111 250.352 215.589C250.906 214.067 251.574 212.743 252.362 211.612C253.15 210.481 253.884 209.915 254.564 209.915C254.72 209.915 254.919 209.969 255.153 210.072C255.388 210.18 255.508 210.361 255.508 210.625C255.508 210.836 255.22 211.57 254.642 212.833C254.119 214.091 253.553 215.523 252.945 217.123C252.344 218.724 252.037 219.999 252.037 220.944C252.037 221.732 252.326 222.123 252.903 222.123C254.004 222.123 255.779 221.01 258.222 218.778C260.665 216.546 263.065 214.223 265.43 211.805C266.898 210.282 268.173 209.007 269.25 207.984C270.327 206.961 271.025 206.45 271.338 206.45C271.44 206.504 271.549 206.558 271.651 206.606C271.753 206.66 271.832 206.739 271.886 206.841C272.096 206.949 272.199 207.13 272.199 207.394V207.551C272.199 208.183 271.519 210.126 270.153 213.381C269.052 216.167 267.945 219.115 266.844 222.243C265.743 225.366 265.189 227.821 265.189 229.608C265.189 230.342 265.478 230.709 266.056 230.709H266.29C267.133 230.709 268.402 229.866 270.111 228.188C271.82 226.503 273.588 224.59 275.429 222.436C277.265 220.282 278.841 218.351 280.159 216.648C281.47 214.939 282.126 214.061 282.126 214.007L282.204 213.928H282.282V213.934Z" fill="black"/>
<path d="M313.785 213.934C313.839 213.934 313.863 213.958 313.863 214.013V214.091H313.785C313.629 214.356 313.129 215.114 312.287 216.377C311.186 217.953 309.79 219.734 308.112 221.732C306.433 223.729 304.646 225.498 302.757 227.051C300.868 228.597 299.135 229.373 297.558 229.373C296.301 229.373 295.495 228.916 295.158 227.995C294.815 227.075 294.646 226.22 294.646 225.432C294.646 222.965 295.236 220.113 296.415 216.889C297.594 213.658 298.714 210.89 299.76 208.58C300.603 206.745 301.024 205.668 301.024 205.349C301.024 205.138 300.916 205.036 300.711 205.036C299.821 205.036 298.31 206.059 296.181 208.11C294.051 210.156 291.837 212.388 289.526 214.807C287.637 216.804 285.952 218.519 284.484 219.969C283.016 221.413 282.017 222.135 281.488 222.135C280.543 222.135 280.068 221.533 280.068 220.324V219.927C280.068 218.561 280.369 216.919 280.971 215.005C281.572 213.086 282.294 211.395 283.136 209.927C283.979 208.459 284.761 207.719 285.501 207.719C286.289 207.719 286.68 208.008 286.68 208.586C286.68 208.85 286.506 209.374 286.169 210.162C285.826 210.95 285.447 211.847 285.026 212.839C284.394 214.151 283.846 215.414 283.371 216.618C282.896 217.827 282.661 218.694 282.661 219.217V219.295C282.818 219.295 283.293 218.898 284.081 218.116C284.869 217.328 285.868 216.329 287.071 215.12C289.592 212.496 292.294 209.843 295.182 207.166C298.07 204.488 300.115 203.147 301.325 203.147C301.848 203.201 302.281 203.393 302.624 203.736C302.967 204.079 303.136 204.512 303.136 205.036C303.136 205.716 302.889 206.811 302.39 208.303C301.89 209.801 301.271 211.468 300.537 213.303C299.646 215.715 298.804 218.11 298.016 220.468C297.227 222.827 296.836 224.722 296.836 226.142C296.836 226.774 296.915 227.207 297.071 227.442C297.227 227.676 297.396 227.839 297.582 227.917C297.763 227.995 297.907 228.037 298.016 228.037C299.538 228.037 301.361 226.96 303.491 224.806C305.621 222.652 307.624 220.474 309.519 218.266C310.572 217.009 311.475 215.968 312.239 215.156C313.015 214.344 313.526 213.934 313.785 213.934Z" fill="black"/>
<path d="M351.834 213.934C352.358 213.934 352.646 214.037 352.701 214.247C352.701 214.301 352.255 214.434 351.359 214.644C349.68 215.114 347.262 215.932 344.115 217.087C340.962 218.242 337.942 219.74 335.06 221.576C334.639 221.834 334.326 222.075 334.115 222.285C333.905 222.496 333.706 222.839 333.526 223.308C333.339 223.778 333.092 224.518 332.779 225.51C328.947 236.798 324.182 246.346 318.484 254.144C312.786 261.941 308.496 265.84 305.602 265.84C305.446 265.84 305.157 265.81 304.736 265.762C304.315 265.707 303.858 265.551 303.358 265.292C302.859 265.028 302.438 264.582 302.095 263.951C301.752 263.319 301.583 262.428 301.583 261.273C301.583 257.074 304.249 251.28 309.579 243.903C314.91 236.527 321.462 229.921 329.23 224.09C329.807 223.669 330.228 223.326 330.493 223.068C330.758 222.803 330.981 222.466 331.161 222.045C331.348 221.624 331.57 220.968 331.829 220.077C333.875 213.616 334.897 209.446 334.897 207.551C334.897 207.497 334.897 207.394 334.897 207.238C334.897 207.081 334.861 206.925 334.777 206.763C334.699 206.606 334.603 206.528 334.5 206.528C334.079 206.528 333.201 206.973 331.859 207.864C330.517 208.76 329.26 209.705 328.081 210.697C326.901 211.696 326.258 212.406 326.149 212.827C326.095 213.772 325.86 214.596 325.439 215.306C325.018 216.016 324.627 216.371 324.26 216.371C323.995 216.371 323.815 216.263 323.706 216.058C323.598 215.848 323.52 215.661 323.472 215.505C323.418 215.348 323.363 215.27 323.315 215.27C323.261 215.27 322.894 215.583 322.214 216.215C321.005 217.37 319.338 218.76 317.214 220.39C315.085 222.015 313.286 222.833 311.818 222.833C310.765 222.833 310.241 222.177 310.241 220.866C310.241 218.032 311.619 215.192 314.375 212.358C317.13 209.524 319.796 208.104 322.371 208.104C323.472 208.104 324.26 208.369 324.735 208.892C325.205 209.416 325.523 209.837 325.68 210.15C325.734 210.361 325.782 210.463 325.836 210.463C326.047 210.463 326.414 210.276 326.937 209.909C327.461 209.542 328.093 209.097 328.827 208.568C329.982 207.725 331.179 206.901 332.412 206.089C333.646 205.277 334.657 204.867 335.445 204.867C336.444 204.867 336.943 205.758 336.943 207.545C336.943 209.013 336.708 210.812 336.233 212.942C335.764 215.072 335.313 216.865 334.891 218.339C334.578 219.391 334.422 219.993 334.422 220.15C334.422 220.252 334.476 220.306 334.578 220.306L334.976 220.071C335.71 219.65 337.033 218.952 338.953 217.984C340.872 217.009 343.02 216.094 345.408 215.228C347.803 214.368 349.939 213.934 351.834 213.934ZM304.886 264.661C306.986 264.504 309.441 262.615 312.251 258.987C315.061 255.365 317.816 251.111 320.524 246.226C323.225 241.34 325.487 236.918 327.298 232.953C329.109 228.988 330.042 226.557 330.096 225.667C330.096 225.613 330.072 225.589 330.018 225.589C329.44 225.589 327.154 227.454 323.165 231.184C319.176 234.914 315.169 239.469 311.15 244.848C307.131 250.233 304.495 255.6 303.232 260.954V261.664C303.232 263.662 303.755 264.661 304.808 264.661H304.886ZM312.762 221.028C313.442 221.028 314.639 220.42 316.348 219.217C318.057 218.008 319.669 216.696 321.191 215.276C322.714 213.856 323.478 212.888 323.478 212.364C323.37 211.997 323.177 211.696 322.888 211.456C322.599 211.221 322.268 211.101 321.901 211.101H321.745C320.379 211.101 318.959 211.72 317.491 212.954C316.017 214.187 314.784 215.553 313.791 217.051C312.792 218.549 312.293 219.692 312.293 220.481C312.293 220.841 312.449 221.028 312.762 221.028Z" fill="black"/>
<path d="M378.531 213.934H378.765C378.819 213.934 378.868 213.934 378.922 213.934C378.976 213.934 379 213.958 379 214.013C379 214.169 377.821 214.981 375.456 216.455C373.092 217.923 370.294 219.343 367.069 220.709C363.838 222.075 360.782 222.863 357.894 223.074H357.184C355.343 223.074 353.941 222.761 352.972 222.129C351.997 221.497 351.317 220.721 350.926 219.807C350.535 218.886 350.337 217.984 350.337 217.087C350.337 215.198 350.981 213.501 352.268 212.009C353.556 210.517 355.036 209.332 356.72 208.465C358.399 207.599 359.873 207.166 361.131 207.166C361.919 207.166 362.496 207.298 362.863 207.557C363.23 207.822 363.453 208.11 363.531 208.423C363.609 208.736 363.652 209.001 363.652 209.211C363.652 210.523 362.851 211.823 361.251 213.11C359.651 214.398 357.533 215.041 354.909 215.041C353.965 215.041 353.411 215.83 353.255 217.406C353.255 219.981 354.909 221.293 358.219 221.347C358.586 221.347 358.953 221.323 359.32 221.269C362.575 220.902 365.751 220.047 368.85 218.706C371.948 217.37 374.469 216.149 376.413 215.041C377.351 214.512 378.061 214.145 378.531 213.934ZM361.281 209.368C360.595 209.422 359.795 209.681 358.88 210.156C357.96 210.631 357.124 211.167 356.359 211.768C355.595 212.37 355.216 212.881 355.216 213.303C355.216 213.411 355.27 213.459 355.373 213.459H355.529C355.896 213.459 356.606 213.327 357.653 213.068C358.706 212.803 359.699 212.412 360.649 211.889C361.594 211.365 362.069 210.709 362.069 209.921C362.069 209.819 362.003 209.699 361.871 209.566C361.744 209.434 361.546 209.368 361.281 209.368Z" fill="black"/>
<path fill-rule="evenodd" clip-rule="evenodd" d="M79.3227 129.148C74.2567 130.051 73.7754 130.357 70.3579 133.197C72.4096 141.861 77.8968 145.766 80.7727 152.306H156.269C159.097 145.237 166.66 141.272 168.531 126.399C170.216 113.036 166.702 102.416 159.572 95.2926C139.2 74.9263 96.7709 69.7701 90.6821 47.6529C81.1758 13.1295 132.949 -7.22469 152.359 28.3396C157.431 26.7452 157.382 27.1483 160.306 22.2869C148.153 -0.756814 108.166 -10.0525 88.1491 14.8443C80.8208 23.9595 75.5142 42.1598 82.5115 55.9559C92.5954 75.8469 131.258 84.8417 147.846 98.7822C159.157 108.289 162.629 123.294 152.473 139.298C141.565 156.494 135.223 152.228 110.669 152.42C94.5688 152.541 88.474 149.599 79.3227 129.148Z" fill="black"/>
<path d="M196.275 152.793V117.512C196.275 91.2314 212.044 73.4402 235.293 73.4402C254.299 73.4402 266.627 85.3712 266.627 104.576V152.799H275.929V103.77C275.929 79.9141 260.562 64.7522 237.11 64.7522C218.308 64.7522 203.549 74.457 196.269 90.4251V9.09238H186.768V152.793H196.275Z" fill="black"/>
<path d="M299.647 65.4501H290.345V152.793H299.647V65.4501Z" fill="black"/>
<path d="M312.142 152.017H62.6388V153.636H312.142V152.017Z" fill="black"/>
<path fill-rule="evenodd" clip-rule="evenodd" d="M324.416 57.1893C310.728 52.5926 304.736 50.4025 298.226 40.812C294.628 35.5114 286.361 11.9322 277.667 22.7922C265.598 37.8699 313.815 60.8835 324.416 57.1893Z" fill="black"/>
</svg>
