<?xml version="1.0" encoding="UTF-8"?><svg id="Layer_1" xmlns="http://www.w3.org/2000/svg" viewBox="0 0 92.17 109.79"><defs><style>.cls-1{fill:none;stroke:#fff;stroke-linecap:round;stroke-linejoin:round;stroke-width:4.44px;}.cls-2{fill:#376cfa;}.cls-3{fill:#e5ebfe;}</style></defs><path class="cls-3" d="M.02,38.58c0-5.61,.03-11.22-.02-16.83-.01-1.27,.5-1.96,1.62-2.45,5.44-2.36,10.85-4.76,16.28-7.14,6.34-2.77,12.68-5.53,19.02-8.3,2.7-1.18,5.39-2.36,8.07-3.59,.77-.35,1.43-.35,2.21,0,6.4,2.82,12.81,5.6,19.21,8.42,4.68,2.06,9.35,4.16,14.03,6.22,3.33,1.47,6.67,2.93,10.02,4.36,1.42,.61,1.72,.99,1.72,2.59,0,10.56,.02,21.11,0,31.67-.02,7.59-1.61,14.86-4.67,21.82-2.31,5.27-5.39,10.01-9.17,14.35-4.51,5.18-9.82,9.31-15.88,12.44-5.07,2.62-10.28,4.97-15.43,7.45-.65,.31-1.26,.28-1.9-.04-5.56-2.72-11.18-5.34-16.69-8.17-3.54-1.82-6.7-4.22-9.71-6.84-4.37-3.81-7.97-8.24-10.94-13.19-3.21-5.35-5.4-11.1-6.64-17.21C.25,59.78-.05,55.4,0,50.98c.06-4.13,.01-8.27,.01-12.4Zm85.05,2.55c0-4.83-.05-9.67,.03-14.5,.02-1.43-.48-2.21-1.79-2.78-12.01-5.24-23.99-10.53-35.97-15.82-.85-.38-1.59-.32-2.43,.05-12.07,5.33-24.14,10.64-36.23,15.93-1.15,.5-1.58,1.24-1.57,2.47,.03,8.93,.02,17.86,.02,26.79,0,2.51,.2,5.01,.63,7.48,2.38,13.9,9.44,24.78,21.14,32.62,5.14,3.44,10.95,5.6,16.44,8.37,.57,.29,1.18,.24,1.79-.06,2.51-1.23,5.02-2.47,7.57-3.62,7.16-3.2,13.58-7.41,18.69-13.45,7.47-8.81,11.43-18.97,11.66-30.53,.09-4.32,.01-8.64,.01-12.95Z"/><path class="cls-2" d="M85.05,41.18c0,4.32,.07,8.64-.01,12.95-.23,11.56-4.2,21.72-11.66,30.53-5.11,6.03-11.53,10.24-18.69,13.45-2.55,1.14-5.06,2.38-7.57,3.62-.62,.3-1.22,.35-1.79,.06-5.49-2.77-11.31-4.93-16.44-8.37-11.7-7.83-18.76-18.72-21.14-32.62-.42-2.48-.63-4.97-.63-7.48,0-8.93,.01-17.86-.02-26.79,0-1.23,.42-1.97,1.57-2.47,12.09-5.28,24.16-10.6,36.23-15.93,.84-.37,1.58-.42,2.43-.05,11.98,5.29,23.97,10.58,35.97,15.82,1.31,.57,1.81,1.35,1.79,2.78-.07,4.83-.03,9.67-.03,14.5Z"/><polyline class="cls-1" points="63.85 42.69 39.43 67.11 28.32 56.01"/></svg>